<svg xmlns="http://www.w3.org/2000/svg" viewBox="0 0 154.58 154.92"><defs><style>.a{fill:#0abdcb;}</style></defs><title>up</title><path class="a" d="M20,128.51c8.16,10.05,18.88,16.43,30.58,21.67,13.84,6.19,28.48,6.25,42.64,4.13a68.32,68.32,0,0,0,32.74-15c18.76-15.32,29.78-34.55,30-59.22a80.41,80.41,0,0,0-2.45-22c-3-11-7.41-21.08-14.73-29.51C123,10.35,103.42-.27,76.9,1,68.38-.24,58.83,2.08,49.49,6,35.2,12,22.91,20.64,14.64,33.94,5.55,48.54.46,64,1.57,81.93S9,114.94,20,128.51ZM80.26,10c37.52,1.29,65.27,30.55,66.43,66.31,1.3,40-31.16,69.44-68.11,69.6C41.87,146,10.5,116.16,11,78.08,9.75,42.28,42.24,8.64,80.26,10Z" transform="translate(-1.42 -0.65)"/><path class="a" d="M108.62,87.18C99.63,80.91,90.81,74.4,82,67.94a4.36,4.36,0,0,0-5.87,0C68.78,73.45,61.76,79.45,54,84.1c-10.2,6.06-8.38,15.7-8.64,24.72-.11,3.72,2.9,4.67,5.88,2.43C59.57,105,68,98.73,76.31,92.36c2-1.53,3.37-1.82,5.61-.09,7.91,6.08,16,11.85,24.13,17.71,1.46,1.07,3,2.36,5,1.46s1.86-3,1.91-4.78,0-3.66,0-6.72C113,96,113.83,90.82,108.62,87.18Z" transform="translate(-1.42 -0.65)"/><path class="a" d="M47.32,82.21c2.58,1.25,4.46-.69,6.27-2q11.05-8.09,22-16.37c2.62-2,5-2.22,7.68-.17,7.65,5.79,15.41,11.44,23.09,17.21,1.24.92,2.33,1.94,4,1.29a4,4,0,0,0,2.57-3.92c.06-2.32,0-4.65,0-7.85,1.81-6.83-1.71-11.47-8.12-15.47C97.49,50.36,90.88,44.71,84,39.56c-3.07-2.27-6.17-2.12-9.19.14-6.77,5.06-13.13,10.81-20.39,15-7,4-8.95,9.68-8.92,16.88a41.84,41.84,0,0,1,.12,4.47C45.32,78.4,44.61,80.89,47.32,82.21Z" transform="translate(-1.42 -0.65)"/></svg>