<svg width="20" height="20" viewBox="0 0 20 20" fill="none" xmlns="http://www.w3.org/2000/svg">
<path d="M18.4997 11.4167H11.4163V18.5C11.4163 19.2792 10.7788 19.9167 9.99968 19.9167C9.22051 19.9167 8.58301 19.2792 8.58301 18.5V11.4167H1.49967C0.720508 11.4167 0.0830078 10.7792 0.0830078 10C0.0830078 9.22083 0.720508 8.58333 1.49967 8.58333H8.58301V1.5C8.58301 0.720828 9.22051 0.0833282 9.99968 0.0833282C10.7788 0.0833282 11.4163 0.720828 11.4163 1.5V8.58333H18.4997C19.2788 8.58333 19.9163 9.22083 19.9163 10C19.9163 10.7792 19.2788 11.4167 18.4997 11.4167Z" fill="#4596D0"/>
</svg>
