<svg width="12" height="20" viewBox="0 0 12 20" fill="none" xmlns="http://www.w3.org/2000/svg">
<path d="M0.997666 19.015C1.48767 19.505 2.27767 19.505 2.76767 19.015L11.0777 10.705C11.4677 10.315 11.4677 9.685 11.0777 9.295L2.76767 0.985C2.27767 0.495 1.48767 0.495 0.997666 0.985C0.507666 1.475 0.507666 2.265 0.997666 2.755L8.23767 10.005L0.987666 17.255C0.507666 17.735 0.507666 18.535 0.997666 19.015Z" fill="#009B79"/>
<path d="M0.997666 19.015C1.48767 19.505 2.27767 19.505 2.76767 19.015L11.0777 10.705C11.4677 10.315 11.4677 9.685 11.0777 9.295L2.76767 0.985C2.27767 0.495 1.48767 0.495 0.997666 0.985C0.507666 1.475 0.507666 2.265 0.997666 2.755L8.23767 10.005L0.987666 17.255C0.507666 17.735 0.507666 18.535 0.997666 19.015Z" fill="url(#paint0_linear)"/>
<defs>
<linearGradient id="paint0_linear" x1="5.99954" y1="0.6175" x2="5.99954" y2="19.3825" gradientUnits="userSpaceOnUse">
<stop stop-color="#287FD0"/>
<stop offset="1" stop-color="#50A4F2"/>
</linearGradient>
</defs>
</svg>
