<svg width="15" height="15" viewBox="0 0 15 15" fill="none" xmlns="http://www.w3.org/2000/svg">
<path d="M13.2176 10.0873L11.2067 9.85774C10.7238 9.80232 10.2488 9.96857 9.90839 10.309L8.45172 11.7657C6.21131 10.6257 4.37464 8.79691 3.23464 6.54857L4.69922 5.08399C5.03964 4.74357 5.20589 4.26857 5.15047 3.78565L4.92089 1.79065C4.82589 0.991071 4.15297 0.389404 3.34547 0.389404H1.97589C1.08131 0.389404 0.33714 1.13357 0.392557 2.02815C0.81214 8.78899 6.21922 14.1882 12.9721 14.6077C13.8667 14.6632 14.6109 13.919 14.6109 13.0244V11.6548C14.6188 10.8552 14.0171 10.1823 13.2176 10.0873Z" fill="#FFE2AA"/>
</svg>
