<svg width="50" height="50" viewBox="0 0 50 50" fill="none" xmlns="http://www.w3.org/2000/svg">
<g clip-path="url(#clip0)">
<path d="M49.9084 11.8565C49.7363 11.2165 49.3164 10.671 48.742 10.3402C48.1671 10.0078 47.4837 9.91794 46.8425 10.09C46.2021 10.2625 45.6566 10.682 45.3258 11.2564L44.9092 11.9814C44.5134 11.754 44.0077 11.8878 43.7762 12.2816L41.6599 15.889L40.9349 15.4724C40.7429 15.3613 40.5142 15.3312 40.3002 15.389C40.0858 15.4472 39.9036 15.588 39.7933 15.7808C39.5675 16.1791 39.705 16.6852 40.1017 16.9138L40.8267 17.3304L33.7445 29.6033L31.9948 34.2778L31.1616 35.8356C30.6738 36.6842 30.7259 37.7391 31.295 38.5353L29.4203 40.8347L28.8955 39.5186C28.6587 38.932 28.1107 38.53 27.4806 38.4808C26.85 38.4311 26.2458 38.7428 25.9208 39.2851L25.6209 39.7932L25.3378 36.4605C25.2727 35.672 24.662 35.0382 23.8768 34.943C23.0912 34.8482 22.3476 35.3189 22.0965 36.0691L20.0469 42.2179C19.9037 42.6528 20.1381 43.1215 20.5717 43.268C20.6531 43.3058 20.7406 43.3286 20.8301 43.3343C21.1881 43.3355 21.507 43.1073 21.6218 42.768L23.6628 36.6191L23.9545 40.0015C24.0148 40.7232 24.5335 41.3233 25.2389 41.4869C25.9444 41.6504 26.6742 41.3396 27.0457 40.7184L27.354 40.2098L27.8707 41.5182C28.09 42.0694 28.5859 42.4628 29.173 42.5503C29.76 42.6378 30.3491 42.4063 30.7202 41.9429L32.6616 39.4852C32.8764 39.5414 33.0977 39.5695 33.3198 39.5686C34.2128 39.5756 35.0419 39.1053 35.4943 38.3351L36.3275 36.9438L39.502 33.0862L46.659 20.6632L47.384 21.0798C47.5772 21.1904 47.718 21.3731 47.7754 21.5883C47.8331 21.8019 47.803 22.0297 47.6924 22.2213L44.3596 27.9955C44.2339 28.1851 44.1912 28.4178 44.2416 28.6399C44.2921 28.8617 44.4308 29.0533 44.6261 29.17C44.8181 29.2815 45.0467 29.3116 45.2607 29.2538C45.4751 29.1957 45.6574 29.0549 45.7676 28.8621L49.1004 23.0879C49.4328 22.513 49.5227 21.8296 49.3502 21.1884C49.1777 20.548 48.7583 20.0025 48.1838 19.6717L47.4588 19.2551L49.5418 15.6473C49.7692 15.2515 49.6354 14.7462 49.242 14.5143L49.6586 13.7893C49.9999 13.2055 50.0902 12.5082 49.9084 11.8565ZM46.7672 12.0896C46.8775 11.8968 47.0606 11.7556 47.2758 11.6982C47.4898 11.6453 47.716 11.675 47.9088 11.7816C48.102 11.8919 48.2428 12.075 48.3006 12.2898C48.3535 12.5038 48.3238 12.73 48.2172 12.9228L47.8006 13.6478L46.3506 12.8146L46.7672 12.0896ZM35.4109 35.3527L34.9943 35.111L33.7612 34.3942L34.9443 31.2282L37.5688 32.7445L35.4109 35.3527ZM32.9114 37.7603C32.5594 37.515 32.4512 37.043 32.6616 36.6688L33.0782 35.9442L34.5277 36.7774L34.1111 37.4938C33.9943 37.6964 33.7982 37.8404 33.57 37.8913C33.3418 37.9417 33.103 37.8945 32.9114 37.7603ZM38.5187 31.3783L35.6359 29.7119L42.3014 18.1636L45.1842 19.83L38.5187 31.3783ZM46.0174 18.3886L43.1346 16.7222L44.801 13.8394L47.6838 15.5058L46.0174 18.3886Z" fill="#3E86BA"/>
<path d="M13.1478 37.3437L10.1987 40.2851L8.43221 38.5186C8.10715 38.1956 7.58234 38.1956 7.25728 38.5186C7.09943 38.6752 7.01074 38.888 7.01074 39.1101C7.01074 39.3323 7.09943 39.5454 7.25728 39.7017L9.02375 41.4681C9.33619 41.7781 9.75849 41.9519 10.1987 41.9514C10.6413 41.9539 11.0673 41.7802 11.3817 41.4681L14.3227 38.5186C14.6059 38.1878 14.5868 37.6952 14.2792 37.3876C13.9712 37.0796 13.4786 37.0605 13.1478 37.3437Z" fill="#0B628F"/>
<path d="M3.33301 39.5849C3.33301 43.4966 6.50385 46.6671 10.4151 46.6671C14.3264 46.6671 17.4973 43.4966 17.4973 39.5849C17.4973 39.1248 17.1242 38.7517 16.6641 38.7517C16.2039 38.7517 15.8309 39.1248 15.8309 39.5849C15.8309 42.576 13.4062 45.0007 10.4151 45.0007C7.42411 45.0007 4.99939 42.576 4.99939 39.5849C4.99939 36.5939 7.42411 34.1692 10.4151 34.1692C11.5876 34.1659 12.7288 34.5463 13.6645 35.2526C14.0327 35.5288 14.5551 35.454 14.8309 35.0858C15.1071 34.7176 15.0327 34.1956 14.6645 33.9194C12.5185 32.31 9.64704 32.0512 7.24795 33.2506C4.84846 34.4503 3.33301 36.9027 3.33301 39.5849Z" fill="#4596D0"/>
<path d="M29.9952 6.67384C30.4553 6.67384 30.8284 6.30119 30.8284 5.84065C30.8284 5.38053 30.4553 5.00746 29.9952 5.00746H8.33222C7.87209 5.00746 7.49902 5.38053 7.49902 5.84065V9.17342C7.49902 9.63395 7.87209 10.0066 8.33222 10.0066H29.9952C30.4553 10.0066 30.8284 9.63395 30.8284 9.17342C30.8284 8.71329 30.4553 8.34023 29.9952 8.34023H9.16541V6.67384H29.9952Z" fill="#0B628F"/>
<path d="M10.8312 11.673C10.3711 11.673 9.99805 12.0461 9.99805 12.5062C9.99805 12.9667 10.3711 13.3394 10.8312 13.3394H27.4951C27.9552 13.3394 28.3282 12.9667 28.3282 12.5062C28.3282 12.0461 27.9552 11.673 27.4951 11.673H10.8312Z" fill="#0B628F"/>
<path d="M32.4945 17.5053H14.1642C13.7041 17.5053 13.3311 17.8784 13.3311 18.3385C13.3311 18.7991 13.7041 19.1717 14.1642 19.1717H32.4945C32.9546 19.1717 33.3277 18.7991 33.3277 18.3385C33.3277 17.8784 32.9546 17.5053 32.4945 17.5053Z" fill="#0B628F"/>
<path d="M24.1632 23.3377C24.1632 22.8776 23.7902 22.5045 23.33 22.5045H6.6662C6.20607 22.5045 5.83301 22.8776 5.83301 23.3377C5.83301 23.7982 6.20607 24.1709 6.6662 24.1709H23.33C23.7902 24.1709 24.1632 23.7982 24.1632 23.3377Z" fill="#0B628F"/>
<path d="M32.4946 22.5045H26.6623C26.2022 22.5045 25.8291 22.8776 25.8291 23.3377C25.8291 23.7982 26.2022 24.1709 26.6623 24.1709H32.4946C32.9548 24.1709 33.3278 23.7982 33.3278 23.3377C33.3278 22.8776 32.9548 22.5045 32.4946 22.5045Z" fill="#0B628F"/>
<path d="M14.9981 28.3368C15.4582 28.3368 15.8313 27.9642 15.8313 27.5036C15.8313 27.0435 15.4582 26.6704 14.9981 26.6704H6.6662C6.20607 26.6704 5.83301 27.0435 5.83301 27.5036C5.83301 27.9642 6.20607 28.3368 6.6662 28.3368H14.9981Z" fill="#0B628F"/>
<path d="M18.3303 28.3368H24.1626C24.6227 28.3368 24.9958 27.9642 24.9958 27.5036C24.9958 27.0435 24.6227 26.6704 24.1626 26.6704H18.3303C17.8701 26.6704 17.4971 27.0435 17.4971 27.5036C17.4971 27.9642 17.8701 28.3368 18.3303 28.3368Z" fill="#0B628F"/>
<path d="M37.4936 38.3351C37.0335 38.3351 36.6604 38.7082 36.6604 39.1683V47.5003C36.6604 47.9608 36.2874 48.3334 35.8272 48.3334H2.49957C2.03945 48.3334 1.66638 47.9608 1.66638 47.5003V2.50791C1.66638 2.04779 2.03945 1.67472 2.49957 1.67472H35.8272C36.2874 1.67472 36.6604 2.04779 36.6604 2.50791V18.1555C36.6604 18.6156 37.0335 18.9887 37.4936 18.9887C37.9537 18.9887 38.3268 18.6156 38.3268 18.1555V2.50791C38.3268 1.12753 37.2076 0.00833893 35.8272 0.00833893H2.49957C1.11919 0.00833893 0 1.12753 0 2.50791V47.5003C0 48.881 1.11919 49.9998 2.49957 49.9998H35.8272C37.2076 49.9998 38.3268 48.881 38.3268 47.5003V39.1683C38.3268 38.7082 37.9537 38.3351 37.4936 38.3351Z" fill="#0B628F"/>
</g>
<defs>
<clipPath id="clip0">
<rect width="50" height="50" fill="white"/>
</clipPath>
</defs>
</svg>
