<svg width="50" height="50" viewBox="0 0 50 50" fill="none" xmlns="http://www.w3.org/2000/svg">
<g clip-path="url(#clip0)">
<path d="M48.1787 24.573C47.5874 24.4572 46.9867 24.5783 46.4867 24.9143C46.0726 25.1925 45.7686 25.5907 45.6106 26.0551L43.0411 24.933C43.0464 24.7572 43.049 24.5839 43.049 24.4151C43.049 22.9044 42.8599 21.4043 42.4867 19.9511L43.6393 19.1692C44.3698 19.8091 45.4316 20.0004 46.3612 19.5966C47.6121 19.053 48.2112 17.6055 47.7251 16.3011L47.1825 14.845C46.6906 13.5246 45.2756 12.829 43.9613 13.2603C43.2962 13.4787 42.7609 13.9447 42.4543 14.5723C42.2798 14.9293 42.1918 15.3122 42.1916 15.697L40.884 15.8795C40.7049 15.5512 40.5092 15.2184 40.3002 14.8868C40.084 14.544 39.6306 14.4413 39.288 14.6574C38.945 14.8735 38.8423 15.3267 39.0584 15.6696C39.3051 16.0609 39.5311 16.453 39.7303 16.8352C39.9302 17.2184 40.3517 17.4357 40.7784 17.3762L43.1364 17.047C43.3552 17.0165 43.5487 16.889 43.6629 16.6999C43.7772 16.5109 43.8003 16.2804 43.7258 16.0724C43.6245 15.7902 43.6413 15.4864 43.7729 15.2169C43.9043 14.9482 44.1337 14.7487 44.4191 14.6549C44.9728 14.4733 45.595 14.7885 45.8071 15.3576L46.3497 16.8137C46.5597 17.3773 46.3024 18.0218 45.7762 18.2506C45.2724 18.4694 44.6792 18.2818 44.3958 17.8144C44.2915 17.6425 44.1212 17.5208 43.9248 17.478C43.7284 17.435 43.5228 17.4748 43.3564 17.5877L41.4006 18.9142C41.0378 19.1602 40.8726 19.6101 40.9896 20.0336C41.3822 21.4551 41.5812 22.9293 41.5812 24.4152C41.5812 24.6587 41.5751 24.9131 41.5631 25.1715C41.5437 25.5925 41.7896 25.9884 42.1749 26.1566L45.8416 27.7578C46.0456 27.847 46.2789 27.8387 46.4759 27.7354C46.6731 27.6322 46.8126 27.4451 46.8555 27.2267L46.9717 26.6347C47.0122 26.4283 47.1307 26.25 47.3053 26.1327C47.4798 26.0154 47.6896 25.973 47.896 26.0136C48.3222 26.0972 48.6009 26.5119 48.5173 26.9379L47.916 30.0024C47.8741 30.2157 47.7501 30.3976 47.5668 30.5146C47.3836 30.6316 47.1658 30.667 46.9535 30.6151C46.5523 30.5166 46.2945 30.0869 46.3787 29.6572L46.3948 29.5753C46.438 29.3542 46.3775 29.1255 46.2304 28.955C46.0833 28.7842 45.8644 28.6899 45.6411 28.7009L41.6748 28.8819C41.2549 28.901 40.8835 29.1826 40.7509 29.583C40.3834 30.6924 39.8957 31.7644 39.3012 32.769C39.0797 33.143 39.1186 33.6171 39.3978 33.9489L41.1524 36.0334C41.2828 36.1883 41.4713 36.2824 41.6733 36.2936C41.8754 36.3046 42.0732 36.232 42.2197 36.0925C42.6131 35.7184 43.211 35.6864 43.6415 36.0159C43.8746 36.1942 44.0241 36.4525 44.0629 36.7433C44.1016 37.0342 44.0246 37.3226 43.8464 37.5556L43.338 38.2201C42.9727 38.6973 42.2905 38.8201 41.8172 38.4939C41.4149 38.2167 41.2429 37.7 41.3988 37.2375C41.5204 36.8773 41.3467 36.4839 40.9985 36.3311L38.4708 35.2208C38.0688 35.044 37.5996 35.1439 37.3029 35.4695C36.1759 36.7071 34.8743 37.7616 33.4344 38.6036C33.0707 38.8159 32.8722 39.2373 32.9401 39.6519L33.5872 43.5977C33.6232 43.8173 33.7569 44.0087 33.9507 44.1181C34.1446 44.2275 34.3773 44.2429 34.5841 44.1603L35.144 43.9363C35.3459 43.8555 35.5661 43.8608 35.7639 43.9512C35.9617 44.0415 36.1098 44.205 36.1814 44.4116C36.3167 44.802 36.0958 45.252 35.6892 45.4146L32.8297 46.5585C32.6278 46.6393 32.4078 46.634 32.2098 46.5436C32.0122 46.4534 31.8639 46.2899 31.7923 46.0833C31.6571 45.693 31.8778 45.243 32.2842 45.0804L32.3616 45.0494C32.5708 44.9658 32.7299 44.7907 32.7933 44.5746C32.8566 44.3584 32.8173 44.1251 32.6864 43.9417L30.3795 40.7095C30.1354 40.3673 29.6972 40.2085 29.2897 40.3142C27.9447 40.6628 26.5543 40.8396 25.157 40.8396C24.0506 40.8396 22.9414 40.7279 21.8606 40.5075C21.4479 40.4235 21.0191 40.6048 20.7928 40.9591L18.4838 44.5805C18.3641 44.7681 18.3361 44.9999 18.4077 45.2107C18.479 45.4215 18.6422 45.5884 18.8513 45.6646L18.933 45.6945C19.2134 45.7966 19.4372 46.0019 19.5631 46.2725C19.689 46.543 19.702 46.8464 19.5999 47.1267C19.5704 47.2073 19.5555 47.2924 19.5555 47.3781C19.5555 47.6557 19.4736 47.866 19.3248 47.97C19.1762 48.0742 18.9507 48.0792 18.6898 47.9839L15.8532 46.9496C15.2852 46.7426 14.9828 46.1092 15.179 45.5377C15.2727 45.2653 15.4742 45.0438 15.7467 44.9138C16.0344 44.7765 16.369 44.7595 16.6642 44.8671L16.7292 44.8908C16.9406 44.9681 17.1761 44.9438 17.3675 44.825C17.559 44.7062 17.6852 44.5061 17.71 44.2822L18.18 40.038C18.2263 39.6204 18.006 39.2101 17.6318 39.0169C15.9159 38.1308 14.3807 36.9587 13.0692 35.5337C12.7806 35.2198 12.3222 35.1173 11.9287 35.2789L8.46713 36.6984C8.27504 36.7772 8.12533 36.9336 8.05507 37.1289C7.98472 37.3242 8.00047 37.5401 8.09822 37.7232C8.3179 38.1342 8.18923 38.6377 7.79899 38.8942C7.39672 39.1589 6.83348 39.0351 6.54384 38.6183L5.6572 37.342C5.37284 36.9327 5.44055 36.3832 5.81132 36.0911C6.00301 35.94 6.24089 35.8738 6.48063 35.9046C6.72222 35.9358 6.93593 36.0596 7.08261 36.2536C7.2153 36.4291 7.41981 36.5359 7.63979 36.5444C7.85897 36.5528 8.0718 36.4622 8.2176 36.2973L10.6557 33.5416C10.9418 33.2182 10.9931 32.7466 10.7832 32.3675C10.521 31.8947 10.2772 31.3968 10.0586 30.8876C9.89851 30.5152 9.46708 30.3429 9.09456 30.5029C8.72213 30.6629 8.54991 31.0944 8.7098 31.4668C8.9058 31.9229 9.12039 32.3711 9.34956 32.8027L7.60329 34.7767C7.32245 34.6045 7.0056 34.4921 6.66811 34.4487C6.03334 34.3672 5.40689 34.541 4.90286 34.9381C3.92345 35.7099 3.7254 37.1337 4.45195 38.1793L5.33859 39.4555C6.07845 40.5205 7.54389 40.8187 8.60569 40.1204C9.39976 39.5982 9.78246 38.6873 9.64889 37.7999L12.2009 36.7533C13.5115 38.1295 15.0184 39.2798 16.6878 40.1782L16.3387 43.3307C15.9197 43.3187 15.4981 43.4058 15.1147 43.5887C14.4838 43.8897 14.0136 44.4123 13.7909 45.0606C13.3366 46.3833 14.0363 47.8492 15.3505 48.3284L18.187 49.3627C18.4716 49.4665 18.7577 49.5178 19.0331 49.5178C19.448 49.5178 19.8391 49.4013 20.1664 49.1723C20.68 48.8129 20.987 48.2108 21.0203 47.5065C21.2106 46.8928 21.167 46.2392 20.8938 45.6526C20.7187 45.2765 20.4619 44.9549 20.144 44.7068L21.8673 42.0039C24.342 42.4643 26.9225 42.3966 29.3611 41.8089L31.0358 44.1553C30.3767 44.7518 30.1029 45.6905 30.4053 46.5637C30.6096 47.1531 31.0339 47.62 31.6001 47.8786C32.1584 48.1335 32.8051 48.149 33.3748 47.9212L36.2344 46.7773C37.3769 46.3202 37.9629 45.07 37.5684 43.9311C37.3642 43.3417 36.9399 42.8747 36.3737 42.616C35.9092 42.4039 35.3832 42.3574 34.8914 42.4793L34.4378 39.7141C35.8115 38.8792 37.0651 37.8644 38.1709 36.6923L39.8786 37.4423C39.8309 38.3195 40.2376 39.188 40.9843 39.7026C42.1106 40.4787 43.6565 40.2191 44.5037 39.1121L45.0121 38.4476C45.4287 37.9033 45.6083 37.2293 45.5179 36.5498C45.4275 35.8703 45.078 35.2666 44.5335 34.8501C43.7393 34.2423 42.7024 34.1605 41.8487 34.5812L40.7226 33.2434C41.2489 32.3167 41.6928 31.3406 42.0455 30.3342L44.9241 30.2029C45.0668 31.0803 45.7062 31.8201 46.6037 32.0405C47.2094 32.1893 47.832 32.0865 48.3566 31.7517C48.8739 31.4214 49.2383 30.8869 49.3564 30.2848L49.9577 27.2203C50.197 26 49.399 24.8125 48.1787 24.573Z" fill="#C1EABA"/>
<path d="M4.72842 26.5554L7.47924 27.1908C7.53913 27.5733 7.6132 27.9617 7.70029 28.3491C7.77691 28.6904 8.07986 28.9224 8.41569 28.9223C8.46892 28.9223 8.52304 28.9164 8.57715 28.9043C8.97257 28.8154 9.22121 28.423 9.13236 28.0274C9.03128 27.5769 8.94918 27.1257 8.88851 26.6864C8.83068 26.2682 8.51618 25.9236 8.10609 25.829L4.2101 24.9292C3.99355 24.8792 3.76536 24.9302 3.59069 25.0679C3.41593 25.2057 3.31308 25.4153 3.31113 25.6378L3.30711 26.0939C3.30252 26.6045 2.88341 27.02 2.37272 27.02C2.12956 27.02 1.90127 26.9248 1.73013 26.7521C1.55888 26.5793 1.46583 26.3503 1.46798 26.1072L1.49342 23.2769C1.49567 23.0174 1.60595 22.7635 1.79588 22.5803C1.97437 22.4081 2.19991 22.3157 2.43819 22.3227C2.93391 22.3359 3.3351 22.7504 3.33236 23.2468C3.33109 23.4715 3.43295 23.6846 3.60879 23.8247C3.78463 23.9649 4.01517 24.0168 4.23378 23.9653L8.10237 23.0582C8.51217 22.9621 8.8253 22.6166 8.88176 22.1984C9.1672 20.0815 9.85402 18.0692 10.9231 16.2171C11.1387 15.8431 11.0963 15.3712 10.8169 15.0428L8.97208 12.8762C8.82784 12.7069 8.6158 12.6118 8.39211 12.6183C8.16969 12.6248 7.96215 12.7317 7.82789 12.9092L7.668 13.1205C7.54852 13.2784 7.37435 13.3778 7.17747 13.4004C6.98127 13.4229 6.78841 13.3651 6.63546 13.2377C6.34641 12.9969 6.30746 12.5415 6.54867 12.2226L7.7775 10.5979C8.01606 10.2825 8.46677 10.2199 8.78215 10.4585C9.07747 10.6818 9.15311 11.1013 8.95447 11.4136C8.8392 11.5949 8.80915 11.8175 8.87227 12.0229C8.93538 12.2283 9.08529 12.3957 9.28237 12.481L11.8621 13.5967C12.262 13.7698 12.7288 13.6694 13.0238 13.3465C14.1982 12.06 15.5595 10.9734 17.0703 10.117C17.4363 9.90939 17.6403 9.49098 17.5781 9.0755L16.9838 5.12148C16.9508 4.90141 16.8195 4.70825 16.6273 4.59631C16.4348 4.48426 16.2019 4.46567 15.9945 4.54552L15.4316 4.76207C15.2287 4.83996 15.0087 4.83184 14.8121 4.73888C14.6156 4.64601 14.4696 4.48055 14.4008 4.273C14.2708 3.88081 14.4975 3.43392 14.9064 3.27667L17.7809 2.17104C17.9839 2.09295 18.2039 2.10127 18.4004 2.19423C18.5969 2.28709 18.743 2.45256 18.8118 2.6601C18.9418 3.05229 18.715 3.49919 18.3061 3.65653L18.2284 3.68647C18.0182 3.7674 17.8568 3.9403 17.7905 4.15558C17.7244 4.37085 17.7606 4.60462 17.8891 4.78966L20.152 8.05186C20.3913 8.39689 20.8269 8.56158 21.2358 8.46147C22.5112 8.14913 23.8305 7.99071 25.1585 7.99071H25.1589C25.5919 7.99071 25.9801 7.71779 26.1248 7.312L26.8741 5.21542C26.9413 5.02734 26.929 4.8199 26.8398 4.64122C26.7508 4.46244 26.5927 4.3276 26.402 4.26801C25.8564 4.09736 25.5093 3.56152 25.5766 2.99397C25.6126 2.692 25.7712 2.41713 26.0232 2.21996C26.2879 2.01291 26.6266 1.9177 26.9529 1.95889L27.9819 2.08845C28.6489 2.17241 29.1347 2.76236 29.065 3.40349C29.0111 3.89842 28.6646 4.29981 28.1823 4.42604C27.829 4.51851 27.5974 4.85669 27.639 5.21953L27.8994 7.49146C27.949 7.92505 28.2693 8.27947 28.6969 8.3735C30.3361 8.7336 31.9069 9.34391 33.3652 10.1872C33.7305 10.3986 34.1953 10.3622 34.522 10.097L37.6268 7.57679C37.7996 7.43657 37.8993 7.2255 37.8981 7.00298C37.8968 6.78057 37.7948 6.57057 37.6206 6.43221L37.1483 6.05714C36.978 5.92201 36.8733 5.72826 36.8535 5.51152C36.8339 5.29517 36.9022 5.08537 37.0461 4.92069C37.3178 4.60942 37.818 4.57791 38.1612 4.85023L40.5733 6.7653C40.7436 6.90043 40.8483 7.09418 40.868 7.31083C40.8877 7.52718 40.8194 7.73697 40.6755 7.90176C40.4036 8.21283 39.9032 8.24434 39.5605 7.97231L39.4954 7.92064C39.3189 7.78042 39.0878 7.72915 38.8689 7.7814C38.6497 7.83365 38.4667 7.98366 38.3725 8.18827L36.7095 11.7982C36.5337 12.1801 36.6134 12.6392 36.9076 12.9407C37.012 13.0475 37.115 13.1581 37.2376 13.2913C37.5121 13.5895 37.9764 13.6087 38.2746 13.3341C38.5728 13.0596 38.592 12.5953 38.3175 12.2971C38.2656 12.2406 38.2168 12.1878 38.1695 12.1372L39.3772 9.51534C40.2222 9.79168 41.1729 9.56358 41.7809 8.86756C42.1913 8.39777 42.3862 7.79764 42.3296 7.17775C42.274 6.56656 41.9664 5.99735 41.4859 5.61593L39.0738 3.70096C38.1101 2.93585 36.7339 3.0473 35.9407 3.95527C35.5303 4.42506 35.3354 5.02519 35.3919 5.64509C35.4383 6.15372 35.659 6.6334 36.0089 6.99985L33.834 8.7656C32.4132 7.97603 30.898 7.38686 29.3222 7.01101L29.161 5.60321C29.9069 5.19066 30.4301 4.43094 30.5247 3.5625C30.6806 2.13013 29.6223 0.815683 28.1658 0.632209L27.1368 0.502653C26.4258 0.413216 25.6902 0.617727 25.1197 1.06384C24.5572 1.50368 24.202 2.12769 24.1197 2.82097C23.9999 3.82885 24.4649 4.79191 25.2725 5.33656L24.8475 6.52556C23.6109 6.5467 22.3818 6.69436 21.1851 6.96551L19.5428 4.59787C20.2096 4.01037 20.496 3.07539 20.2053 2.19824C20.0089 1.60613 19.5909 1.13351 19.0283 0.867349C18.4734 0.605007 17.827 0.580837 17.2543 0.801103L14.3799 1.90664C13.2312 2.34834 12.6285 3.59068 13.0079 4.73486C13.2042 5.32697 13.6221 5.7996 14.1849 6.06575C14.6465 6.28406 15.1715 6.33759 15.6653 6.22222L16.0817 8.9932C14.6326 9.84755 13.3144 10.8991 12.156 12.1244L10.4991 11.4078C10.6337 10.6233 10.334 9.79168 9.66781 9.28774C9.20233 8.93567 8.62783 8.78566 8.04953 8.86619C7.47142 8.94633 6.95916 9.24693 6.60718 9.71242L5.37826 11.3372C4.65914 12.2877 4.79877 13.6179 5.69608 14.3654C6.16039 14.7522 6.74584 14.9275 7.34509 14.8586C7.7229 14.8152 8.08182 14.6725 8.38536 14.451L9.49706 15.7569C8.4698 17.6099 7.78904 19.6061 7.47063 21.6987L4.63086 22.3646C4.28613 21.5043 3.45203 20.8812 2.47703 20.8554C1.84226 20.8395 1.24077 21.0762 0.776555 21.5241C0.305298 21.9789 0.0315074 22.6129 0.0255384 23.2636L9.67687e-05 26.0941C-0.00557867 26.7318 0.238563 27.3325 0.687412 27.7854C1.13626 28.2384 1.73482 28.4878 2.37262 28.4878C3.53217 28.4879 4.50825 27.6547 4.72842 26.5554Z" fill="#C1EABA"/>
<path d="M21.5237 22.5493C21.8818 22.3596 22.0183 21.9153 21.8284 21.5572C21.6387 21.1992 21.1946 21.0624 20.8362 21.2525C19.0824 22.1821 17.0834 21.9364 16.0836 20.6678C15.5226 19.9562 15.3297 19.0132 15.5402 18.0127C15.761 16.9635 16.3923 15.9839 17.3179 15.2544C18.2433 14.5248 19.3434 14.1403 20.415 14.17C21.437 14.1989 22.3088 14.6067 22.8699 15.3184C23.7122 16.3871 23.7015 17.9821 22.8426 19.3821C22.6306 19.7276 22.7388 20.1795 23.0844 20.3915C23.4298 20.6034 23.8817 20.4952 24.0936 20.1498C25.2778 18.2197 25.2498 15.9667 24.0225 14.4098C23.1875 13.3504 21.921 12.7442 20.4564 12.7029C19.0411 12.6618 17.6042 13.1597 16.4093 14.1017C15.2141 15.0437 14.3955 16.3254 14.1039 17.7104C13.8021 19.1441 14.0958 20.5172 14.9308 21.5765C15.81 22.6918 17.1867 23.2785 18.6678 23.2784C19.6114 23.2784 20.5973 23.0404 21.5237 22.5493Z" fill="#C1EABA"/>
<path d="M35.7639 15.9676C35.7639 14.4461 34.348 13.2083 32.6076 13.2083C30.8672 13.2083 29.4512 14.4461 29.4512 15.9676C29.4512 17.4891 30.8672 18.7269 32.6076 18.7269C34.348 18.7269 35.7639 17.4891 35.7639 15.9676ZM30.9191 15.9676C30.9191 15.2554 31.6765 14.676 32.6077 14.676C33.5388 14.676 34.2962 15.2554 34.2962 15.9676C34.2962 16.6798 33.5388 17.2591 32.6077 17.2591C31.6765 17.2591 30.9191 16.6798 30.9191 15.9676Z" fill="#C1EABA"/>
<path d="M27.2478 28.5809C27.2478 26.7162 25.7308 25.1992 23.8662 25.1992C22.0014 25.1992 20.4844 26.7162 20.4844 28.5809C20.4844 30.4456 22.0014 31.9626 23.8662 31.9626C25.7308 31.9626 27.2478 30.4456 27.2478 28.5809ZM21.9523 28.5809C21.9523 27.5256 22.8108 26.667 23.8662 26.667C24.9215 26.667 25.7801 27.5256 25.7801 28.5809C25.7801 29.6362 24.9216 30.4948 23.8662 30.4948C22.8108 30.4948 21.9523 29.6362 21.9523 28.5809Z" fill="#C1EABA"/>
<path d="M36.8141 27.2014C36.8141 25.7514 35.6344 24.5717 34.1844 24.5717C32.7344 24.5717 31.5547 25.7514 31.5547 27.2014C31.5547 28.6515 32.7344 29.8312 34.1844 29.8312C35.6344 29.8311 36.8141 28.6515 36.8141 27.2014ZM33.0224 27.2014C33.0224 26.5607 33.5436 26.0394 34.1843 26.0394C34.825 26.0394 35.3463 26.5607 35.3463 27.2014C35.3463 27.8422 34.825 28.3634 34.1843 28.3634C33.5437 28.3633 33.0224 27.8422 33.0224 27.2014Z" fill="#C1EABA"/>
<path d="M27.1836 39.0302C28.6045 39.0302 29.7606 37.8742 29.7606 36.4532C29.7606 35.0323 28.6046 33.8762 27.1836 33.8762C25.7626 33.8762 24.6064 35.0322 24.6064 36.4532C24.6064 37.8742 25.7625 39.0302 27.1836 39.0302ZM27.1836 35.3439C27.7953 35.3439 28.2928 35.8415 28.2928 36.4532C28.2928 37.0649 27.7953 37.5624 27.1836 37.5624C26.5719 37.5624 26.0742 37.0649 26.0742 36.4532C26.0742 35.8415 26.5719 35.3439 27.1836 35.3439Z" fill="#C1EABA"/>
<path d="M15.65 34.6982C17.1134 34.6982 18.304 33.5077 18.304 32.0443C18.304 30.5809 17.1134 29.3903 15.65 29.3903C14.1867 29.3903 12.9961 30.5809 12.9961 32.0443C12.9961 33.5077 14.1867 34.6982 15.65 34.6982ZM15.65 30.8581C16.3042 30.8581 16.8362 31.3902 16.8362 32.0443C16.8362 32.6983 16.3041 33.2304 15.65 33.2304C14.996 33.2304 14.4639 32.6983 14.4639 32.0443C14.4639 31.3902 14.996 30.8581 15.65 30.8581Z" fill="#C1EABA"/>
<path d="M30.5951 22.8596C30.5951 22.4543 30.2666 22.1257 29.8612 22.1257H29.2124C28.807 22.1257 28.4785 22.4543 28.4785 22.8596C28.4785 23.2649 28.807 23.5935 29.2124 23.5935H29.8612C30.2666 23.5935 30.5951 23.2649 30.5951 22.8596Z" fill="#C1EABA"/>
<path d="M20.5513 36.4219H21.2178C21.6232 36.4219 21.9517 36.0933 21.9517 35.688C21.9517 35.2827 21.6232 34.9541 21.2178 34.9541H20.5513C20.1459 34.9541 19.8174 35.2827 19.8174 35.688C19.8174 36.0933 20.146 36.4219 20.5513 36.4219Z" fill="#C1EABA"/>
<path d="M14.3721 25.7343C14.7775 25.7343 15.106 25.4057 15.106 25.0004C15.106 24.5951 14.7775 24.2665 14.3721 24.2665H13.73C13.3246 24.2665 12.9961 24.5951 12.9961 25.0004C12.9961 25.4057 13.3246 25.7343 13.73 25.7343H14.3721Z" fill="#C1EABA"/>
<path d="M27.4068 12.8944C27.8122 12.8944 28.1407 12.5658 28.1407 12.1605C28.1407 11.7552 27.8122 11.4266 27.4068 11.4266H26.5132C26.1078 11.4266 25.7793 11.7552 25.7793 12.1605C25.7793 12.5658 26.1078 12.8944 26.5132 12.8944H27.4068Z" fill="#C1EABA"/>
<path d="M32.2896 32.5649C31.8842 32.5649 31.5557 32.8935 31.5557 33.2988C31.5557 33.7041 31.8842 34.0327 32.2896 34.0327H33.2763C33.6817 34.0327 34.0102 33.7041 34.0102 33.2988C34.0102 32.8935 33.6817 32.5649 33.2763 32.5649H32.2896Z" fill="#C1EABA"/>
</g>
<defs>
<clipPath id="clip0">
<rect width="50" height="50" fill="white"/>
</clipPath>
</defs>
</svg>
