<svg width="50" height="50" viewBox="0 0 50 50" fill="none" xmlns="http://www.w3.org/2000/svg">
<path d="M36.4401 1.96501L7.58857 0.0352237C6.64805 -0.027081 5.83232 0.686103 5.76934 1.62634L5.54365 5.00104H1.70898C0.766699 5.00104 0 5.76774 0 6.71003V48.2594C0 49.2017 0.766699 49.9684 1.70898 49.9684H23.7931C23.9845 49.9684 24.1741 49.8902 24.3099 49.7551L27.6437 46.436C27.6775 46.4432 27.7121 46.449 27.7477 46.4513L33.4393 46.832C34.3477 46.892 35.1976 46.1531 35.2585 45.2409L38.0312 3.78434C38.0936 2.85388 37.3705 2.02722 36.4401 1.96501ZM24.5255 47.4632V42.3754C24.5255 42.2408 24.6351 42.1312 24.7696 42.1312H29.838L24.5255 47.4632ZM33.7969 45.1432C33.773 45.2907 33.6864 45.3665 33.5371 45.3705L29.0176 45.0681L32.1184 41.9811C32.2564 41.8437 32.3341 41.6569 32.3341 41.4621V6.71013C32.3341 5.76784 31.5674 5.00114 30.6251 5.00114H23.0086C22.0616 5.00114 22.0616 6.46599 23.0086 6.46599H30.6251C30.7598 6.46599 30.8692 6.57556 30.8692 6.71013V40.6664H24.7696C23.8273 40.6664 23.0606 41.4331 23.0606 42.3754V48.5036H1.70898C1.57441 48.5036 1.46484 48.394 1.46484 48.2594V6.71013C1.46484 6.57556 1.57441 6.46599 1.70898 6.46599H19.1082C20.0552 6.46599 20.0552 5.00114 19.1082 5.00114H7.01172L7.23086 1.72419C7.25469 1.57663 7.34131 1.50095 7.49072 1.49694L36.3423 3.42663C36.4898 3.45046 36.5656 3.53708 36.5696 3.68649L33.7969 45.1432Z" fill="#0B628F"/>
<path d="M26.1546 23.1491H6.17871C5.77422 23.1491 5.44629 23.477 5.44629 23.8815C5.44629 24.286 5.77422 24.614 6.17871 24.614H26.1546C26.5592 24.614 26.887 24.286 26.887 23.8815C26.887 23.477 26.5592 23.1491 26.1546 23.1491Z" fill="#3E86BA"/>
<path d="M26.1546 28.255H6.17871C5.77422 28.255 5.44629 28.583 5.44629 28.9875C5.44629 29.3919 5.77422 29.7199 6.17871 29.7199H26.1546C26.5592 29.7199 26.887 29.3919 26.887 28.9875C26.887 28.583 26.5592 28.255 26.1546 28.255Z" fill="#3E86BA"/>
<path d="M5.44629 18.7755C5.44629 19.18 5.77422 19.508 6.17871 19.508H26.1546C26.5592 19.508 26.887 19.18 26.887 18.7755C26.887 18.3711 26.5592 18.0431 26.1546 18.0431H6.17871C5.77422 18.0431 5.44629 18.3711 5.44629 18.7755Z" fill="#3E86BA"/>
<path d="M8.96582 13.6696C8.96582 14.074 9.29375 14.402 9.69824 14.402H22.6364C23.0409 14.402 23.3688 14.074 23.3688 13.6696C23.3688 13.2651 23.0409 12.9371 22.6364 12.9371H9.69824C9.29375 12.9371 8.96582 13.2651 8.96582 13.6696Z" fill="#3E86BA"/>
<path d="M19.0189 42.8503C17.7017 42.8538 16.3844 42.8566 15.0671 42.8587C14.6243 42.8594 14.1816 42.8599 13.739 42.8602C12.9367 42.8608 12.3962 42.6998 12.2165 41.8174C12.0646 41.0713 11.0091 41.1716 10.804 41.8174C10.2972 43.4128 9.45889 42.7877 8.98936 41.7145C8.5209 40.6439 8.40078 39.4457 8.19619 38.3063C8.0458 37.4691 6.77959 37.7038 6.75752 38.5011C6.72842 39.551 6.63037 40.5842 6.36387 41.6024C6.08897 42.653 5.67695 43.6627 5.26797 44.6665C4.91143 45.5416 6.3292 45.918 6.68047 45.0559C7.04287 44.1665 7.40576 43.2722 7.67588 42.3495C8.17783 43.5565 9.21631 44.9218 10.6961 44.1172C10.9714 43.9675 11.2285 43.7547 11.4542 43.5065C12.2237 44.3958 13.3691 44.3257 14.4409 44.3244C15.967 44.3224 17.4931 44.3191 19.0191 44.3151C19.9614 44.3127 19.9632 42.8478 19.0189 42.8503Z" fill="#3E86BA"/>
<path d="M49.4073 24.0663C49.0267 23.6876 48.5035 23.4933 47.9723 23.479L47.4187 23.4817V22.4349C47.4187 21.7973 47.04 21.1237 46.4975 20.7882V19.3138C46.4975 16.2797 41.7737 16.2929 41.7737 19.3281V20.8027C41.2211 21.1443 40.8504 21.754 40.8504 22.4484V23.5209C38.4123 23.6869 38.4053 27.4022 40.8531 27.5474C40.8687 30.8262 40.8679 34.0513 40.8504 37.385C40.8456 38.3044 42.3102 38.3583 42.3152 37.3927C42.3328 34.0562 42.3336 30.8283 42.318 27.5467L45.9519 27.5287C45.9519 27.5287 45.9472 38.3537 45.9472 43.2302C45.9472 45.607 42.3126 45.6228 42.3126 43.2055L42.3138 41.8699C42.371 40.9246 40.9089 40.8364 40.8516 41.7816V43.0349C40.8516 44.1091 41.1839 45.0189 41.827 45.6588C41.8842 47.1914 42.53 48.6743 43.6209 49.7561C43.9339 50.0667 44.3672 49.9717 44.6701 49.7383C45.78 48.6265 46.4054 47.1608 46.4444 45.5964C46.9279 45.1148 47.412 44.6299 47.412 42.9698L47.4126 36.2949C48.6792 36.6551 49.9999 35.675 49.9999 34.347V25.4923C49.9999 24.953 49.7894 24.4465 49.4073 24.0663ZM42.3152 23.507V22.4483C42.3152 22.2316 42.4639 22.0499 42.6641 21.9959L45.5963 21.9813C45.6783 22.0016 45.754 22.0404 45.8153 22.1015C45.9047 22.1905 45.9539 22.3088 45.9539 22.4349V23.489L42.3152 23.507ZM44.1386 18.4289C44.5882 18.4289 45.0326 18.8697 45.0326 19.3138V20.5019L43.2385 20.5108V19.3281C43.2385 18.8346 43.6421 18.4313 44.1386 18.4289ZM44.1375 48.1067C43.7969 47.6241 43.5507 47.0783 43.4132 46.5046C43.6399 46.5537 43.8696 46.5793 44.0994 46.5793C44.3559 46.5793 44.6124 46.5474 44.8649 46.4858C44.7307 47.0682 44.4848 47.6173 44.1375 48.1067ZM48.535 34.347C48.535 35.0405 47.4167 35.0951 47.4167 34.3598C47.4167 34.3598 47.418 27.4288 47.4187 26.7934C47.4192 26.3837 47.0786 26.0601 46.6806 26.0601L40.9786 26.0884C40.2714 26.0884 40.2879 24.9819 40.9858 24.9785L47.9795 24.9438C48.3177 24.9726 48.5028 25.1555 48.5349 25.4923V34.347H48.535Z" fill="#0B628F"/>
</svg>
