<svg width="21" height="21" viewBox="0 0 21 21" fill="none" xmlns="http://www.w3.org/2000/svg">
<path d="M11.5749 0.806771C11.4253 0.683396 11.2271 0.632209 11.0355 0.667646L0.5355 2.6364C0.224437 2.69415 0 2.96452 0 3.28083V17.7183C0 18.0333 0.224437 18.305 0.5355 18.3628L11.0355 20.3315C11.0749 20.3394 11.1169 20.3433 11.1562 20.3433C11.3072 20.3433 11.4568 20.2908 11.5749 20.1924C11.7259 20.0677 11.8125 19.8813 11.8125 19.6871V1.31208C11.8125 1.11652 11.7259 0.931459 11.5749 0.806771ZM10.5 18.8956L1.3125 17.1736V3.82552L10.5 2.10352V18.8956Z" fill="#444444"/>
<path d="M20.3438 3.28082H11.1562C10.794 3.28082 10.5 3.57482 10.5 3.93707C10.5 4.29932 10.794 4.59332 11.1562 4.59332H19.6875V16.4058H11.1562C10.794 16.4058 10.5 16.6998 10.5 17.0621C10.5 17.4243 10.794 17.7183 11.1562 17.7183H20.3438C20.706 17.7183 21 17.4243 21 17.0621V3.93707C21 3.57482 20.706 3.28082 20.3438 3.28082Z" fill="#444444"/>
<path d="M13.7812 5.90582H11.1562C10.794 5.90582 10.5 6.19982 10.5 6.56207C10.5 6.92432 10.794 7.21832 11.1562 7.21832H13.7812C14.1435 7.21832 14.4375 6.92432 14.4375 6.56207C14.4375 6.19982 14.1435 5.90582 13.7812 5.90582Z" fill="#444444"/>
<path d="M13.7812 8.53082H11.1562C10.794 8.53082 10.5 8.82482 10.5 9.18707C10.5 9.54932 10.794 9.84332 11.1562 9.84332H13.7812C14.1435 9.84332 14.4375 9.54932 14.4375 9.18707C14.4375 8.82482 14.1435 8.53082 13.7812 8.53082Z" fill="#444444"/>
<path d="M13.7812 11.1558H11.1562C10.794 11.1558 10.5 11.4498 10.5 11.8121C10.5 12.1743 10.794 12.4683 11.1562 12.4683H13.7812C14.1435 12.4683 14.4375 12.1743 14.4375 11.8121C14.4375 11.4498 14.1435 11.1558 13.7812 11.1558Z" fill="#444444"/>
<path d="M13.7812 13.7808H11.1562C10.794 13.7808 10.5 14.0748 10.5 14.4371C10.5 14.7993 10.794 15.0933 11.1562 15.0933H13.7812C14.1435 15.0933 14.4375 14.7993 14.4375 14.4371C14.4375 14.0748 14.1435 13.7808 13.7812 13.7808Z" fill="#444444"/>
<path d="M17.7188 5.90582H16.4062C16.044 5.90582 15.75 6.19982 15.75 6.56207C15.75 6.92432 16.044 7.21832 16.4062 7.21832H17.7188C18.081 7.21832 18.375 6.92432 18.375 6.56207C18.375 6.19982 18.081 5.90582 17.7188 5.90582Z" fill="#444444"/>
<path d="M17.7188 8.53082H16.4062C16.044 8.53082 15.75 8.82482 15.75 9.18707C15.75 9.54932 16.044 9.84332 16.4062 9.84332H17.7188C18.081 9.84332 18.375 9.54932 18.375 9.18707C18.375 8.82482 18.081 8.53082 17.7188 8.53082Z" fill="#444444"/>
<path d="M17.7188 11.1558H16.4062C16.044 11.1558 15.75 11.4498 15.75 11.8121C15.75 12.1743 16.044 12.4683 16.4062 12.4683H17.7188C18.081 12.4683 18.375 12.1743 18.375 11.8121C18.375 11.4498 18.081 11.1558 17.7188 11.1558Z" fill="#444444"/>
<path d="M17.7188 13.7808H16.4062C16.044 13.7808 15.75 14.0748 15.75 14.4371C15.75 14.7993 16.044 15.0933 16.4062 15.0933H17.7188C18.081 15.0933 18.375 14.7993 18.375 14.4371C18.375 14.0748 18.081 13.7808 17.7188 13.7808Z" fill="#444444"/>
<path d="M9.02588 12.6928L4.43213 7.44278C4.19063 7.16847 3.77719 7.14222 3.5055 7.38109C3.2325 7.61997 3.20494 8.03472 3.44382 8.3064L8.03757 13.5564C8.1675 13.7047 8.34863 13.7808 8.53107 13.7808C8.68463 13.7808 8.83819 13.727 8.96419 13.6181C9.23719 13.3792 9.26475 12.9658 9.02588 12.6928Z" fill="#444444"/>
<path d="M8.93421 6.70121C8.64809 6.47677 8.23596 6.53058 8.01284 6.8154L3.41908 12.7216C3.19727 13.0078 3.24846 13.4212 3.53458 13.643C3.65533 13.7362 3.79708 13.7808 3.93752 13.7808C4.13177 13.7808 4.32602 13.6942 4.45465 13.5288L9.0484 7.62258C9.27152 7.33515 9.22034 6.92302 8.93421 6.70121Z" fill="#444444"/>
</svg>
