<svg width="42" height="42" viewBox="0 0 42 42" fill="none" xmlns="http://www.w3.org/2000/svg">
<path d="M42 28.4238C42 22.3019 37.875 16.9532 32.0582 15.3414C31.6926 6.82013 24.6469 0 16.0371 0C7.19408 0 0 7.19408 0 16.0371C0 18.9191 0.76712 21.7251 2.22382 24.1886L0.05896 32.0149L7.88557 29.8504C10.1501 31.1895 12.7046 31.9438 15.3411 32.0576C16.9526 37.8747 22.3016 42 28.4238 42C30.8675 42 33.2438 41.3492 35.3318 40.1126L41.9407 41.9407L40.1126 35.3318C41.3492 33.2438 42 30.8675 42 28.4238ZM8.27394 27.1895L3.58855 28.4857L4.8847 23.8003L4.58926 23.3382C3.19698 21.1599 2.46094 18.6352 2.46094 16.0371C2.46094 8.55112 8.55112 2.46094 16.0371 2.46094C23.5231 2.46094 29.6133 8.55112 29.6133 16.0371C29.6133 23.5231 23.5231 29.6133 16.0371 29.6133C13.439 29.6133 10.9146 28.8772 8.73601 27.485L8.27394 27.1895ZM38.4115 38.4115L34.9347 37.4495L34.4704 37.7517C32.6705 38.9209 30.5794 39.5391 28.4238 39.5391C23.6122 39.5391 19.384 36.428 17.886 31.9669C25.2541 31.1174 31.1174 25.2541 31.9672 17.8857C36.428 19.384 39.5391 23.6122 39.5391 28.4238C39.5391 30.5794 38.9209 32.6705 37.7517 34.4704L37.4495 34.9347L38.4115 38.4115Z" fill="#FFE2AA"/>
<path d="M14.8066 22.2305H17.2676V24.6914H14.8066V22.2305Z" fill="#FFE2AA"/>
<path d="M18.498 12.3047C18.498 13.0036 18.2135 13.6486 17.697 14.1212L14.8066 16.7667V19.7695H17.2676V17.8504L19.3584 15.9368C20.3755 15.006 20.959 13.6822 20.959 12.3047C20.959 9.59061 18.7512 7.38281 16.0371 7.38281C13.323 7.38281 11.1152 9.59061 11.1152 12.3047H13.5762C13.5762 10.9476 14.6801 9.84375 16.0371 9.84375C17.3941 9.84375 18.498 10.9476 18.498 12.3047Z" fill="#FFE2AA"/>
</svg>
