<svg width="50" height="50" viewBox="0 0 50 50" fill="none" xmlns="http://www.w3.org/2000/svg">
<g clip-path="url(#clip0)">
<path d="M47.9101 26.6144C47.5048 26.6144 47.1762 26.9431 47.1762 27.3483V47.1805C47.1762 47.9259 46.5697 48.5322 45.8243 48.5322H28.5421C27.7967 48.5322 27.1903 47.9258 27.1903 47.1805V45.23C27.1903 44.8247 26.8617 44.4961 26.4564 44.4961C26.0512 44.4961 25.7226 44.8247 25.7226 45.23V47.1805C25.7226 47.67 25.8481 48.1307 26.0686 48.5322H3.7124C3.57754 48.5322 3.46777 48.4224 3.46777 48.2876V30.5827C3.46777 30.1774 3.13916 29.8488 2.73389 29.8488C2.32861 29.8488 2 30.1773 2 30.5827V48.2877C2 49.2318 2.76816 50 3.7123 50H45.8242C47.3789 50 48.6437 48.7351 48.6437 47.1805V27.3483C48.6438 26.9431 48.3153 26.6144 47.9101 26.6144Z" fill="#0B628F"/>
<path d="M45.8252 15.76H38.7312V9.82754C38.7315 9.63477 38.6523 9.44453 38.5161 9.3085L29.4227 0.21504C29.2866 0.07881 29.0964 -0.000389187 28.9036 1.43822e-06H3.71328C2.76914 1.43822e-06 2.00098 0.768166 2.00098 1.71231V27.6473C2.00098 28.0525 2.32959 28.3812 2.73486 28.3812C3.14014 28.3812 3.46875 28.0525 3.46875 27.6473V1.71231C3.46875 1.57744 3.57852 1.46768 3.71338 1.46768H28.1698V7.87051C28.1698 9.3542 29.377 10.5613 30.8606 10.5613H37.2635V15.7599H28.5431C26.9884 15.7599 25.7235 17.0247 25.7235 18.5794V18.6942H14.0946C13.6894 18.6942 13.3607 19.0228 13.3607 19.4281C13.3607 19.8334 13.6894 20.162 14.0946 20.162H25.7235V25.1468H14.0946C13.6894 25.1468 13.3607 25.4754 13.3607 25.8807C13.3607 26.2859 13.6894 26.6145 14.0946 26.6145H25.7235V31.5993H14.0946C13.6894 31.5993 13.3607 31.9279 13.3607 32.3332C13.3607 32.7385 13.6894 33.0671 14.0946 33.0671H25.7235V38.052H14.0946C13.6894 38.052 13.3607 38.3805 13.3607 38.7858C13.3607 39.1912 13.6894 39.5197 14.0946 39.5197H25.7235V42.2947C25.7235 42.7 26.052 43.0286 26.4574 43.0286C26.8628 43.0286 27.1913 42.7 27.1913 42.2947V18.5794C27.1913 17.834 27.7978 17.2276 28.5431 17.2276H45.8253C46.5707 17.2276 47.1771 17.8341 47.1771 18.5794V24.4129C47.1771 24.8182 47.5058 25.1468 47.911 25.1468C48.3163 25.1468 48.6449 24.8183 48.6449 24.4129V18.5794C48.6447 17.0248 47.3799 15.76 45.8252 15.76ZM29.6375 7.87051V2.50557L36.2256 9.09365H30.8605C30.1861 9.09365 29.6375 8.54502 29.6375 7.87051Z" fill="#0B628F"/>
<path d="M44.7305 20.8558C44.7305 19.9116 43.9623 19.1435 43.0182 19.1435H30.8334C29.8893 19.1435 29.1211 19.9116 29.1211 20.8558V24.9993C29.1211 25.9434 29.8893 26.7116 30.8334 26.7116H43.0182C43.9623 26.7116 44.7305 25.9434 44.7305 24.9993V20.8558ZM43.2628 24.9992C43.2628 25.1341 43.153 25.2438 43.0182 25.2438H30.8334C30.6985 25.2438 30.5888 25.1341 30.5888 24.9992V20.8557C30.5888 20.7208 30.6985 20.611 30.8334 20.611H43.0182C43.153 20.611 43.2628 20.7208 43.2628 20.8557V24.9992Z" fill="#3E86BA"/>
<path d="M29.1211 32.7384C29.1211 33.6418 29.8562 34.3769 30.7596 34.3769H32.1569C33.0604 34.3769 33.7954 33.6418 33.7954 32.7384V31.341C33.7954 30.4375 33.0604 29.7025 32.1569 29.7025H30.7596C29.8562 29.7025 29.1211 30.4376 29.1211 31.341V32.7384ZM30.5888 31.3411C30.5888 31.247 30.6654 31.1703 30.7596 31.1703H32.1569C32.2511 31.1703 32.3277 31.247 32.3277 31.3411V32.7385C32.3277 32.8326 32.2511 32.9093 32.1569 32.9093H30.7596C30.6654 32.9093 30.5888 32.8326 30.5888 32.7385V31.3411Z" fill="#3E86BA"/>
<path d="M39.2632 31.3411C39.2632 30.4376 38.5281 29.7026 37.6247 29.7026H36.2273C35.3239 29.7026 34.5889 30.4377 34.5889 31.3411V32.7385C34.5889 33.6419 35.3239 34.377 36.2273 34.377H37.6247C38.5281 34.377 39.2632 33.6419 39.2632 32.7385V31.3411ZM37.7954 32.7384C37.7954 32.8325 37.7188 32.9092 37.6246 32.9092H36.2273C36.1332 32.9092 36.0565 32.8325 36.0565 32.7384V31.341C36.0565 31.2469 36.1332 31.1702 36.2273 31.1702H37.6247C37.7188 31.1702 37.7955 31.2469 37.7955 31.341V32.7384H37.7954Z" fill="#3E86BA"/>
<path d="M44.73 31.3411C44.73 30.4376 43.9949 29.7026 43.0915 29.7026H41.6941C40.7907 29.7026 40.0557 30.4377 40.0557 31.3411V32.7385C40.0557 33.6419 40.7907 34.377 41.6941 34.377H43.0915C43.9949 34.377 44.73 33.6419 44.73 32.7385V31.3411ZM43.2623 32.7384C43.2623 32.8325 43.1856 32.9092 43.0915 32.9092H41.6941C41.6 32.9092 41.5233 32.8325 41.5233 32.7384V31.341C41.5233 31.2469 41.6 31.1702 41.6941 31.1702H43.0915C43.1856 31.1702 43.2623 31.2469 43.2623 31.341V32.7384Z" fill="#3E86BA"/>
<path d="M29.1211 38.7219C29.1211 39.6253 29.8562 40.3604 30.7596 40.3604H32.1569C33.0604 40.3604 33.7954 39.6253 33.7954 38.7219V37.3245C33.7954 36.4211 33.0604 35.686 32.1569 35.686H30.7596C29.8562 35.686 29.1211 36.421 29.1211 37.3245V38.7219ZM30.5888 37.3245C30.5888 37.2304 30.6654 37.1537 30.7596 37.1537H32.1569C32.2511 37.1537 32.3277 37.2303 32.3277 37.3245V38.7219C32.3277 38.816 32.2511 38.8927 32.1569 38.8927H30.7596C30.6654 38.8927 30.5888 38.816 30.5888 38.7219V37.3245Z" fill="#3E86BA"/>
<path d="M39.2632 37.3245C39.2632 36.4211 38.5281 35.686 37.6247 35.686H36.2273C35.3239 35.686 34.5889 36.421 34.5889 37.3245V38.7219C34.5889 39.6253 35.3239 40.3604 36.2273 40.3604H37.6247C38.5281 40.3604 39.2632 39.6253 39.2632 38.7219V37.3245ZM37.7954 38.7219C37.7954 38.816 37.7188 38.8927 37.6246 38.8927H36.2273C36.1332 38.8927 36.0565 38.816 36.0565 38.7219V37.3245C36.0565 37.2304 36.1332 37.1537 36.2273 37.1537H37.6247C37.7188 37.1537 37.7955 37.2303 37.7955 37.3245V38.7219H37.7954Z" fill="#3E86BA"/>
<path d="M29.1211 44.7053C29.1211 45.6087 29.8562 46.3438 30.7596 46.3438H32.1569C33.0604 46.3438 33.7954 45.6087 33.7954 44.7053V43.3079C33.7954 42.4045 33.0604 41.6694 32.1569 41.6694H30.7596C29.8562 41.6694 29.1211 42.4044 29.1211 43.3079V44.7053ZM30.5888 43.308C30.5888 43.2139 30.6654 43.1372 30.7596 43.1372H32.1569C32.2511 43.1372 32.3277 43.2138 32.3277 43.308V44.7054C32.3277 44.7995 32.2511 44.8762 32.1569 44.8762H30.7596C30.6654 44.8762 30.5888 44.7995 30.5888 44.7054V43.308Z" fill="#3E86BA"/>
<path d="M37.6246 41.6695H36.2273C35.3239 41.6695 34.5889 42.4045 34.5889 43.308V44.7054C34.5889 45.6088 35.3239 46.3438 36.2273 46.3438H37.6247C38.5281 46.3438 39.2632 45.6088 39.2632 44.7054V43.308C39.2632 42.4045 38.5281 41.6695 37.6246 41.6695ZM37.7954 44.7053C37.7954 44.7994 37.7188 44.8761 37.6246 44.8761H36.2273C36.1332 44.8761 36.0565 44.7994 36.0565 44.7053V43.3079C36.0565 43.2138 36.1332 43.1371 36.2273 43.1371H37.6247C37.7188 43.1371 37.7955 43.2137 37.7955 43.3079V44.7053H37.7954Z" fill="#3E86BA"/>
<path d="M42.9529 35.686H41.8327C40.8528 35.686 40.0557 36.4832 40.0557 37.4631V44.5668C40.0557 45.5467 40.8528 46.3438 41.8327 46.3438H42.9529C43.9328 46.3438 44.73 45.5467 44.73 44.5668V37.4631C44.73 36.4832 43.9328 35.686 42.9529 35.686ZM43.2623 44.5668C43.2623 44.7374 43.1235 44.8762 42.9529 44.8762H41.8327C41.6621 44.8762 41.5233 44.7374 41.5233 44.5668V37.4631C41.5233 37.2925 41.6621 37.1538 41.8327 37.1538H42.9529C43.1235 37.1538 43.2623 37.2926 43.2623 37.4631V44.5668Z" fill="#3E86BA"/>
<path d="M7.73389 13.4678H10.6633C11.0686 13.4678 11.3972 13.1393 11.3972 12.7339C11.3972 12.3286 11.0687 12 10.6633 12H7.73389C7.32861 12 7 12.3286 7 12.7339C7 13.1392 7.32861 13.4678 7.73389 13.4678Z" fill="#3E86BA"/>
<path d="M13.772 13.7095H27.896C28.3013 13.7095 28.6299 13.381 28.6299 12.9756C28.6299 12.5703 28.3013 12.2417 27.896 12.2417H13.772C13.3667 12.2417 13.0381 12.5703 13.0381 12.9756C13.0382 13.3809 13.3667 13.7095 13.772 13.7095Z" fill="#0B628F"/>
<path d="M7.54053 20.1619H10.4699C10.8752 20.1619 11.2038 19.8333 11.2038 19.428C11.2038 19.0228 10.8753 18.6942 10.4699 18.6942H7.54053C7.13525 18.6942 6.80664 19.0227 6.80664 19.428C6.80664 19.8334 7.13525 20.1619 7.54053 20.1619Z" fill="#3E86BA"/>
<path d="M7.54053 26.6144H10.4699C10.8752 26.6144 11.2038 26.2858 11.2038 25.8806C11.2038 25.4753 10.8753 25.1467 10.4699 25.1467H7.54053C7.13525 25.1467 6.80664 25.4753 6.80664 25.8806C6.80664 26.2858 7.13525 26.6144 7.54053 26.6144Z" fill="#3E86BA"/>
<path d="M7.54053 33.067H10.4699C10.8752 33.067 11.2038 32.7384 11.2038 32.3331C11.2038 31.9278 10.8753 31.5992 10.4699 31.5992H7.54053C7.13525 31.5992 6.80664 31.9278 6.80664 32.3331C6.80664 32.7385 7.13525 33.067 7.54053 33.067Z" fill="#3E86BA"/>
<path d="M7.54053 39.5195H10.4699C10.8752 39.5195 11.2038 39.191 11.2038 38.7856C11.2038 38.3803 10.8753 38.0518 10.4699 38.0518H7.54053C7.13525 38.0518 6.80664 38.3803 6.80664 38.7856C6.80664 39.191 7.13525 39.5195 7.54053 39.5195Z" fill="#3E86BA"/>
</g>
<defs>
<clipPath id="clip0">
<rect width="50" height="50" fill="white"/>
</clipPath>
</defs>
</svg>
