<svg width="25" height="25" viewBox="0 0 25 25" fill="none" xmlns="http://www.w3.org/2000/svg">
<path fill-rule="evenodd" clip-rule="evenodd" d="M12.5 0C5.59644 0 0 5.59644 0 12.5C0 19.4036 5.59644 25 12.5 25C19.4036 25 25 19.4036 25 12.5C25 5.59644 19.4036 0 12.5 0ZM9.75172 5.8736C10.4628 5.84123 10.6901 5.83332 12.5006 5.83332H12.4986C14.3097 5.83332 14.5361 5.84123 15.2472 5.8736C15.9569 5.9061 16.4417 6.01846 16.8667 6.18332C17.3055 6.35346 17.6764 6.58124 18.0472 6.95208C18.4181 7.32264 18.6458 7.69459 18.8167 8.13306C18.9806 8.55696 19.0931 9.04141 19.1264 9.75114C19.1583 10.4623 19.1667 10.6895 19.1667 12.5001C19.1667 14.3106 19.1583 14.5373 19.1264 15.2484C19.0931 15.9579 18.9806 16.4425 18.8167 16.8665C18.6458 17.3048 18.4181 17.6768 18.0472 18.0473C17.6768 18.4182 17.3054 18.6465 16.8671 18.8168C16.4429 18.9816 15.9579 19.094 15.2482 19.1265C14.537 19.1589 14.3105 19.1668 12.4998 19.1668C10.6894 19.1668 10.4623 19.1589 9.75117 19.1265C9.04157 19.094 8.55699 18.9816 8.13282 18.8168C7.69462 18.6465 7.32267 18.4182 6.95225 18.0473C6.58155 17.6768 6.35377 17.3048 6.18335 16.8664C6.01863 16.4425 5.90626 15.958 5.87363 15.2483C5.8414 14.5372 5.83335 14.3106 5.83335 12.5001C5.83335 10.6895 5.84168 10.4621 5.87349 9.751C5.90543 9.04155 6.01793 8.55696 6.18321 8.13293C6.35405 7.69459 6.58183 7.32264 6.95266 6.95208C7.32322 6.58138 7.69517 6.3536 8.13365 6.18332C8.55754 6.01846 9.04199 5.9061 9.75172 5.8736Z" fill="#F5FBFA"/>
<path fill-rule="evenodd" clip-rule="evenodd" d="M11.9024 7.03475C12.0186 7.03457 12.1435 7.03462 12.2783 7.03468L12.5005 7.03475C14.2805 7.03475 14.4915 7.04114 15.1944 7.07308C15.8444 7.1028 16.1972 7.21142 16.4322 7.30267C16.7433 7.4235 16.9651 7.56795 17.1983 7.80128C17.4317 8.03462 17.5761 8.25684 17.6972 8.56796C17.7885 8.80268 17.8972 9.15546 17.9268 9.80547C17.9587 10.5083 17.9657 10.7194 17.9657 12.4986C17.9657 14.2777 17.9587 14.4889 17.9268 15.1916C17.8971 15.8416 17.7885 16.1944 17.6972 16.4292C17.5764 16.7403 17.4317 16.9618 17.1983 17.195C16.965 17.4283 16.7435 17.5728 16.4322 17.6936C16.1975 17.7853 15.8444 17.8936 15.1944 17.9233C14.4916 17.9553 14.2805 17.9622 12.5005 17.9622C10.7203 17.9622 10.5094 17.9553 9.80657 17.9233C9.15657 17.8933 8.80379 17.7847 8.56864 17.6935C8.25753 17.5726 8.03531 17.4282 7.80197 17.1949C7.56863 16.9615 7.42419 16.7398 7.30308 16.4286C7.21182 16.1939 7.10307 15.8411 7.07349 15.1911C7.04155 14.4883 7.03516 14.2772 7.03516 12.4969C7.03516 10.7166 7.04155 10.5066 7.07349 9.8038C7.10321 9.1538 7.21182 8.80102 7.30308 8.56601C7.42391 8.2549 7.56863 8.03267 7.80197 7.79934C8.03531 7.566 8.25753 7.42156 8.56864 7.30044C8.80365 7.20878 9.15657 7.10044 9.80657 7.07058C10.4216 7.0428 10.6599 7.03447 11.9024 7.03308V7.03475ZM16.0592 8.14172C15.6175 8.14172 15.2592 8.49964 15.2592 8.94145C15.2592 9.38312 15.6175 9.74146 16.0592 9.74146C16.5008 9.74146 16.8592 9.38312 16.8592 8.94145C16.8592 8.49978 16.5008 8.14144 16.0592 8.14144V8.14172ZM9.07686 12.5C9.07686 10.6094 10.6097 9.07647 12.5004 9.0764C14.3911 9.0764 15.9236 10.6093 15.9236 12.5C15.9236 14.3908 14.3912 15.923 12.5005 15.923C10.6098 15.923 9.07686 14.3908 9.07686 12.5Z" fill="#F5FBFA"/>
<path fill-rule="evenodd" clip-rule="evenodd" d="M12.5006 10.2779C13.7278 10.2779 14.7228 11.2727 14.7228 12.5001C14.7228 13.7273 13.7278 14.7224 12.5006 14.7224C11.2732 14.7224 10.2783 13.7273 10.2783 12.5001C10.2783 11.2727 11.2732 10.2779 12.5006 10.2779V10.2779Z" fill="#F5FBFA"/>
</svg>
