<svg width="48" height="42" viewBox="0 0 48 42" fill="none" xmlns="http://www.w3.org/2000/svg">
<path d="M46.2422 37.0554H45.082V16.3534C45.082 15.9641 44.7711 15.6485 44.3873 15.6485C44.0036 15.6485 43.6926 15.9641 43.6926 16.3534V37.0554H37.8958C37.5121 37.0554 37.2011 37.371 37.2011 37.7603C37.2011 38.1495 37.5121 38.4651 37.8958 38.4651H45.956V38.7629C45.956 39.7705 45.1479 40.5903 44.1548 40.5903H3.19064C2.19746 40.5903 1.38945 39.7705 1.38945 38.7629V38.4651H34.9352C35.3189 38.4651 35.6299 38.1495 35.6299 37.7603C35.6299 37.371 35.3189 37.0554 34.9352 37.0554H3.65295V9.21237C3.65295 8.69961 4.06404 8.28243 4.56953 8.28243H27.3322C27.716 8.28243 28.0269 7.96685 28.0269 7.57758C28.0269 7.18831 27.716 6.87273 27.3322 6.87273H4.56943C3.2979 6.87273 2.26341 7.9223 2.26341 9.21237V37.0554H1.10322C0.494922 37.0554 0 37.5576 0 38.1747V38.7629C0 40.5478 1.43132 42 3.19064 42H44.1548C45.9141 42 47.3455 40.5478 47.3455 38.7629V38.1747C47.3455 37.5576 46.8505 37.0554 46.2422 37.0554Z" fill="#FFE2AA"/>
<path d="M27.5621 11.296C27.9446 11.296 28.2545 10.9896 28.2545 10.6117C28.2545 10.2337 27.9446 9.92727 27.5621 9.92727H6.0379C5.65539 9.92727 5.34545 10.2337 5.34545 10.6117V34.4429C5.34545 34.8209 5.65539 35.1273 6.0379 35.1273H12.036C12.4185 35.1273 12.7285 34.8209 12.7285 34.4429C12.7285 34.0649 12.4185 33.7585 12.036 33.7585H6.73034V11.296H27.5621Z" fill="#FFE2AA"/>
<path d="M28.0161 22.494V17.9817C28.0161 16.743 26.9915 15.7353 25.7319 15.7353H21.3784L20.099 15.3219C19.7934 15.2232 19.4558 15.275 19.1953 15.4604C18.935 15.6458 18.7795 15.9453 18.7795 16.2614V22.4939C18.7795 24.1384 19.6728 25.5815 21.0072 26.3787V27.1319L17.9592 29.6212C17.3007 30.1591 16.923 30.9503 16.923 31.7922V33.7622H14.4395C14.0561 33.7622 13.7455 34.0678 13.7455 34.4447C13.7455 34.8217 14.0561 35.1273 14.4395 35.1273H41.306C41.6893 35.1273 42 34.8217 42 34.4447V16.5105C42 16.1336 41.6893 15.828 41.306 15.828C40.9226 15.828 40.6119 16.1336 40.6119 16.5105V33.7622H29.8529V31.7923C29.8529 30.9505 29.4752 30.1591 28.8167 29.6213L25.7687 27.132V26.3899C27.1138 25.5952 28.0161 24.1464 28.0161 22.494ZM21.0508 17.0663C21.1207 17.089 21.1939 17.1004 21.2674 17.1004H25.732C26.2261 17.1004 26.6281 17.4958 26.6281 17.9817V19.3552H20.1677V16.781L21.0508 17.0663ZM20.1677 20.7204H26.6281V22.494C26.6281 24.2457 25.179 25.6707 23.3979 25.6707C21.6169 25.6707 20.1678 24.2456 20.1678 22.494L20.1677 20.7204ZM28.4648 31.7923V33.7622H18.3112V31.7923C18.3112 31.3576 18.5062 30.9491 18.8462 30.6715L21.4533 28.5422C21.8858 29.1346 22.5916 29.5215 23.3879 29.5215C24.1843 29.5215 24.8901 29.1345 25.3226 28.5422L27.9297 30.6715C28.2697 30.9492 28.4648 31.3576 28.4648 31.7923ZM24.3806 27.1802C24.3806 27.7185 23.9353 28.1563 23.3879 28.1563C22.8406 28.1563 22.3953 27.7184 22.3953 27.1802V26.9268C22.7183 26.9974 23.0534 27.0359 23.3978 27.0359C23.7351 27.0359 24.0637 26.9992 24.3805 26.9313L24.3806 27.1802Z" fill="#FFE2AA"/>
<path d="M43.4158 0H32.9478C30.781 0 29.0182 1.69878 29.0182 3.7868V14.8582C29.0182 15.3559 29.3311 15.7889 29.8153 15.9616C29.9564 16.012 30.1014 16.0364 30.2444 16.0364C30.5921 16.0364 30.9277 15.8919 31.1659 15.6242L32.4137 14.2224H36.6686C37.0609 14.2224 37.3787 13.916 37.3787 13.5381C37.3787 13.1602 37.0609 12.8538 36.6686 12.8538H32.0874C31.8802 12.8538 31.6832 12.941 31.5484 13.0926L30.4385 14.3393V3.7868C30.4385 2.45345 31.5642 1.36866 32.9478 1.36866H43.4158C44.7994 1.36866 45.9252 2.45345 45.9252 3.7868V10.4357C45.9252 11.7691 44.7994 12.8539 43.4158 12.8539H39.6951C39.3028 12.8539 38.9849 13.1603 38.9849 13.5382C38.9849 13.9161 39.3028 14.2225 39.6951 14.2225H43.4158C45.5826 14.2225 47.3455 12.5238 47.3455 10.4357V3.7868C47.3455 1.69878 45.5826 0 43.4158 0Z" fill="#FFE2AA"/>
</svg>
