<svg width="50" height="50" viewBox="0 0 50 50" fill="none" xmlns="http://www.w3.org/2000/svg">
<path d="M48.816 20.2008L48.8031 20.1875C48.798 20.1828 48.7941 20.1777 48.7891 20.173C48.784 20.1684 48.7754 20.1656 48.7691 20.1602C48.7425 20.1351 48.7139 20.1123 48.6836 20.0918L41.3086 15.5109V3.41602C41.3074 2.82088 41.0703 2.25049 40.6492 1.82985C40.2282 1.4092 39.6576 1.1726 39.0625 1.17188H10.9375C10.342 1.1726 9.77114 1.40947 9.35007 1.83054C8.929 2.25161 8.69213 2.82249 8.69141 3.41797V15.5113L1.31641 20.0918C1.30195 20.0996 1.27227 20.1258 1.19531 20.1887L1.18516 20.1992C0.812066 20.5547 0.514739 20.9819 0.311065 21.4552C0.107391 21.9286 0.00158046 22.4382 0 22.9535L0 45.0215C0.00113728 46.0312 0.402764 46.9993 1.11677 47.7133C1.83077 48.4273 2.79884 48.8289 3.80859 48.8301H46.1914C46.6995 48.8315 47.2026 48.7303 47.6707 48.5327C48.1388 48.3351 48.5622 48.0451 48.9156 47.6801C49.611 46.971 49.9997 46.017 49.998 45.0238V22.9535C49.9967 22.4387 49.8914 21.9295 49.6882 21.4564C49.4851 20.9833 49.1884 20.5562 48.816 20.2008ZM48.6328 22.9535V45.0215C48.6335 45.4086 48.5413 45.7902 48.3641 46.1344L35.5133 32.4531L48.2453 21.6355C48.4997 22.0279 48.6343 22.4859 48.6328 22.9535ZM47.1656 20.7586L41.3086 25.7352V17.1207L47.1656 20.7586ZM10.0586 3.41602C10.0593 3.18332 10.1522 2.96039 10.3169 2.79603C10.4817 2.63166 10.7048 2.53927 10.9375 2.53906H39.0625C39.2955 2.53937 39.5189 2.63207 39.6836 2.79683C39.8484 2.96159 39.9411 3.18496 39.9414 3.41797V26.8984L34.5762 31.4551L27.2063 23.6102C26.9228 23.3094 26.5809 23.0696 26.2015 22.9056C25.8222 22.7416 25.4133 22.6567 25 22.6562C24.5867 22.6568 24.1778 22.7417 23.7984 22.9058C23.4191 23.0699 23.0772 23.3097 22.7938 23.6105L15.4242 31.4551L10.0586 26.8965V3.41602ZM8.93242 27.7344L12.5543 30.8117L14.4867 32.4523L1.63555 46.1328C1.45862 45.7886 1.3666 45.407 1.36719 45.0199V22.9535C1.36574 22.4859 1.50038 22.028 1.75469 21.6355L4.62969 24.0781L8.93242 27.7344ZM8.69141 25.7359L2.83398 20.7586L8.69336 17.1207L8.69141 25.7359ZM3.80859 47.4629C3.37556 47.4642 2.95015 47.3489 2.57695 47.1293L7.55547 41.8293L23.7891 24.5461C24.1163 24.2312 24.5465 24.0456 25 24.0234C25.227 24.0224 25.4518 24.0684 25.6602 24.1585C25.8686 24.2486 26.0561 24.3808 26.2109 24.5469L45.6035 45.1922L47.4238 47.1301C47.0506 47.3497 46.6252 47.465 46.1922 47.4637L3.80859 47.4629Z" fill="white"/>
<path d="M23.8031 18.5781L24.5696 19.1996C24.6915 19.2984 24.8437 19.3523 25.0006 19.3523C25.1575 19.3523 25.3097 19.2984 25.4317 19.1996L26.1969 18.5781C28.4921 16.7176 30.3771 14.4019 31.7332 11.777C32.1942 10.8881 32.2975 9.85645 32.0219 8.8938C31.7463 7.93115 31.1128 7.11048 30.2513 6.60018C29.3897 6.08988 28.3656 5.92865 27.3889 6.14959C26.4123 6.37052 25.5572 6.95686 24.9992 7.78829C24.4412 6.95686 23.5862 6.37052 22.6096 6.14959C21.6329 5.92865 20.6088 6.08988 19.7472 6.60018C18.8857 7.11048 18.2521 7.93115 17.9766 8.8938C17.701 9.85645 17.8043 10.8881 18.2653 11.777C19.6219 14.402 21.5074 16.7177 23.8031 18.5781ZM19.3918 8.98438C19.5365 8.63925 19.7555 8.33025 20.0332 8.07936C20.3109 7.82847 20.6405 7.64187 20.9985 7.53282C21.2374 7.45946 21.486 7.42207 21.736 7.42188C22.2209 7.4221 22.6959 7.55951 23.1061 7.81823C23.5162 8.07695 23.8448 8.44643 24.0539 8.88399L24.3809 9.57735C24.4363 9.6945 24.5238 9.79351 24.6333 9.86284C24.7427 9.93218 24.8697 9.96899 24.9992 9.96899C25.1288 9.96899 25.2557 9.93218 25.3652 9.86284C25.4747 9.79351 25.5622 9.6945 25.6176 9.57735L25.9449 8.88399C26.0906 8.57855 26.2956 8.30512 26.5479 8.07961C26.8002 7.8541 27.0949 7.68102 27.4147 7.57042C27.7345 7.45981 28.0731 7.41391 28.4109 7.43537C28.7486 7.45682 29.0787 7.54522 29.3819 7.69541C29.6852 7.8456 29.9556 8.05459 30.1773 8.31021C30.3991 8.56584 30.5678 8.86301 30.6736 9.18444C30.7795 9.50586 30.8204 9.84513 30.7939 10.1825C30.7675 10.5199 30.6742 10.8486 30.5196 11.1496C29.2487 13.6072 27.4829 15.775 25.3332 17.5168L24.9992 17.7883L24.6653 17.5168C22.5155 15.7752 20.7496 13.6073 19.4789 11.1496C19.3062 10.8173 19.2088 10.451 19.1938 10.0767C19.1787 9.70248 19.2463 9.32951 19.3918 8.98438Z" fill="#FA9292"/>
</svg>
