<svg width="50" height="50" viewBox="0 0 50 50" fill="none" xmlns="http://www.w3.org/2000/svg">
<g clip-path="url(#clip0)">
<path d="M45.5479 44.0962V41.0257C47.2071 40.6852 48.4588 39.2136 48.4588 37.4552C48.4588 35.4456 46.8239 33.8105 44.8141 33.8105C42.8043 33.8105 41.1694 35.4456 41.1694 37.4552C41.1694 39.2137 42.421 40.6852 44.0802 41.0257V44.0962H39.7004V4.43597H19.1511V10.7047L10.3474 17.2614V44.0962H5.88718V41.0257C7.54638 40.6852 8.79804 39.2136 8.79804 37.4552C8.79804 35.4456 7.16301 33.8105 5.15333 33.8105C3.14364 33.8105 1.50861 35.4456 1.50861 37.4552C1.50861 39.2137 2.76027 40.6852 4.41947 41.0257V44.0962H0V45.564H50V44.0962H45.5479ZM42.6372 37.4552C42.6372 36.2548 43.6137 35.2782 44.8142 35.2782C46.0147 35.2782 46.9912 36.2548 46.9912 37.4552C46.9912 38.6557 46.0147 39.6323 44.8142 39.6323C43.6137 39.6323 42.6372 38.6557 42.6372 37.4552ZM2.97632 37.4552C2.97632 36.2548 3.95284 35.2782 5.15333 35.2782C6.35382 35.2782 7.33033 36.2548 7.33033 37.4552C7.33033 38.6557 6.35372 39.6323 5.15333 39.6323C3.95294 39.6323 2.97632 38.6557 2.97632 37.4552ZM11.8151 19.1465H17.6125V17.6788H12.2441L19.1511 12.5348V38.1761H20.6188V11.0732V9.61151V5.90368H38.2327V10.3393H22.0157V11.807H38.2327V44.0962H36.6916V36.7572H22.0619V44.0962H20.6188V42.5792H19.1511V44.0962H11.8151V19.1465ZM35.2239 44.0962H23.5296V38.2249H35.2239V44.0962Z" fill="#093851"/>
<path d="M19.1504 39.6438H20.6181V41.1115H19.1504V39.6438Z" fill="black"/>
<path d="M13.2578 20.6145V25.0174H17.6606V20.6145H13.2578ZM16.1929 23.5497H14.7255V22.0822H16.1929V23.5497Z" fill="#3E86BA"/>
<path d="M13.2578 30.8883H17.6606V26.4855H13.2578V30.8883ZM14.7255 27.9532H16.1929V29.4206H14.7255V27.9532Z" fill="#3E86BA"/>
<path d="M13.2578 36.7591H17.6606V32.3564H13.2578V36.7591ZM14.7255 33.8241H16.1929V35.2914H14.7255V33.8241Z" fill="#3E86BA"/>
<path d="M13.2578 42.6301H17.6606V38.2273H13.2578V42.6301ZM14.7255 39.695H16.1929V41.1624H14.7255V39.695Z" fill="#3E86BA"/>
<path d="M24.9516 16.146H23.5302V14.7435H35.2244V16.146H26.4193V17.6137H36.6921V13.2758H22.0625V17.6137H24.9516V16.146Z" fill="#3E86BA"/>
<path d="M36.6921 19.1802H33.7579V20.6479H35.2244V22.0503H23.5302V20.6479H32.3617V19.1802H22.0625V23.518H36.6921V19.1802Z" fill="#3E86BA"/>
<path d="M36.6921 24.9868H26.4193V26.4545H35.2244V27.9548H23.5302V26.4545H24.9516V24.9868H22.0625V29.4225H36.6921V24.9868Z" fill="#3E86BA"/>
<path d="M36.6921 30.8912H33.7579V32.3589H35.2244V33.8592H23.5302V32.3589H32.2902V30.8912H22.0625V35.3269H36.6921V30.8912Z" fill="#3E86BA"/>
<path d="M25.7568 7.33853H27.2245V8.80624H25.7568V7.33853Z" fill="#3E86BA"/>
<path d="M28.6924 7.33853H30.1601V8.80624H28.6924V7.33853Z" fill="#3E86BA"/>
<path d="M31.6279 7.33853H33.0956V8.80624H31.6279V7.33853Z" fill="#3E86BA"/>
</g>
<defs>
<clipPath id="clip0">
<rect width="50" height="50" fill="white"/>
</clipPath>
</defs>
</svg>
