<svg width="50" height="50" viewBox="0 0 50 50" fill="none" xmlns="http://www.w3.org/2000/svg">
<g clip-path="url(#clip0)">
<path d="M33.6145 27.0269L29.3584 25.1353C29.0578 25.0017 28.8636 24.7028 28.8636 24.3739V23.2051C30.2933 22.066 31.2122 20.3118 31.2122 18.346V16.7007C31.6832 16.4405 31.9951 15.9376 31.9951 15.3743V15.2146C31.9951 11.7892 29.2082 9.00238 25.7828 9.00238H24.2172C20.7918 9.00238 18.005 11.7892 18.005 15.2146V16.6633C18.005 17.1585 18.2181 17.607 18.5895 17.894C18.6525 17.9426 18.7188 17.9854 18.7878 18.0224V18.3459C18.7878 20.3117 19.7067 22.0659 21.1362 23.2049V24.3738C21.1362 24.7027 20.942 25.0016 20.6414 25.1352L16.3854 27.0268C14.9915 27.6463 14.0908 29.0322 14.0908 30.5575V40.2649C14.0908 40.6694 14.4188 40.9974 14.8232 40.9974C15.2277 40.9974 15.5557 40.6694 15.5557 40.2649V30.5576C15.5557 30.4727 15.5617 30.3889 15.5705 30.3056L17.5316 32.2668C17.8368 32.5721 18.005 32.9778 18.005 33.4096V40.265C18.005 40.6695 18.3329 40.9975 18.7374 40.9975C19.1419 40.9975 19.4698 40.6695 19.4698 40.265V33.4096C19.4698 32.5866 19.1494 31.813 18.5675 31.231L16.2295 28.8929C16.4401 28.6744 16.6929 28.4932 16.9804 28.3654L21.1647 26.5057L24.2677 29.6088V40.2649C24.2677 40.6694 24.5956 40.9974 25.0001 40.9974C25.4046 40.9974 25.7325 40.6694 25.7325 40.2649V29.6089L28.8356 26.5058L33.0198 28.3654C33.3073 28.4932 33.56 28.6744 33.7707 28.893L31.4327 31.231C30.8507 31.813 30.5303 32.5866 30.5303 33.4096V40.265C30.5303 40.6695 30.8582 40.9975 31.2627 40.9975C31.6672 40.9975 31.9952 40.6695 31.9952 40.265V33.4096C31.9952 32.9779 32.1632 32.5721 32.4685 32.2668L34.4295 30.3057C34.4383 30.3889 34.4444 30.4726 34.4444 30.5575V40.2649C34.4444 40.6694 34.7723 40.9974 35.1768 40.9974C35.5813 40.9974 35.9092 40.6694 35.9092 40.2649V30.5576C35.9089 29.0323 35.0084 27.6464 33.6145 27.0269ZM24.9998 28.2697L22.2771 25.5468C22.4841 25.1985 22.601 24.7955 22.601 24.3739V24.0758C23.3396 24.3862 24.15 24.5582 24.9999 24.5582C25.8498 24.5582 26.6602 24.3863 27.3987 24.0759V24.3739C27.3987 24.7956 27.5156 25.1985 27.7227 25.5469L24.9998 28.2697ZM24.9999 23.0932C22.3822 23.0933 20.2526 20.9636 20.2526 18.346V18.0166C20.7096 17.8354 21.1557 17.5471 21.5827 17.1531C21.8799 16.8788 21.8986 16.4154 21.6241 16.1181C21.3498 15.8209 20.8865 15.8023 20.5892 16.0766C20.2229 16.4148 19.8568 16.6333 19.5016 16.726C19.493 16.7283 19.4866 16.7293 19.4821 16.7296C19.4769 16.7194 19.4697 16.6979 19.4697 16.6634V15.2147C19.4697 12.597 21.5994 10.4673 24.2171 10.4673H25.7827C28.4005 10.4673 30.5301 12.597 30.5301 15.2147V15.3744C30.5301 15.3981 30.5159 15.4187 30.4971 15.4224C26.1113 16.2886 23.9115 14.6561 23.1693 13.9139C22.8832 13.6279 22.4195 13.6279 22.1335 13.9139C21.8475 14.1999 21.8475 14.6637 22.1335 14.9497C24.4079 17.2241 27.7268 17.2651 29.7473 17.0223V18.3459C29.7473 20.9635 27.6176 23.0932 24.9999 23.0932Z" fill="#0B628F"/>
<path d="M13.2073 23.0431V21.4772C13.2073 19.5664 12.2143 17.8844 10.7181 16.9164C10.8105 16.62 10.8587 16.3096 10.8587 15.9974C10.8587 14.2985 9.47668 12.9165 7.77785 12.9165C6.07902 12.9165 4.69698 14.2986 4.69698 15.9974C4.69698 16.3135 4.74483 16.6209 4.83741 16.9166C3.34132 17.8845 2.34844 19.5665 2.34844 21.4772V23.0428C2.34844 24.8931 3.2794 26.5292 4.69688 27.5099V29.1205C4.69688 29.4382 4.52042 29.7238 4.23634 29.8659L1.70303 31.1325C0.65254 31.6578 0 32.7137 0 33.8882V40.2651C0 40.6696 0.32793 40.9975 0.732423 40.9975C1.13692 40.9975 1.46485 40.6696 1.46485 40.2651V34.205L2.65801 35.3982C2.96319 35.7035 3.13135 36.1092 3.13135 36.541V40.2651C3.13135 40.6696 3.45928 40.9975 3.86378 40.9975C4.26827 40.9975 4.5962 40.6696 4.5962 40.2651V36.541C4.5962 35.718 4.27569 34.9444 3.69385 34.3624L2.03321 32.7018C2.0252 32.6938 2.01661 32.6869 2.0084 32.6793C2.1126 32.5873 2.2295 32.5073 2.35821 32.4428L4.89151 31.1762C5.0213 31.1113 5.1421 31.0346 5.2547 30.9494L7.04542 32.7403V40.2652C7.04542 40.6697 7.37335 40.9976 7.77785 40.9976C8.18234 40.9976 8.51027 40.6697 8.51027 40.2652V32.7402L10.3011 30.9494C10.4138 31.0346 10.5345 31.1113 10.6643 31.1761L11.3628 31.5254C11.468 31.5781 11.5797 31.603 11.6899 31.603C11.9585 31.603 12.2172 31.4545 12.3455 31.198C12.5265 30.8362 12.3798 30.3962 12.018 30.2154L11.3195 29.866C11.0353 29.724 10.8588 29.4384 10.8588 29.1208V27.5102C12.2763 26.5295 13.2073 24.8933 13.2073 23.0431ZM7.77785 14.3814C8.66896 14.3814 9.39387 15.1064 9.39387 15.9974C9.39387 16.0955 9.38508 16.1917 9.36828 16.2859C8.86496 16.1315 8.33107 16.0478 7.77785 16.0478C7.2254 16.0478 6.6922 16.1312 6.18966 16.2853C6.17277 16.191 6.16183 16.0953 6.16183 15.9974C6.16183 15.1063 6.88673 14.3814 7.77785 14.3814ZM7.77785 17.5127C9.96389 17.5127 11.7424 19.2912 11.7424 21.4773V21.7427C8.69308 22.6763 6.87579 20.3567 6.79816 20.255C6.67072 20.0852 6.47589 19.9789 6.26417 19.9639C6.05245 19.949 5.84444 20.0265 5.69435 20.1766C4.99522 20.8757 4.31046 21.2129 3.81593 21.3757C3.87012 19.2364 5.62589 17.5127 7.77785 17.5127ZM7.77785 31.4009L6.08536 29.7084C6.13478 29.5196 6.16183 29.3227 6.16183 29.1206V28.2266C6.67247 28.3862 7.21535 28.4722 7.77785 28.4722C8.34035 28.4722 8.88322 28.3862 9.39387 28.2266V29.1206C9.39387 29.3227 9.42092 29.5197 9.47033 29.7084L7.77785 31.4009ZM7.77785 27.0073C5.59181 27.0073 3.81329 25.2288 3.81329 23.0428V22.891C4.39737 22.7569 5.26339 22.445 6.16681 21.7185C6.48644 22.02 6.94327 22.39 7.52501 22.7072C8.2131 23.0825 9.1634 23.4297 10.3241 23.4297C10.7653 23.4297 11.2372 23.3784 11.7362 23.2607C11.6226 25.3458 9.89074 27.0073 7.77785 27.0073Z" fill="#3E86BA"/>
<path d="M48.2974 29.567L44.1985 27.5175C43.9144 27.3754 43.7379 27.0898 43.7379 26.7722V25.7342C44.6974 24.8824 45.3035 23.641 45.3035 22.2601V21.4264C45.3204 21.4264 45.337 21.4269 45.3539 21.4269C45.7584 21.4269 46.0863 21.099 46.0863 20.6945V19.1289C46.0863 16.5667 44.0019 14.4823 41.4398 14.4823H39.8741C37.312 14.4823 35.2275 16.5667 35.2275 19.1289V20.6945C35.2275 21.099 35.5555 21.4269 35.96 21.4269C35.966 21.4269 35.9836 21.4267 36.0104 21.4256V22.2601C36.0104 23.6411 36.6166 24.8825 37.5761 25.7343V26.7723C37.5761 27.09 37.3996 27.3756 37.1154 27.5175C36.7536 27.6984 36.6069 28.1384 36.7879 28.5002C36.9162 28.7568 37.1749 28.9052 37.4436 28.9052C37.5536 28.9052 37.6653 28.8803 37.7705 28.8278C37.9003 28.7629 38.0211 28.6862 38.1337 28.601L39.9245 30.3919V40.2652C39.9245 40.6697 40.2524 40.9977 40.6569 40.9977C41.0614 40.9977 41.3894 40.6697 41.3894 40.2652V30.3917L43.1801 28.6009C43.2928 28.6861 43.4135 28.7628 43.5433 28.8276L47.5096 30.8108L46.3066 32.0138C45.7247 32.5958 45.4042 33.3694 45.4042 34.1924V40.265C45.4042 40.6695 45.7321 40.9975 46.1366 40.9975C46.5411 40.9975 46.8691 40.6695 46.8691 40.265V34.1924C46.8691 33.7607 47.0371 33.3549 47.3424 33.0496L48.482 31.91C48.5165 32.0426 48.5355 32.1807 48.5355 32.3225V40.265C48.5355 40.6695 48.8634 40.9975 49.2679 40.9975C49.6724 40.9975 50.0003 40.6695 50.0003 40.265V32.3225C50.0004 31.1481 49.3479 30.0923 48.2974 29.567ZM36.6923 19.8114V19.1288H36.6924C36.6924 17.3744 38.1197 15.947 39.8741 15.947H41.4398C43.1942 15.947 44.6215 17.3744 44.6215 19.1288V19.9423C41.4376 19.7706 39.5162 18.5316 39.4976 18.5194C39.3736 18.4368 39.2322 18.3963 39.0915 18.3963C38.9024 18.3963 38.7149 18.4694 38.5733 18.6109C37.8726 19.3117 37.1859 19.649 36.6923 19.8114ZM40.6569 29.0525L38.9645 27.36C39.0139 27.1712 39.0409 26.9743 39.0409 26.7722V26.6163C39.5444 26.8037 40.0889 26.9066 40.6569 26.9066C41.225 26.9066 41.7694 26.8037 42.273 26.6163V26.7722C42.273 26.9743 42.2999 27.1712 42.3494 27.36L40.6569 29.0525ZM40.6569 25.4419C38.9025 25.4419 37.4752 24.0146 37.4752 22.2601V21.0794C37.9882 20.8744 38.5858 20.5485 39.194 20.0303C39.9632 20.4305 41.5724 21.1222 43.8387 21.3507V22.2601C43.8387 24.0145 42.4113 25.4419 40.6569 25.4419Z" fill="#3E86BA"/>
</g>
<defs>
<clipPath id="clip0">
<rect width="50" height="50" fill="white"/>
</clipPath>
</defs>
</svg>
