<svg width="21" height="21" viewBox="0 0 21 21" fill="none" xmlns="http://www.w3.org/2000/svg">
<path fill-rule="evenodd" clip-rule="evenodd" d="M14 7C14 8.93375 12.4338 10.5 10.5 10.5C8.56625 10.5 7 8.93375 7 7C7 5.06625 8.56625 3.5 10.5 3.5C12.4338 3.5 14 5.06625 14 7ZM12.25 7C12.25 6.0375 11.4625 5.25 10.5 5.25C9.5375 5.25 8.75 6.0375 8.75 7C8.75 7.9625 9.5375 8.75 10.5 8.75C11.4625 8.75 12.25 7.9625 12.25 7ZM10.5 11.375C8.16375 11.375 3.5 12.5475 3.5 14.875V16.625C3.5 17.1062 3.89375 17.5 4.375 17.5H16.625C17.1062 17.5 17.5 17.1062 17.5 16.625V14.875C17.5 12.5475 12.8363 11.375 10.5 11.375ZM5.25 14.8837V15.75H15.75V14.875C15.575 14.2537 12.8625 13.125 10.5 13.125C8.1375 13.125 5.425 14.2537 5.25 14.8837Z" fill="#FFE2AA"/>
</svg>
