<svg width="50" height="50" viewBox="0 0 50 50" fill="none" xmlns="http://www.w3.org/2000/svg">
<path d="M44.5312 26.9766V11.6562C47.1773 11.275 49.2188 8.99922 49.2188 6.25C49.2188 3.23516 46.7656 0.78125 43.75 0.78125C40.7344 0.78125 38.2812 3.23516 38.2812 6.25H0.78125V37.5H24.2586C24.6648 44.0281 30.0906 49.2188 36.7188 49.2188C43.6109 49.2188 49.2188 43.6109 49.2188 36.7188C49.2188 32.782 47.3852 29.2695 44.5312 26.9766ZM43.75 2.34375C45.9039 2.34375 47.6562 4.09609 47.6562 6.25C47.6562 8.40391 45.9039 10.1562 43.75 10.1562C41.5961 10.1562 39.8438 8.40391 39.8438 6.25C39.8438 4.09609 41.5961 2.34375 43.75 2.34375ZM2.34375 7.8125H38.5117C38.6984 8.43594 38.9953 9.01016 39.3766 9.51953L34.5984 14.2977C34.2922 14.1508 33.9547 14.0625 33.5938 14.0625C33.2328 14.0625 32.8953 14.1508 32.5898 14.2977L31.0156 12.7234C31.1617 12.4172 31.25 12.0797 31.25 11.7188C31.25 10.4266 30.1984 9.375 28.9062 9.375C27.6141 9.375 26.5625 10.4266 26.5625 11.7188C26.5625 12.0797 26.6508 12.4172 26.7977 12.7227L22.8797 16.6406C22.5734 16.4945 22.2359 16.4062 21.875 16.4062C20.5828 16.4062 19.5312 17.4578 19.5312 18.75C19.5312 20.0422 20.5828 21.0938 21.875 21.0938C23.1672 21.0938 24.2188 20.0422 24.2188 18.75C24.2188 18.3891 24.1305 18.0516 23.9836 17.7461L27.9016 13.8281C28.2078 13.9742 28.5453 14.0625 28.9062 14.0625C29.2672 14.0625 29.6047 13.9742 29.9102 13.8273L31.4844 15.4016C31.3383 15.7078 31.25 16.0453 31.25 16.4062C31.25 17.6984 32.3016 18.75 33.5938 18.75C34.8859 18.75 35.9375 17.6984 35.9375 16.4062C35.9375 16.0453 35.8492 15.7078 35.7023 15.4023L40.4813 10.6242C41.1961 11.1602 42.0445 11.5234 42.9688 11.657V25.9109C41.1273 24.8414 38.9969 24.2188 36.7188 24.2188C32.9844 24.2188 29.6359 25.8734 27.3438 28.4789V25H22.6562V34.375H24.4469C24.35 34.8852 24.2914 35.4078 24.2586 35.9375H2.34375V7.8125ZM33.5938 15.625C34.0242 15.625 34.375 15.975 34.375 16.4062C34.375 16.8375 34.0242 17.1875 33.5938 17.1875C33.1633 17.1875 32.8125 16.8375 32.8125 16.4062C32.8125 15.975 33.1633 15.625 33.5938 15.625ZM28.125 11.7188C28.125 11.2875 28.4758 10.9375 28.9062 10.9375C29.3367 10.9375 29.6875 11.2875 29.6875 11.7188C29.6875 12.15 29.3367 12.5 28.9062 12.5C28.4758 12.5 28.125 12.15 28.125 11.7188ZM22.6562 18.75C22.6562 19.1812 22.3055 19.5312 21.875 19.5312C21.4445 19.5312 21.0938 19.1812 21.0938 18.75C21.0938 18.3188 21.4445 17.9688 21.875 17.9688C22.3055 17.9688 22.6562 18.3188 22.6562 18.75ZM36.7188 42.9688C33.2727 42.9688 30.4688 40.1648 30.4688 36.7188C30.4688 33.2727 33.2727 30.4688 36.7188 30.4688C40.1648 30.4688 42.9688 33.2727 42.9688 36.7188C42.9688 40.1648 40.1648 42.9688 36.7188 42.9688ZM25.7812 30.6805C25.407 31.3555 25.0977 32.0688 24.8523 32.8125H24.2188V26.5625H25.7812V30.6805ZM35.9375 25.8211V28.9461C31.9953 29.3398 28.9062 32.675 28.9062 36.7188C28.9062 37.8617 29.1594 38.9453 29.6023 39.925L26.8922 41.4898C26.1875 40.0461 25.7812 38.4305 25.7812 36.7188C25.7812 30.9516 30.2711 26.2242 35.9375 25.8211ZM36.7188 47.6562C32.9578 47.6562 29.6344 45.7477 27.6656 42.8477L30.3867 41.2766C31.807 43.2438 34.1125 44.5312 36.7188 44.5312C39.325 44.5312 41.6305 43.2438 43.0508 41.2766L45.7719 42.8477C43.8031 45.7477 40.4797 47.6562 36.7188 47.6562ZM46.5453 41.4898L43.8352 39.925C44.2781 38.9453 44.5312 37.8617 44.5312 36.7188C44.5312 32.675 41.4422 29.3391 37.5 28.9461V25.8211C43.1664 26.2242 47.6562 30.9516 47.6562 36.7188C47.6562 38.4305 47.25 40.0461 46.5453 41.4898Z" fill="#0B628F"/>
<path d="M36.7188 32.0312C34.1336 32.0312 32.0312 34.1336 32.0312 36.7188C32.0312 39.3039 34.1336 41.4062 36.7188 41.4062C39.3039 41.4062 41.4062 39.3039 41.4062 36.7188C41.4062 34.1336 39.3039 32.0312 36.7188 32.0312ZM36.7188 39.8438C34.9953 39.8438 33.5938 38.4422 33.5938 36.7188C33.5938 34.9953 34.9953 33.5938 36.7188 33.5938C38.4422 33.5938 39.8438 34.9953 39.8438 36.7188C39.8438 38.4422 38.4422 39.8438 36.7188 39.8438Z" fill="#4596D0"/>
<path d="M3.90625 9.375H5.46875V10.9375H3.90625V9.375Z" fill="#3E86BA"/>
<path d="M7.03125 9.375H17.9688V10.9375H7.03125V9.375Z" fill="#3E86BA"/>
<path d="M3.90625 12.5H5.46875V14.0625H3.90625V12.5Z" fill="#3E86BA"/>
<path d="M7.03125 12.5H17.9688V14.0625H7.03125V12.5Z" fill="#3E86BA"/>
<path d="M3.90625 15.625H5.46875V17.1875H3.90625V15.625Z" fill="#3E86BA"/>
<path d="M7.03125 15.625H17.9688V17.1875H7.03125V15.625Z" fill="#3E86BA"/>
<path d="M3.90625 18.75H5.46875V20.3125H3.90625V18.75Z" fill="#3E86BA"/>
<path d="M7.03125 18.75H17.9688V20.3125H7.03125V18.75Z" fill="#3E86BA"/>
<path d="M3.90625 34.375H8.59375V26.5625H3.90625V34.375ZM5.46875 28.125H7.03125V32.8125H5.46875V28.125Z" fill="#3E86BA"/>
<path d="M10.1562 34.375H14.8438V28.125H10.1562V34.375ZM11.7188 29.6875H13.2812V32.8125H11.7188V29.6875Z" fill="#3E86BA"/>
<path d="M16.4062 34.375H21.0938V21.875H16.4062V34.375ZM17.9688 23.4375H19.5312V32.8125H17.9688V23.4375Z" fill="#3E86BA"/>
</svg>
