<svg width="16" height="16" viewBox="0 0 16 16" fill="none" xmlns="http://www.w3.org/2000/svg">
<path fill-rule="evenodd" clip-rule="evenodd" d="M7.9925 0.5C3.8525 0.5 0.5 3.86 0.5 8C0.5 12.14 3.8525 15.5 7.9925 15.5C12.14 15.5 15.5 12.14 15.5 8C15.5 3.86 12.14 0.5 7.9925 0.5ZM8 14C4.685 14 2 11.315 2 8C2 4.685 4.685 2 8 2C11.315 2 14 4.685 14 8C14 11.315 11.315 14 8 14ZM7.79 4.25H7.835C8.135 4.25 8.375 4.49 8.375 4.79V8.195L11.2775 9.92C11.54 10.07 11.6225 10.4075 11.465 10.6625C11.315 10.9175 10.985 10.9925 10.73 10.8425L7.6175 8.975C7.385 8.84 7.25 8.5925 7.25 8.33V4.79C7.25 4.49 7.49 4.25 7.79 4.25Z" fill="#999999"/>
</svg>
