<svg width="36" height="36" viewBox="0 0 36 36" fill="none" xmlns="http://www.w3.org/2000/svg">
<path d="M5 10.5C5 11.325 5.675 12 6.5 12H30.5C31.325 12 32 11.325 32 10.5C32 9.675 31.325 9 30.5 9H6.5C5.675 9 5 9.675 5 10.5Z" fill="#4595CF"/>
<path d="M5 17.5C5 18.325 5.675 19 6.5 19H30.5C31.325 19 32 18.325 32 17.5C32 16.675 31.325 16 30.5 16H6.5C5.675 16 5 16.675 5 17.5Z" fill="#4595CF"/>
<path d="M5 24.5C5 25.325 5.675 26 6.5 26H30.5C31.325 26 32 25.325 32 24.5C32 23.675 31.325 23 30.5 23H6.5C5.675 23 5 23.675 5 24.5Z" fill="#4595CF"/>
</svg>
