<svg width="50" height="50" viewBox="0 0 50 50" fill="none" xmlns="http://www.w3.org/2000/svg">
<path d="M24.9122 6.35352C25.4554 6.35352 25.8957 5.91318 25.8957 5.37002V0.983496C25.8957 0.440332 25.4554 0 24.9122 0C24.369 0 23.9287 0.440332 23.9287 0.983496V5.37002C23.9288 5.91318 24.3691 6.35352 24.9122 6.35352Z" fill="#F6DE86"/>
<path d="M48.9537 33.7876L47.2163 32.0551C46.5982 31.4378 45.7745 31.0977 44.8968 31.0977C44.3355 31.0977 43.7968 31.2374 43.3193 31.499L40.0453 28.2289L40.2048 28.0696C41.533 26.7387 41.5325 24.5761 40.2047 23.2498C39.7302 22.7744 39.1381 22.4574 38.4927 22.324C38.5815 22.0173 38.6283 21.696 38.6283 21.3672C38.6283 20.4536 38.2734 19.5969 37.6311 18.9572C37.1564 18.4818 36.5644 18.1648 35.919 18.0314C36.0079 17.7247 36.0547 17.4035 36.0547 17.0746C36.0547 16.1609 35.6998 15.3044 35.0563 14.6636C34.5704 14.1783 33.973 13.8711 33.3458 13.7403C33.6813 12.5834 33.3946 11.2817 32.4845 10.37C31.7269 9.6156 30.6988 9.29138 29.7081 9.39646L23.2203 8.16843C22.2309 7.98074 20.9952 7.85662 20.2152 8.56804C20.166 8.61296 20.1158 8.66462 20.0664 8.72214C18.857 8.28132 17.4465 8.54382 16.478 9.5112C15.8355 10.1529 15.4816 11.0092 15.4816 11.9222C15.4816 12.2511 15.5282 12.5723 15.617 12.8792C14.9723 13.0125 14.381 13.3291 13.908 13.8029C13.2643 14.444 12.9093 15.2993 12.9086 16.2113C12.9083 16.541 12.9551 16.8633 13.0443 17.1709C12.3993 17.3039 11.8076 17.6199 11.3332 18.0937C10.6895 18.7368 10.335 19.5935 10.335 20.5061C10.335 21.2052 10.5437 21.8711 10.9304 22.4336C10.4421 22.5991 9.99482 22.8746 9.62031 23.2487C8.29121 24.5761 8.29072 26.7388 9.62119 28.0717L9.78008 28.2299L6.50566 31.4983C5.28877 30.9254 3.78945 31.14 2.78525 32.1429L1.04678 33.8765C0.428418 34.4941 0.0879883 35.3179 0.0878906 36.1962C0.0878906 37.0745 0.428418 37.8984 1.04678 38.5161L3.21641 40.6831C3.60068 41.067 4.22344 41.0666 4.60723 40.6823C4.99111 40.298 4.99072 39.6753 4.60645 39.2915L2.43682 37.1245C2.19053 36.8785 2.05488 36.5488 2.05488 36.1963C2.05488 35.8438 2.19053 35.5142 2.43623 35.2688L4.1748 33.5351C4.60918 33.1012 5.27402 33.0366 5.77891 33.3384C5.81445 33.3919 5.85557 33.4427 5.90264 33.4898C5.98691 33.5743 6.08311 33.639 6.18525 33.6864L16.1553 43.6418C16.2026 43.745 16.2677 43.8422 16.3525 43.9271C16.4352 44.0098 16.5294 44.0738 16.6294 44.1209C16.8402 44.3593 16.9567 44.6637 16.9567 44.9886C16.9567 45.3411 16.8211 45.6707 16.5748 45.9167L14.838 47.6514C14.3248 48.1624 13.49 48.1623 12.9784 47.653L10.8088 45.4832C10.4247 45.0991 9.80205 45.0991 9.41797 45.4832C9.03389 45.8673 9.03389 46.4899 9.41797 46.874L11.5892 49.0454C12.2282 49.6818 13.0675 49.9999 13.9071 49.9999C14.747 49.9999 15.5872 49.6813 16.2271 49.0443L17.9649 47.3085C18.5833 46.6908 18.9238 45.867 18.9238 44.9886C18.9238 44.3617 18.7495 43.7631 18.4254 43.2468L22.1105 39.5662C22.1145 39.5622 22.1184 39.5582 22.1224 39.5542C22.5443 39.1179 23.7194 39.1996 24.8559 39.2785C25.6633 39.3346 26.5635 39.397 27.443 39.2957L31.4785 43.3264C31.2171 43.8031 31.0775 44.3412 31.0775 44.9015C31.0775 45.779 31.4181 46.6023 32.0364 47.22L33.7744 48.9558C34.3924 49.5731 35.2161 49.9132 36.0938 49.9132C36.9715 49.9132 37.7952 49.5732 38.4133 48.9558L48.9544 38.4275C49.5728 37.8099 49.9133 36.9861 49.9133 36.1078C49.9132 35.2296 49.5727 34.4057 48.9537 33.7876ZM22.8541 10.101L27.1204 10.9086L24.5668 13.4612C24.1718 13.2714 23.6304 12.9173 23.0364 12.3491C22.2234 11.5714 21.6419 10.6734 21.589 10.1134C21.5889 10.1131 21.5889 10.1128 21.5889 10.1125C21.5889 10.1124 21.5888 10.1123 21.5888 10.1122C21.585 10.0719 21.584 10.0398 21.5845 10.0153C21.7131 9.98406 22.0547 9.94939 22.8541 10.101ZM17.868 10.9029C18.3662 10.4052 19.1402 10.3477 19.7032 10.729C20.0223 12.0667 21.1634 13.2791 21.6768 13.7703C22.0572 14.1343 23.278 15.2259 24.5103 15.5259C24.677 15.7648 24.7677 16.0497 24.7677 16.3503C24.7677 16.7375 24.6188 17.0995 24.3474 17.3706C24.0768 17.6417 23.7142 17.7909 23.3263 17.7909C22.9383 17.7909 22.5757 17.6417 22.3038 17.3693L22.3037 17.3692L22.3032 17.3687L17.8679 12.9414C17.5975 12.6714 17.4485 12.3094 17.4485 11.9222C17.4486 11.535 17.5976 11.173 17.868 10.9029ZM15.298 15.1946C15.5687 14.9236 15.9309 14.7743 16.3182 14.7743C16.706 14.7743 17.0693 14.9239 17.3417 15.196L20.9132 18.7603C21.4756 19.3236 21.4756 20.2402 20.9151 20.8015C20.6431 21.0725 20.2792 21.2218 19.8906 21.2218C19.5021 21.2218 19.1382 21.0725 18.8673 20.8027L18.8672 20.8026L16.1577 18.0937C16.1535 18.0895 16.1489 18.0856 16.1446 18.0813L15.297 17.2341C15.025 16.9624 14.8753 16.5997 14.8756 16.2128C14.876 15.8271 15.0252 15.4663 15.298 15.1946ZM12.7232 19.4854C12.994 19.215 13.357 19.0661 13.7455 19.0661C14.1308 19.0661 14.4906 19.2129 14.7603 19.4786L17.478 22.1951C17.749 22.465 17.8983 22.8266 17.8983 23.2134C17.8983 23.6 17.749 23.9616 17.477 24.2326C17.2062 24.5029 16.8437 24.6518 16.4559 24.6518C16.0675 24.6518 15.7037 24.5025 15.4326 24.2326L14.4474 23.2485C14.4472 23.2482 14.4469 23.248 14.4467 23.2478L12.7233 21.5265C12.4517 21.2552 12.3021 20.8927 12.3021 20.5059C12.3021 20.1193 12.4517 19.7567 12.7232 19.4854ZM11.0104 24.6403C11.2823 24.3686 11.6458 24.219 12.0338 24.219C12.4217 24.219 12.7851 24.3685 13.0569 24.64L14.0436 25.6255C14.3146 25.8954 14.4639 26.257 14.4639 26.6437C14.4639 27.0304 14.3146 27.392 14.0415 27.664C13.7709 27.935 13.4083 28.0844 13.0204 28.0844C12.6324 28.0844 12.2698 27.9351 11.9973 27.6621L11.8737 27.539C11.8721 27.5374 11.8708 27.5356 11.8692 27.5341C11.8674 27.5323 11.8654 27.5307 11.8636 27.529L11.0113 26.6801C10.4489 26.1165 10.4484 25.2015 11.0104 24.6403ZM31.0527 35.8178C30.6688 35.4335 30.0461 35.4332 29.6619 35.817L28.7869 36.6909C27.9555 37.5223 26.4489 37.4177 24.992 37.3166C23.4099 37.2066 21.7738 37.0931 20.7151 38.1801L17.0926 41.7982L8.03369 32.7526L11.2396 29.5525C11.7694 29.8773 12.3809 30.0514 13.0206 30.0514C13.9346 30.0514 14.7916 29.6971 15.4317 29.0558C16.0762 28.414 16.4312 27.5575 16.4312 26.6438C16.4312 26.6353 16.4306 26.6269 16.4306 26.6184C16.4391 26.6185 16.4476 26.619 16.4561 26.619C17.3687 26.619 18.2251 26.2658 18.8661 25.6256C19.5105 24.9838 19.8655 24.1271 19.8655 23.2135C19.8655 23.2051 19.8649 23.1967 19.8649 23.1882C19.8735 23.1882 19.8821 23.1887 19.8908 23.1887C20.8032 23.1887 21.6601 22.8359 22.3054 22.1932C22.9753 21.5222 23.3066 20.6388 23.3003 19.7573C23.3091 19.7574 23.3179 19.7579 23.3267 19.7579C24.2406 19.7578 25.0976 19.4036 25.7387 18.7613C26.3812 18.1196 26.7351 17.2634 26.7351 16.3503C26.7351 15.7117 26.5614 15.1012 26.2377 14.5724L29.0476 11.7637C29.2569 11.5552 29.5151 11.4244 29.7857 11.3704C29.815 11.3673 29.8439 11.3626 29.8726 11.3569C30.3067 11.297 30.7627 11.431 31.0947 11.7617C31.6571 12.3251 31.6571 13.2417 31.0968 13.803L30.241 14.6552C30.2382 14.6581 30.2352 14.6606 30.2323 14.6635L29.2467 15.6474C28.8623 16.0312 28.8619 16.654 29.2458 17.0383C29.6298 17.4226 30.2524 17.4229 30.6366 17.0391L31.4958 16.1811C31.496 16.1809 31.4962 16.1807 31.4964 16.1805L31.6263 16.0511C32.1902 15.4924 33.1039 15.4935 33.6673 16.0561C33.9384 16.326 34.0877 16.6877 34.0877 17.0744C34.0877 17.461 33.9384 17.8226 33.6651 18.0947L32.8045 18.9571C32.8044 18.9572 32.8043 18.9573 32.8042 18.9575L31.8186 19.939C31.4338 20.3223 31.4325 20.9451 31.8158 21.3299C32.1991 21.7147 32.8218 21.7159 33.2066 21.3327L34.1967 20.3467C34.4673 20.0756 34.8299 19.9263 35.2178 19.9263C35.6058 19.9263 35.9685 20.0756 36.241 20.3486C36.5121 20.6186 36.6613 20.9802 36.6613 21.367C36.6613 21.7536 36.5121 22.1152 36.2395 22.3867L34.5236 24.1032C34.1396 24.4874 34.1397 25.11 34.5238 25.494C34.7159 25.686 34.9675 25.7819 35.2191 25.7819C35.4709 25.7819 35.7227 25.6858 35.9146 25.4937L36.7556 24.6525C36.7603 24.6479 36.7655 24.6439 36.7703 24.6391C37.0409 24.368 37.4035 24.2188 37.7914 24.2188C38.1794 24.2188 38.542 24.368 38.8136 24.6401C39.3754 25.2013 39.3749 26.1164 38.8136 26.6787L37.9586 27.5327C37.9583 27.533 37.9579 27.5333 37.9576 27.5336C37.9573 27.5339 37.957 27.5343 37.9567 27.5345L36.5997 28.8899C36.2154 29.2738 36.215 29.8966 36.5988 30.2808C36.7909 30.4731 37.0429 30.5693 37.2947 30.5693C37.5462 30.5693 37.7978 30.4734 37.9897 30.2817L38.6535 29.6187L41.8349 32.7964L32.7768 41.8434L29.5312 38.6018C29.7575 38.4563 29.974 38.2852 30.1772 38.082L31.0518 37.2086C31.4362 36.8249 31.4366 36.2021 31.0527 35.8178ZM47.5643 37.0358L37.0231 47.5641C36.7766 47.8104 36.4465 47.9461 36.0938 47.9461C35.741 47.9461 35.4109 47.8104 35.1643 47.564L33.4263 45.8282C33.18 45.5823 33.0443 45.2532 33.0443 44.9015C33.0443 44.55 33.18 44.2209 33.4263 43.9749L43.9674 33.4466C44.2141 33.2002 44.544 33.0645 44.8969 33.0645C45.2496 33.0645 45.5797 33.2002 45.827 33.4471L47.5644 35.1797C47.8106 35.4257 47.9463 35.7552 47.9463 36.1077C47.9462 36.4603 47.8105 36.7899 47.5643 37.0358Z" fill="white"/>
<path d="M11.853 5.52443C12.045 5.71603 12.2964 5.81173 12.5477 5.81173C12.7997 5.81173 13.0517 5.71544 13.2438 5.52296C13.6275 5.13849 13.6269 4.51583 13.2425 4.13214L9.65867 0.555481C9.27429 0.17179 8.65154 0.172278 8.26785 0.556849C7.88416 0.941321 7.88474 1.56398 8.26921 1.94767L11.853 5.52443Z" fill="#F6DE86"/>
<path d="M37.2774 5.81176C37.5289 5.81176 37.7804 5.71586 37.9724 5.52416L41.5535 1.9474C41.9378 1.56361 41.9382 0.940857 41.5543 0.55658C41.1705 0.172302 40.5478 0.171912 40.1635 0.555799L36.5824 4.13256C36.1981 4.51635 36.1977 5.1391 36.5816 5.52338C36.7737 5.71566 37.0256 5.81176 37.2774 5.81176Z" fill="#F6DE86"/>
<path d="M6.13468 42.3051C5.75392 42.6924 5.75919 43.3152 6.14659 43.696L6.14943 43.6987C6.34054 43.8866 6.58868 43.9801 6.83673 43.9801C7.09132 43.9801 7.34591 43.8816 7.53878 43.6854C7.91954 43.2981 7.9128 42.674 7.5255 42.2932C7.13829 41.9125 6.51564 41.9178 6.13468 42.3051Z" fill="white"/>
<path d="M33.4577 34.4011C33.6073 34.4011 33.759 34.367 33.9015 34.2952C34.3865 34.0506 34.5813 33.4592 34.3368 32.9743C34.0921 32.4893 33.5006 32.2944 33.0158 32.539L33.0103 32.5417C32.5253 32.7864 32.3333 33.3764 32.5778 33.8614C32.7504 34.2039 33.0977 34.4011 33.4577 34.4011Z" fill="white"/>
</svg>
