<svg width="20" height="20" viewBox="0 0 20 20" fill="none" xmlns="http://www.w3.org/2000/svg">
<g clip-path="url(#clip0)">
<path d="M16.2494 20H3.74935C2.60102 20 1.66602 19.065 1.66602 17.9167V2.08333C1.66602 0.935 2.60102 0 3.74935 0H16.2494C17.3977 0 18.3327 0.935 18.3327 2.08333V17.9167C18.3327 19.065 17.3977 20 16.2494 20ZM3.74935 0.833333C3.06018 0.833333 2.49935 1.39417 2.49935 2.08333V17.9167C2.49935 18.6058 3.06018 19.1667 3.74935 19.1667H16.2494C16.9385 19.1667 17.4994 18.6058 17.4994 17.9167V2.08333C17.4994 1.39417 16.9385 0.833333 16.2494 0.833333H3.74935Z" fill="#444444"/>
<path d="M14.1667 16.6667C13.9367 16.6667 13.75 16.48 13.75 16.25V12.0833C13.75 11.8533 13.9367 11.6667 14.1667 11.6667C14.3967 11.6667 14.5833 11.8533 14.5833 12.0833V16.25C14.5833 16.48 14.3967 16.6667 14.1667 16.6667Z" fill="#444444"/>
<path d="M15.4167 12.5H12.9167C12.6867 12.5 12.5 12.3133 12.5 12.0833C12.5 11.8533 12.6867 11.6667 12.9167 11.6667H15.4167C15.6467 11.6667 15.8333 11.8533 15.8333 12.0833C15.8333 12.3133 15.6467 12.5 15.4167 12.5Z" fill="#444444"/>
<path d="M5.83268 16.6667C5.60268 16.6667 5.41602 16.48 5.41602 16.25V12.0833C5.41602 11.8533 5.60268 11.6667 5.83268 11.6667C6.06269 11.6667 6.24935 11.8533 6.24935 12.0833V16.25C6.24935 16.48 6.06269 16.6667 5.83268 16.6667Z" fill="#444444"/>
<path d="M7.08268 12.5H4.58268C4.35268 12.5 4.16602 12.3133 4.16602 12.0833C4.16602 11.8533 4.35268 11.6667 4.58268 11.6667H7.08268C7.31268 11.6667 7.49934 11.8533 7.49934 12.0833C7.49934 12.3133 7.31268 12.5 7.08268 12.5Z" fill="#444444"/>
<path d="M11.2499 16.6667C11.1082 16.6667 10.9707 16.595 10.8924 16.4642L8.39238 12.2975C8.27405 12.1 8.33822 11.8442 8.53488 11.7258C8.73238 11.6075 8.98822 11.6717 9.10655 11.8683L11.6065 16.035C11.7249 16.2325 11.6607 16.4883 11.464 16.6067C11.3974 16.6475 11.3232 16.6667 11.2499 16.6667Z" fill="#444444"/>
<path d="M8.75022 16.6667C8.67772 16.6667 8.60355 16.6475 8.53605 16.6075C8.33855 16.4892 8.27522 16.2333 8.39355 16.0358L10.8935 11.8692C11.0127 11.6725 11.2677 11.6083 11.4652 11.7267C11.6627 11.845 11.726 12.1008 11.6077 12.2983L9.10772 16.465C9.02938 16.595 8.89105 16.6667 8.75022 16.6667Z" fill="#444444"/>
</g>
<defs>
<clipPath id="clip0">
<rect width="20" height="20" fill="white"/>
</clipPath>
</defs>
</svg>
