<svg width="25" height="25" viewBox="0 0 25 25" fill="none" xmlns="http://www.w3.org/2000/svg">
<path fill-rule="evenodd" clip-rule="evenodd" d="M12.5 0C5.59644 0 0 5.59644 0 12.5C0 19.4036 5.59644 25 12.5 25C19.4036 25 25 19.4036 25 12.5C25 5.59644 19.4036 0 12.5 0ZM17.7092 8.20278C18.2829 8.36021 18.7347 8.82407 18.888 9.41314C19.1667 10.4808 19.1667 12.7083 19.1667 12.7083C19.1667 12.7083 19.1667 14.9358 18.888 16.0035C18.7347 16.5926 18.2829 17.0565 17.7092 17.214C16.6695 17.5 12.5 17.5 12.5 17.5C12.5 17.5 8.33054 17.5 7.29077 17.214C6.71706 17.0565 6.26524 16.5926 6.11191 16.0035C5.83335 14.9358 5.83335 12.7083 5.83335 12.7083C5.83335 12.7083 5.83335 10.4808 6.11191 9.41314C6.26524 8.82407 6.71706 8.36021 7.29077 8.20278C8.33054 7.91667 12.5 7.91667 12.5 7.91667C12.5 7.91667 16.6695 7.91667 17.7092 8.20278Z" fill="#F5FBFA"/>
<path fill-rule="evenodd" clip-rule="evenodd" d="M11.25 15V10.8333L14.5833 12.9168L11.25 15Z" fill="#F5FBFA"/>
</svg>
