<svg xmlns="http://www.w3.org/2000/svg" viewBox="0 0 909.19 282.98"><defs><style>.a{fill:#1dce13;}</style></defs><title>green-brush</title><path class="a" d="M247.92,286.51c0-.83-.21-1.34-.48-1.15s-.82-.58-1.23-1.72-1.1-2.06-1.58-2.06c-.67,0-.72-.18-.26-.82s.43-.88-.06-1.08-.49-.48.1-1.32.6-1.12.13-1.31a1,1,0,0,1-.63-.81c0-.32.22-.41.5-.22s.36,0,.19-.55,0-.9.28-.9.42-.32,0-1.17-.38-1.17.26-1.17.67-.15.16-.78c-.65-.81-1.91-.09-1.75,1a.81.81,0,0,1-.51.76c-.39.17-.49-.19-.3-1s.09-1.15-.16-1a1.88,1.88,0,0,1-1.46-.12c-.8-.34-.56-.52,1.13-.85,1.33-.27,2.13-.74,2.13-1.25a.91.91,0,0,1,1-.83,2.34,2.34,0,0,0,1.66-1.14c.68-1.12,3.23-2.66,4.06-2.44a15.06,15.06,0,0,0,3.26-.72,46.17,46.17,0,0,1,6-1.24c1.72-.23,3.26-.65,3.42-.94a1.75,1.75,0,0,1,1.38-.54,14,14,0,0,0,4.11-1.74,15.06,15.06,0,0,1,3.86-1.74,1.46,1.46,0,0,0,1.16-.6c.17-.32.05-.58-.26-.58-.7,0-.44-2.61.26-2.67A22.67,22.67,0,0,0,277,253a7.23,7.23,0,0,1,3.43-.38,5.43,5.43,0,0,0,2.81-.21c.88-.32,2.86-.86,4.4-1.21,4.23-1,6.48-1.77,6.48-2.31s-25.75-.17-32.12.49c-3.36.34-4.64.25-6-.45-1-.49-1.87-.93-2-1s-.91-.41-1.72-.79a3.34,3.34,0,0,0-2.26-.35c-.43.2-7.12.45-14.85.57s-15.07.47-16.31.79-5,.89-8.27,1.26a33.38,33.38,0,0,0-7,1.28,6.94,6.94,0,0,1-3.41.32c-1.35-.15-2.57,0-2.72.24a.49.49,0,0,1-.74.17c-.26-.19-.47-.06-.47.28s-.17.57-.37.5c-.84-.25-5.15.81-5.15,1.27s-3.79,1.52-5.22,1.31a2.5,2.5,0,0,0-1.9,1,3.43,3.43,0,0,1-1.81,1.24c-.47,0-2.21.13-3.87.2a22.55,22.55,0,0,0-5,.8,32,32,0,0,1-3.9,1c-1,.18-1.77.56-1.62.84.46.88-.65,1.11-9.37,1.94-.47,0-.81.33-.76.63s-.36.71-.91.9a9.87,9.87,0,0,0-2.27,1.34c-.91.73-2.81,1.11-6.78,1.38-3,.21-6,.35-6.67.32a5.85,5.85,0,0,0-2.7.86c-.87.53-1.67.7-1.85.4-.43-.75-2.2-1.47-1.81-.74s-.08.73-1.42-.11c-2.7-1.71-15.47-.41-16.8,1.7-.41.65-.46,1.09-.12,1.22a.84.84,0,0,1,.51.72c0,.28-.31.37-.7.2a.81.81,0,0,0-1,.31c-.49.92,2.52.79,4.14-.18a14,14,0,0,1,3.62-1.24c1.24-.23,2.65-.51,3.14-.62s.87.16.87.58.63.71,2.14.57,1.93-.06,1.24.4c-.49.33-.77.82-.64,1.08.3.56-2.51,1.12-7.94,1.59-3,.27-4,.16-4.38-.46s-.44-.6-.45-.07c0,1.07-3,.9-4.11-.24-.5-.53-.91-.72-.91-.41s-1.63.39-4.15.15c-2.27-.22-5.83-.55-7.9-.72a24.29,24.29,0,0,1-5.42-1A5.91,5.91,0,0,0,91,270c-.69.16-1.4,0-1.57-.31s-.06-.42.34-.13.54.25.34-.13c-.38-.71-2.78-1.36-5.61-1.51-1.67-.09-2-.32-2.06-1.37s.3-1.3,3.26-1.7a29.42,29.42,0,0,1,4.57-.32l1.26.13-1.33-.85c-2.31-1.46-4.57-2.07-9-2.45a47.31,47.31,0,0,1-7.53-1.31c-4.13-1.21-18.45-1.3-19.07-.13a.67.67,0,0,1-1,.31c-.83-.6-10.07-.8-9.76-.21s.22.56-6.34.79a100.73,100.73,0,0,0-13.53,1.38c-3.17.47-5,.2-6.83-1-.75-.49-.59-.77,1.23-2.11a12.65,12.65,0,0,1,6-2.11,121.2,121.2,0,0,0,12.23-2.38c1.91-.5,2.29-.81,2.09-1.7-.15-.63-.54-.95-.95-.77s-.7,0-.7-.33.39-.65.88-.66c.75,0,.76-.09.12-.57-.48-.36-.53-.57-.14-.58s.48-.4.32-.88.3-1.19,1.65-1.89l1.94-1L37,245.92c-2.7-.19-6.25-.33-7.9-.29s-3,0-3,0,.46-.68,1-1.42,1-1.17,1-.95.51,0,1.13-.47a16,16,0,0,1,4.85-1.53,35.88,35.88,0,0,0,5.71-1.49,12.46,12.46,0,0,1,3.81-.83c2.8,0,9.84-2.17,7.8-2.36a13.7,13.7,0,0,1-1.46-.32l-1.62-.42c-1.15-.3-1.22-.86-.16-1.26a8,8,0,0,0,2.37-1.8,4.29,4.29,0,0,1,2.43-1.42,2.29,2.29,0,0,0,1.69-.8c.47-.66.06-.87-2.32-1.19-1.59-.21-3.57-.51-4.4-.66-2-.37-9.81-.32-10.35.07-.73.52-6.47.77-6.47.28a2.38,2.38,0,0,1,.76-1.2,2.42,2.42,0,0,0,.75-1.34c0-.33-.15-.44-.33-.22s-.63.09-1-.27-.68-.4-.68-.09-.34.56-.75.56c-1.21,0-.88-.63.78-1.48,1.86-1,1.6-1.37-1.41-2.13-2.74-.69-3.26-1.78-1.29-2.7S39.49,218,45,218a35.37,35.37,0,0,0,6-.4l1.33-.39-1.43-1.36a5,5,0,0,0-2.27-1.38c-1.19,0-1.56-1-.92-2.35s5-4.1,6.8-4.1c.74,0,1.16-.25,1-.59a1.5,1.5,0,0,0-1.23-.58c-.85,0-1.8-1.46-1.61-2.48s-7.78.12-8.44,1.23c-.51.85-13.33,3.07-14.59,2.53l-1.2-.52,1.17-.73c.64-.4,4.81-1.43,9.26-2.3,8.16-1.58,10.14-2.69,4.8-2.69A6.41,6.41,0,0,1,40,201c-.7-.67-1.67-.69-5.73-.11-7.48,1.06-11.83,1.79-12.85,2.16-.67.24-.87.07-.75-.64.18-1,1.74-2.25,4.17-3.27,2.1-.87.8-1.63-1.88-1.11l-4.38.83-2.25.41,1.88-2.1A17.27,17.27,0,0,0,20,194.9a12.75,12.75,0,0,0-3.11-.61c-4-.54-6.22-1.86-6.19-3.78,0-1,3.26-2.36,6.29-2.62a59.75,59.75,0,0,0,6.27-1.12,60.2,60.2,0,0,1,7.53-1.19,64.11,64.11,0,0,0,6.53-.88c10.28-2.1,12.6-2.62,13-2.92.27-.18-.52-.61-1.75-1s-2.26-1-2.26-1.41c0-1,5.06-3.12,9.65-4.07,2.24-.47,3.89-1.16,4.43-1.85a8.16,8.16,0,0,1,3.83-1.79c3.77-.87,3.67-1.68-.43-3.45-.88-.37-1.5-1-1.37-1.36.28-.84,2.61-2.13,3.85-2.13.51,0,.79-.27.62-.59s-2-.58-4-.58c-3.39,0-4.75-.6-3.11-1.37,1.46-.68-5.86-.31-9.48.48-4.51,1-7,.58-7-1.17,0-.81,1.31-1.87,4.93-4,3.4-2,4.72-3,4.26-3.39-.86-.65,0-1.31,3.36-2.61,4.75-1.82,8.52-4.89,8-6.52-.34-1.11,1.51-1.72,9.16-3A43.19,43.19,0,0,0,81.59,140a13.15,13.15,0,0,1,4-1.25c3.72-.52,10.86-2.62,12-3.52a4.74,4.74,0,0,1,2.51-.85,7.33,7.33,0,0,0,2.52-.54c.8-.4.6-.52-1-.59-4.28-.18-6.55-.67-7.12-1.54a1.41,1.41,0,0,0-1.76-.53c-1,.33-1,.29-.27-.27a2.6,2.6,0,0,1,1.75-.48,2.3,2.3,0,0,0,1.55-.33,1.9,1.9,0,0,1,1.91.28c1,.6,1.45.62,2.19.08s1.06-.48,1.25-.11,1.59.58,3.16.59a9.43,9.43,0,0,1,4.11.85c1.51,1,2,1.08,2,.3,0-.33-.35-.59-.78-.59s-.66-.23-.51-.52-.2-.66-.78-.83-.95-.67-.83-1.09c.22-.78,2.47-1.24,9.43-1.92,6.28-.61,8-.94,8-1.52,0-.3-.34-.54-.76-.54s-.75-.52-.75-1.17c0-.86.34-1.17,1.26-1.17,1.44,0,1.69-.9.35-1.31a32.07,32.07,0,0,0-5.64,0c-7.61.5-10.65.34-12.25-.67-.8-.5-1.61-.82-1.79-.69s-.23-.51-.11-1.41c.25-2-.46-2.28-5.61-2.45-3.09-.1-3.33-.19-2.25-.83,1.76-1.07,8.23-2.59,12.09-2.86a9.65,9.65,0,0,0,4.5-1.16c1.43-1.16,2.29-1.17,3.25,0a4.19,4.19,0,0,0,2.85.86c3.72,0,17.6-1.66,19.48-2.3s1.82-.7,1.45-2.61a3.74,3.74,0,0,1,.13-2.6c.36-.41.34-.85-.05-1.4-1.2-1.68.33-2,7.65-1.75,5.69.22,7.47.1,8.62-.58s6.74-1.73,10.49-1.91a30.31,30.31,0,0,0,3.52-.57l2.51-.52-2.26-.42a51.1,51.1,0,0,0-8.28-.13c-3.32.16-8.06.26-10.54.22a81,81,0,0,0-10.8.87,140.3,140.3,0,0,1-16.9,1.74,3.51,3.51,0,0,0-2.23.5,3,3,0,0,1-1.89.58c-.86,0-1.56.3-1.56.56s-.51.32-1.13.12c-.89-.29-1-.24-.38.24s.63.61-.13.62c-.48,0-.87.3-.87.66s-.48.29-1.24-.29c-1.37-1-2-1.21-1.56-.43.15.29-.17.66-.72.83s-1,0-1-.38-.79-.67-1.88-.67-1.84.25-1.77.7-.46.62-1.73.43c-2.09-.31-4.15-1.68-4.17-2.75,0-.46-.18-.4-.49.16s-.49.51-.49-.77c0-2.11.81-3.9,1.79-3.9.42,0,.63-.27.46-.59s.1-.6.59-.63a6.13,6.13,0,0,0,3.83-1.29c1-.76,3.36-.47,3.36.42,0,.16-.31.16-.68,0s-1,.15-1.38.71c-.61.87-.61.95,0,.51s.63-.25.36.58a1.36,1.36,0,0,0,.29,1.54c1,.71,1.77.58.9-.14-.57-.47-.28-.55,1.17-.32a4.52,4.52,0,0,0,2.85-.35c.69-.51,1.09-.49,1.65,0s.81.51,1.12-.32a3.81,3.81,0,0,0,.31-1.48c0-.24.24-.44.63-.44A1,1,0,0,0,120,94c.1-.36.85-.75,1.66-.85a3.1,3.1,0,0,0,2-1.07c.31-.49.75-.7,1-.47s.27,0,.09-.59c-.39-1.26.57-1.37,1-.12.26.8.4.79,1.24-.09s.94-.93,1,.12.08,1,.49.24c.73-1.31.62-1.59-.72-2a1.36,1.36,0,0,1-1.14-1.58c.08-1.37,1.83-2.39,3.85-2.25s3.53-.62,3.53-1.6c0-.63.5-.82,1.89-.7a14,14,0,0,0,6.65-1.29c.6-.39.56-.5-.25-.53-.56,0-2.14-.17-3.52-.32-4.27-.47-9.94-.45-12,0-1.41.33-1.86.27-1.61-.2s.08-.54-.35-.34-1.08-.35-1.61-1.29c-.65-1.15-.73-1.68-.3-1.84s.31-.51-.3-1.07c-.82-.75-.77-.79.6-.52.83.17,1.22.15.88,0-1.27-.69-.57-1.41,1.38-1.41,1.27,0,2,.27,2,.73s.12.52.43-.06.55-.58.75-.2c.34.63,1,.58,2.55-.2a7.5,7.5,0,0,1,2.62-.52c2.09,0,2.76-1.5.7-1.5a1.79,1.79,0,0,1-1.72-.88c-.2-.59,0-.88.67-.88a1.68,1.68,0,0,0,1.37-.73c.57-1,2.62-2.28,3.14-1.9a.54.54,0,0,0,.77-.28,2.2,2.2,0,0,1,1.7-.59,17.13,17.13,0,0,0,4.11-.95c2.37-.82,2.58-1,1.61-1.43-.61-.27-4.8-.45-9.31-.41s-8.5-.13-8.86-.39a.64.64,0,0,0-1,.17c-.4.76-16,1.34-16.39.61-.14-.26-.6-.31-1-.12s-.6.48-.21.75-.13.41-1,.41-1.52-.25-1.52-.56-.35-.23-.77.18-.92.55-1.12.32.21-.91.89-1.52l1.25-1.1-1.26.28c-1.1.24-1.13.21-.25-.28a5.67,5.67,0,0,1,5.22.19c1.36.87,3.07.58,3.07-.52,0-.51,1-.74,3.26-.76,2,0,3.26.22,3.26.62s.28.21.63-.31c.45-.69,1.81-1.06,4.89-1.34a55.29,55.29,0,0,0,7.44-1.19,28.84,28.84,0,0,1,4.77-.88,20.31,20.31,0,0,0,4.11-.86c2.35-.75,2.08-.78-4.27-.48-3.73.18-7.12.33-7.53.33s-5.61.63-11.55,1.38-12.4,1.45-14.38,1.55-3.48.37-3.35.61-.75.44-1.94.44a50.62,50.62,0,0,0-6.68.85c-4.26.8-14.28,1.62-12.92,1.06a.58.58,0,0,0,.35-.79c-.16-.29.35-.55,1.12-.56a7.74,7.74,0,0,0,3.17-1.14c1-.61,2.21-1.35,2.76-1.65,1.82-1,31.42-6.69,38.4-7.39,2.07-.21,8.06-.91,13.3-1.54s12.17-1.41,15.39-1.73a48.15,48.15,0,0,0,8.26-1.41c1.74-.61,2.51-.66,2.76-.19s5.6.43,12-.37c1-.13,4-.39,6.78-.59a110.44,110.44,0,0,0,16.72-2.69,5.4,5.4,0,0,1,2.64-.23c.26.19,3.76-.24,7.77-.95,5.94-1.05,7.52-1.15,8.45-.57s2.15.49,6.63-.54l22-5c2.2-.5,5.41-1.28,7.13-1.74a25,25,0,0,1,4.76-.82,14.06,14.06,0,0,0,3.92-.84c2.09-.78,6.38-1.65,17.82-3.6,5.87-1,7.06-1.23,13.05-2.55,2.76-.61,7.28-1.54,10-2.07l6.52-1.25c5.86-1.13,7-1.11,8.14.15a4.25,4.25,0,0,1,1.15,1.9c0,.36.17.63.37.59a12.47,12.47,0,0,1,1.53,0c1,.06,1.06.25.64,1.16-.61,1.34-.12,2.06.8,1.17s.8-.1-.39,1.49a5.4,5.4,0,0,1-3,1.82c-1.68.33-1.87.51-1.33,1.27.81,1.13.12,1.2,32.29-3.32,2.21-.32,6.16-.7,8.78-.85s7.37-.56,10.54-.9,7.36-.71,9.29-.84a31.64,31.64,0,0,0,5.5-.84,56.73,56.73,0,0,1,9.62-.64,75.82,75.82,0,0,0,8.31-.3c.9-.35,12.66-1.07,15.46-.94a5.5,5.5,0,0,1,3,.91c.94,1,3.35,1.1,14.56.61,5.15-.23,9.88-.74,11.43-1.25,2-.65,5.39-.83,14.31-.76,6.41.05,17.07-.11,23.7-.35,13.43-.49,12.71-.5,26.6.2a189.91,189.91,0,0,0,22.09.08c1.38-.06,2.11-.24,1.63-.39s-.88-.54-.88-.87,1.41-.5,4.14-.28c2.28.19,9.11.61,15.19.94s13.86.86,17.31,1.19c13.87,1.32,19.15,1.79,26.35,2.32,18,1.34,27.51,1.87,37.4,2.1,4.56.11,10.2.37,12.55.59s5.85.38,7.78.35a83.86,83.86,0,0,1,8.53.52c2.76.32,11.7.69,19.87.83s15.85.52,17.07.83a48.27,48.27,0,0,0,6.16.89c2.17.17,4.65.45,5.52.61a103.9,103.9,0,0,0,14.38,1.19c6,.22,11.76.73,20.32,1.8,1.39.18,3.31.39,4.27.48l5.52.54c2.07.21,5.57.53,7.78.73a33.52,33.52,0,0,1,4.27.54,19.42,19.42,0,0,0,3.11.53,21.47,21.47,0,0,1,3.59.68,29.47,29.47,0,0,0,5.17.51c6.71.26,6.7.26,6.7,1.2,0,.48.24.88.53.88s.37-.31.17-.69-.08-.56.52-.29a5.67,5.67,0,0,0,2,.39c.75,0,1.13.38,1.18,1.17.09,1.4-.18,1.46-1.19.29s-2.22-1.13-1.87.15c.17.63.12.77-.14.37s-1.7-.53-4.44-.26a58.57,58.57,0,0,1-14.81-.53c-2.62-.34-6-.76-7.53-.94a25.59,25.59,0,0,1-3.34-.53c-.33-.13-.72.17-.88.66-.22.65-.7.78-1.84.49a49.79,49.79,0,0,0-7.74-1.17,24.23,24.23,0,0,1-3.81-.61c-.36-.25-7.07-.29-16.27-.1-5.84.12-9.95-.21-13-1.06-1.73-.47-13.83-.68-13.83-.23,0,.23,1.52.6,3.39.84s3.83.52,4.39.65c3.87.89,14.24,1.88,22.58,2.17a14.34,14.34,0,0,1,4.05.51c.48.37,15.85,1.76,16.68,1.52a35,35,0,0,1,4.12.3c3.2.35,11.38,1,13.43,1.15.74,0,.83.79.15,1.28-.49.35-4.28.43-7.7.16a3.33,3.33,0,0,1-2.31-.91c-.3-.57-1.16-.67-3.37-.38a18.64,18.64,0,0,0-3.3.63c-.18.13-.67-.16-1.09-.65s-.88-.66-1-.39c-.28.54-10.41.31-13.35-.3a32.92,32.92,0,0,0-3.79-.48,8.2,8.2,0,0,1-3.13-.81c-.89-.55-1.11-.54-1.11.09,0,.46-.67.84-1.63.93A81.24,81.24,0,0,1,715.24,46c-3.17-.3-4.52-.27-4,.12,2,1.54-1.74,2.3-7.52,1.54-5.12-.68-6-.72-8.25-.32a9.31,9.31,0,0,1-3.57-.1c-2.14-.67-13.32-1.86-18.29-1.94-2.35-.05-5.74-.26-7.53-.48s-5.41-.53-8-.7-8.84-.68-13.81-1.16-12.36-1-16.42-1.25c-6.63-.35-7.43-.29-7.71.58s-1.15,1-5.92,1a53.59,53.59,0,0,0-7.85.45l-2.25.47,3.76.66a43.37,43.37,0,0,0,5.52.63c1,0,4.92.39,8.79.89s11.2,1.2,16.31,1.56,9.79.77,10.4.93,5.7.53,11.3.85c10.06.56,17.11,1,22.47,1.46,1.52.12,6.73.49,11.58.82s9.14.71,9.53.85,1.18.46,1.73.7a11.4,11.4,0,0,0,2.93.6,3.73,3.73,0,0,1,2.51,1.09c.47.74,1.77,1,6.36,1.08a33,33,0,0,1,6.27.51,19,19,0,0,0,4.27.7c9.89.9,19.79,1.63,24.34,1.8,2.76.1,8.63.65,13,1.21s10.07,1.1,12.55,1.21c17.2.74,30.93,1.67,38.15,2.58,2.48.32,6.84.74,9.68,1s5.28.6,5.42.88-.48.52-1.39.54-2.3.1-3.08.17-1.52-.07-1.64-.29-1-.14-2.07.18a14.83,14.83,0,0,1-5.14.21c-1.81-.21-11.42-.48-21.36-.61s-21.8-.4-26.35-.61c-8.12-.37-10.42-.14-5.09.5a10.85,10.85,0,0,1,2.92.61c.36.42-1.47,1.45-3,1.69-1.78.27-2.34,1-.82,1.08.67,0,4.15.29,7.74.59s10.64.7,15.68.89c8.28.31,9.16.44,9.16,1.37,0,1.28,2,1.59,14.2,2.13,4.91.22,9,.63,9.19.9a4.16,4.16,0,0,0,2.46.49c4.13,0,3,1.61-2.09,2.93a17.08,17.08,0,0,1-4.27.56c-6.11-.39-4.51.76,2.35,1.69,2.76.37,6.6.81,8.53,1s5.43.55,7.78.87,7.09.75,10.54,1c4.25.26,6.44.64,6.78,1.15s2.07.94,4,1.15,3.74.7,4,1.09,2.15.89,4.17,1.11A13.38,13.38,0,0,1,869,89.69c.71.54,2.88,1,5.87,1.12,6.45.35,11.5,1,11.78,1.53s-4.1,1.35-4.77.86c-.28-.2-.51-.11-.51.19s.79.73,1.76.94c1.91.42,2.27,1.14.88,1.77-1.64.74.65,1.91,5.81,3,4.34.89,7.08,2,5.08,2s1,1.07,4,1.43a10.79,10.79,0,0,1,3.83.95,12.13,12.13,0,0,0,3.76,1.16c4.85.91,4.8,1.64-.15,2.09-1.85.17-3.54.67-4,1.2-.71.74-1.58.83-4.76.49-6.48-.71-7.76-.57-8.73.93-.48.73-.77,1.52-.65,1.74a10.45,10.45,0,0,0,3.6.82,12.73,12.73,0,0,1,3.89.87,8.93,8.93,0,0,0,2.88.87c3.6.62,2.86,1.45-1.29,1.45-2,0-3.85.19-4.06.43s-2.32.44-4.68.44c-3,0-4.37.22-4.52.73s.39.73,1.71.74a15.35,15.35,0,0,1,3.68.53,39.47,39.47,0,0,0,6,.91c2.34.2,4.5.62,4.81.92s.7.39.86.2.82-.12,1.46.15c.9.37.37.57-2.34.85a33.89,33.89,0,0,0-8.79,2.06c-1.22.54.68,1.14,6.4,2,2.83.43,5.15.93,5.15,1.12s1.46.24,3.26.11c2.62-.19,3.26-.07,3.26.61,0,1.06-1.59,2.79-2.55,2.78-.59,0-.58-.11,0-.58s.62-.56-.14-.57a1.34,1.34,0,0,0-1.19.9c-.26.77-1.17.86-6.14.6-6.23-.33-7.76.06-6.61,1.67,1.92,2.69,9.76,5.58,15.15,5.58,3.25,0,5,.71,5,2.07,0,.68-.8.85-3.89.84a26.32,26.32,0,0,1-5.89-.63,81.2,81.2,0,0,0-11.57-.88c-9.29-.26-9.55-.23-9.63.91a1.9,1.9,0,0,0,1.62,2.13l4.81,1a152.78,152.78,0,0,0,21.7,3.27c6.53.49,8.76,1.15,8.08,2.43a.5.5,0,0,1-.76.18c-.26-.19-.41,0-.34.43s-.25.73-.73.69-.77.12-.63.37-.53.63-1.47.83c-2,.44-2.5,1.5-1.47,3.22.56.92.62,1.46.22,2-.64.9-.22,1.53,1,1.53.51,0,.92.11.92.24a7.14,7.14,0,0,0,.34,1.25c.3.93,0,1-4.15.63-2.46-.22-5.32-.55-6.35-.74-1.5-.27-1.88-.16-1.88.57a1.94,1.94,0,0,1-.81,1.43c-1.15.75-.46,4.12,1,4.79,1,.49,1,.52.08.59s-1,.08,0,.58-.39.7-5.52.85c-2.15.06-3.77.84-3.77,1.82,0,.52-.52.84-1.38.84A10.48,10.48,0,0,0,890,171c-1.07.33-1.09.4-.25,1.14a4.06,4.06,0,0,0,2.26.8,14.26,14.26,0,0,1,4.69,2.07,13.46,13.46,0,0,0,4.95,2c3,0,7.79.74,7.55,1.18-.13.24.15.41.62.36a1.06,1.06,0,0,1,1,.93c.22,1.28-2.74,3.5-4.27,3.19-.61-.13-1.19,0-1.29.4-.24.83-6.1,1.06-8.44.34-1-.31-6.13-.63-11.42-.72-8.94-.14-11.57.16-8.23.94.76.17,2.4.59,3.64.91a21.39,21.39,0,0,0,4.39.62c1.18,0,2.14.29,2.14.61a.71.71,0,0,0,.78.59A4.39,4.39,0,0,1,890,187c1,.63,1,.65-.16,1.33-2.06,1.19-1.42,2.32,2,3.6,1.77.66,3.33,1.58,3.46,2.05a2.65,2.65,0,0,0,.68,1.18c.77.59-.15,2.39-1,2-.44-.2-.66-.2-.49,0s-.26,1-1,1.83a4.24,4.24,0,0,1-3.41,1.57c-1.18,0-2.06.27-1.95.48s-2,.25-4.6.09c-3.84-.23-5-.11-5.64.6-.94,1-5.87,1.39-8.44.69-1-.26-1.7-.18-1.91.22a1.87,1.87,0,0,1-1.53.65c-1.51,0-2.77.56-2.77,1.23,0,.28.33.52.73.52a1.53,1.53,0,0,1,1.15.88c.27.55,2.23,1.3,5.17,2,5.8,1.32,10.07,3.32,9.67,4.55a.75.75,0,0,1-1,.53c-.39-.17-.59-.08-.43.21s-.31,1.35-1,2.35c-1,1.34-1.58,1.72-2.32,1.45-.56-.21-.89-.14-.73.16s-.5.55-1.46.59a29.82,29.82,0,0,0-5.27,1.06l-3.52,1,1.12,1.39c.61.77,1.33,1.39,1.58,1.39a8.77,8.77,0,0,1,2.19.95c1.65.91,1.69,1,1,2.31-.48.85-.58,1.49-.26,1.72a.76.76,0,0,1,.18,1c-.2.4-.47.33-.76-.18s-.57-.58-.81-.2a6.74,6.74,0,0,1-1.89,1.44l-1.5.85,1.59.2c1.72.21,2.64,1.71,1.39,2.27-.42.19-.89.19-1,0s-1,.17-2,.77a12.61,12.61,0,0,1-3.58,1.5,5.64,5.64,0,0,0-2.58,1.21c-.88,1-1.23,1-5.89-.39-4.19-1.24-5.37-1.13-7.09.7-1,1-1.36,1.08-4,.52-3.44-.74-9.92-.84-9.55-.14a12,12,0,0,0,3.92,1.21c5.13,1,5.71,1.23,4.87,1.84-1.47,1.05,5.07,3.53,11.47,4.35a8.74,8.74,0,0,1,3.38.86c.13.25-.23,1.16-.81,2-1,1.43-1,1.63-.25,2.59a4.29,4.29,0,0,1,.81,1.36c0,.72-8.5-.32-11.29-1.38-4-1.53-12.15-2.64-12.91-1.77a1,1,0,0,0,0,1.41c.53.73,1.33,1,8,3.13,2.09.66,3.14,1.28,3.14,1.86,0,.74-.59.82-3.72.49-2.39-.25-3.84-.18-4,.21s0,.61.3.61.49.13.35.3c-.33.39-7.44-1.35-8.15-2s-7.89-1.83-9.45-1.7a.91.91,0,0,0-.88.81,5.51,5.51,0,0,1-.26,1.51c-.24.75,5.89,2.26,16.45,4.06a21.14,21.14,0,0,1,4.7,1.38,9.82,9.82,0,0,0,3.39.89c2.28,0,5.54,1.16,5,1.77-.24.28-3.3.59-6.79.68s-6.31.22-6.26.27,1.19.61,2.56,1.23c2.37,1.09,2.43,1.17,1.35,1.84-.85.53-1.76.55-3.64.08-3-.76-3.46-.77-3.46-.08,0,.29.68.71,1.5.92,2.75.7,2.15,1.46-1.14,1.46a10.89,10.89,0,0,0-4.79.92,3.5,3.5,0,0,1-2.69.5c-1.44-.53-25-.73-24.73-.21.59,1.1-6,1.09-11.62,0-11.38-2.23-21.06-3.51-27.3-3.58a103.82,103.82,0,0,1-11.55-.88c-2.89-.45-8.06-1.08-11.47-1.41a59.42,59.42,0,0,1-6.53-.83,26,26,0,0,0-4.08-.59c-2.07-.21-4.56-.49-5.52-.62-2-.29-11.17-.88-17.82-1.16-4.81-.2-12.12-.74-17.07-1.25-1.65-.18-8.09-.43-14.3-.57s-13.56-.46-16.32-.72-10.39-.46-17-.42c-9.94,0-12,.2-12.43.91s-.54.74-.92.05-1-.7-1.94-.47a2.37,2.37,0,0,1-2-.29,3.85,3.85,0,0,0-2.21-.77,12.68,12.68,0,0,1-2.66-.47c-3-1-6.14-1.33-7.4-.71-1,.5-3.55-.09-3.2-.75.13-.24-2.29-.51-5.37-.59-8.31-.24-9.17-.34-10.11-1.25-.77-.74-.84-.71-.69.31.11.77-.07,1.07-.59.92a9,9,0,0,0-1.88-.21c-.62,0-1.13-.22-1.13-.46s-.36-.62-.81-.81-.72-.12-.5.55.1.77-.32.45a21.42,21.42,0,0,0-5.39-.64c-5.52-.21-4.7-.21-30.62-.11-10.91.05-21.23-.1-22.93-.34a11.57,11.57,0,0,0-3.95,0c-.85.38-17.25,1.13-22.29,1-3.94-.08-8.41,2.61-5.92,3.58.37.14.11.55-.63,1a5.59,5.59,0,0,0-1.53,1.26c-.56,1-4.82,1.53-6,.77-.76-.47-2.78-.64-6-.5-2.65.12-11.33.35-19.3.52s-15.05.47-15.72.67a43.71,43.71,0,0,1-6.33.44c-2.81.05-5.56.39-6.12.75-1,.65-5.64,1.71-6.42,1.46a9.37,9.37,0,0,0-4.37.19,10.31,10.31,0,0,1-2.76.34l-2-.2a47.06,47.06,0,0,0-5.77.58,66,66,0,0,1-6.94.68,5.36,5.36,0,0,0-2.76.54,6.52,6.52,0,0,1-2.22,1c-1.33.33-1.63.22-1.63-.59s-.42-.94-3.64-.57c-2,.23-7.25.47-11.67.55A69.82,69.82,0,0,0,370,268c-1.48.38-2.81.68-2.94.68s0,.4.38.88a3.2,3.2,0,0,0,2.32.88c.93,0,1.69.11,1.69.24a6.6,6.6,0,0,0,.31,1.17c.42,1.27-1,1.2-2.11-.09-.63-.74-.93-.82-1.08-.29s-.42.58-.67.4-.46-.12-.46.14-.51.5-1.13.54-4.07.37-7.66.74-10.81.76-16.06.89-10.1.38-10.79.55c-2.34.6-15.2,2-22.09,2.38-12.76.74-22.44,2.86-24.44,5.37a3.92,3.92,0,0,1-2.51,1.44c-6.5.25-15.52,1-19.48,1.7-1.65.28-4.56.67-6.45.87s-4.58.61-6,.91-2.6.56-2.7.56a3.17,3.17,0,0,1-.19-1.49Zm0-5.32c0-.64-.22-.68-1-.21a1.32,1.32,0,0,0-.69,1.5c.22.68.45.72,1,.21a2.44,2.44,0,0,0,.69-1.5Zm84.58-8.69c2-.82,1.92-.83-2.26-.54-9.55.65-12.54,1-12.54,1.38,0,.76,12.69.05,14.8-.84ZM99.35,265.45c0-.13-.34-.23-.75-.23s-.76.26-.76.57.34.41.76.23S99.35,265.58,99.35,265.45Zm36.39-2c.17-.33-.24-.59-1-.59a2,2,0,0,0-1.56.59c-.18.33.24.58.94.58A2,2,0,0,0,135.74,263.47Zm-23.84-3c0-.6-.6-.66-1.72-.16s-.92,1.26.46,1C111.33,261.12,111.9,260.76,111.9,260.48Zm284-.1c1.71-.55,1.94-.76,1.1-1-1.34-.37-17.31.42-25.87,1.27-2.32.23,15.64.8,19.33.61a25.87,25.87,0,0,0,5.44-.88Zm17.4-1.79c.55-.15-.47-.26-2.26-.23-4.29.06-6,.6-3.27,1a8.45,8.45,0,0,0,3.27-.1C411.75,259.05,412.76,258.74,413.32,258.59ZM93,258.76c1,0,1-.07-.13-.61-1.37-.63-2.55-.32-2.55.69,0,.37.36.51.8.31a6.14,6.14,0,0,1,1.88-.39Zm327.87-.66c.13-.15-.76-.33-2-.38s-2.38.19-2.58.55.35.58,2,.39a8.37,8.37,0,0,0,2.58-.56Zm392.51-6.9c.19-.36-.61-.56-2.11-.51-2.14.06-2.24.12-.9.51C812.55,251.85,813,251.85,813.37,251.2ZM39.71,242.63a.89.89,0,0,0-1,0c-.17.2.13.33.66.31s.7-.17.3-.35Zm5.93-.77c1-.38,1.06-.47.25-.49a5.16,5.16,0,0,0-2,.49C42.6,242.5,43.92,242.5,45.64,241.86Zm6.74.23a1.65,1.65,0,0,0,.79-1.41c0-.89-.32-1-2.13-.74-2.31.34-3.82,1.33-2,1.33a1.72,1.72,0,0,1,1.39.59c.36.67.85.73,2,.23Zm815.45-10.16c0-.32-.4-.58-.88-.58-.75,0-.77.09-.13.58C867.77,232.64,867.83,232.64,867.83,231.93Zm-803-23.77a.91.91,0,0,0-1,.05c-.17.19.13.33.65.31s.71-.17.31-.36Zm-4.11-1.7c0-1-1.4-1.06-3.23-.25-2,.89-1.52,1.51,1,1.28C60,207.35,60.7,207,60.7,206.46Zm9.32.42c-.5-.94-2.29-1.18-2.29-.31,0,.5.51.82,1.28.82S70.17,207.16,70,206.88Zm-3.8-.65c.56-.42.27-.57-1.13-.58-1,0-1.88.26-1.88.58C63.21,207,65.23,207,66.22,206.23ZM903,137.89a.51.51,0,1,0-1,0,.51.51,0,1,0,1,0ZM906.6,127a1.6,1.6,0,0,0-1.25,0c-.35.16-.06.29.63.29s1-.13.62-.29Zm-7.53-7a6.08,6.08,0,0,0-2.25,0c-.62.14-.12.25,1.13.25S899.7,120.09,899.07,120Zm-23.21-4.71c0-.25-1.86-.77-4.14-1.15s-4.69-.88-5.35-1.1-1.09-.18-.9.17,2.29.92,4.72,1.32,4.64.83,4.92.93l.62.23c.07,0,.13-.15.13-.4Zm-732.09-5.39c.9-.45.86-.51-.35-.54a2,2,0,0,0-1.66.54C141.39,110.55,142.38,110.55,143.77,109.85Zm728.58-3.42c0-.28-2.27-.8-5-1.17-6.24-.83-7.36-.84-6.72-.1.26.31,3,.8,6,1.09s5.57.55,5.64.6.13-.15.13-.42Zm-756.74-7c.14-.26-.07-.48-.47-.48s-.73.22-.73.48a.48.48,0,0,0,.47.49A.94.94,0,0,0,115.61,99.43Zm67.16-1.08a.89.89,0,0,0-1,.05c-.16.19.13.33.66.31s.71-.17.31-.36Zm-77.9-.77c0-.32-.4-.58-.88-.57-.75,0-.77.09-.12.57C104.81,98.3,104.87,98.3,104.87,97.58Zm2-.91c0-.14-.23-.25-.5-.25a.57.57,0,0,0-.51.61c0,.34.23.46.51.26s.5-.48.5-.62Zm28.61-4.06a39.36,39.36,0,0,1,4.77-.9,37.32,37.32,0,0,0,5.27-1.1,17.1,17.1,0,0,1,1.75-.57c0,.22,3.44-1,5.15-1.87,2.59-1.28,2.75-2.27.38-2.27-1.23,0-1.76-.26-1.76-.87,0-.9,2.25-1.26,6-1a19.7,19.7,0,0,0,7.33-1.59c.79-.54-1.75-1.14-5-1.2a13.54,13.54,0,0,0-6.24,1.4,17.89,17.89,0,0,1-4.24,1.47c-.82,0-.89.12-.31.54.41.3.91.41,1.13.25s.4,0,.4.27c0,.52-1.09.89-4.93,1.65A2.79,2.79,0,0,0,143.17,88c-.22.67-.41.69-1.06.08s-.74-.6-.49.17,0,.9-.79.82a9,9,0,0,0-2.74.44c-1.16.36-1.89.31-2.38-.17s-.72-.44-.72-.11c0,.64-3.83,2.48-5.17,2.48a.84.84,0,0,0-.86.8c0,.6.68.76,2.64.64a21.2,21.2,0,0,0,3.89-.57Zm20.65-21.19a1.16,1.16,0,0,0-1.19.36c-.37.44-.18.51.66.26C156.29,71.83,156.51,71.57,156.14,71.42Zm606.28-2.31c0-.24-.69-.5-1.53-.56s-1.39.11-1.22.43c.35.66,2.75.77,2.75.13ZM157.57,65.43l1.26-.05-1.17-.54c-1.32-.62-3.6-.14-3.6.75,0,.32.51.43,1.13.24a10.3,10.3,0,0,1,2.38-.4Zm600.83.13c0-.27-.33-.49-.75-.49s-.75.22-.75.49.34.48.75.48S758.4,65.82,758.4,65.56Zm2.11.08a.89.89,0,0,0-1,0c-.16.19.13.33.66.31s.71-.17.31-.36ZM166.2,64.47a.91.91,0,0,0-1,0c-.17.19.13.33.66.31s.7-.17.3-.36Zm-56.31-.76a.55.55,0,0,0-.5-.59.59.59,0,1,0,.5.59Zm13-1.54c0-.65-.94-.08-1.21.74s-.19.84.45.22A3,3,0,0,0,122.94,62.17Zm5,.08c0-.49-.09-.88-.2-.88s-.33.39-.48.88-.07.87.19.87S128,62.73,128,62.25Zm657.14-20a.89.89,0,0,0-1,0c-.17.2.13.34.66.31s.7-.17.3-.35ZM322.94,30.45a.69.69,0,0,0-.16-.87c-.26-.18-.59.06-.75.54-.31.95.44,1.22.91.33ZM84.69,281.14c-.29-.4-.33-.74-.09-.75s0-.3-.5-.65c-1.32-.9-.15-1.67,2.45-1.6,1.35,0,1.68.17,1,.43-1,.36-1.67,1.85-.88,1.83,1.48,0,2.54-.79,2.31-1.66s-.16-.83.47.06c.86,1.21,4.68,1.44,5,.29.16-.58.37-.57,1,0,1,.94,1.55,3.22.72,2.86a.92.92,0,0,1-.42-1c.11-.55-.12-.5-.77.19s-1.82.95-5.35.86c-2.8-.08-4.6-.39-4.94-.85Zm-6.89-1.29c-.67-.48-.35-1.78.44-1.78.58,0,1.08,1.65.61,2C78.64,280.21,78.17,280.11,77.8,279.85Zm10.62-4.7c-.55-1-.5-1.18.51-1.26l1.89-.18c1.33-.17,1.59.36.7,1.5C90.41,276.64,89.21,276.62,88.42,275.15Zm304.07-4.35c0-.14.22-.42.5-.61s.5-.09.5.25a.58.58,0,0,1-.5.62C392.71,271.06,392.49,271,392.49,270.8Zm5.88-.39c.35-.4.75-.58.9-.4s-.12.5-.61.72C397.94,271.05,397.88,271,398.37,270.41ZM129,268.8a2.45,2.45,0,0,1,.78-1.26c.6-.58.91-.59,1.37-.05s.44.82-.14,1.25c-.95.7-2,.73-2,.06Zm566.7-5.33a.67.67,0,0,1,.72-.59,1.29,1.29,0,0,1,1,.59c.17.32-.16.58-.73.58S695.66,263.79,695.66,263.47Zm-8.53-.62c0-.67,1.35-.73,1.69-.09.14.26-.19.5-.72.55s-1-.16-1-.46Zm-497.79-.94c-.45-1.37.24-1.57,2-.58.9.52,1.42,1,1.14,1C190.34,262.73,189.58,262.62,189.34,261.91Zm434-1.36c0-.32.1-.59.22-.59s.36.27.53.59.07.58-.22.58A.56.56,0,0,1,623.38,260.55Zm-7.24-.51a1.17,1.17,0,0,1-.09-1.09c.45-.52.94.25.7,1.09-.17.6-.29.6-.61,0Zm1.84.12c-1-.48-.71-1.28.38-1,.55.17,1,.54,1,.82C619.37,260.59,619,260.63,618,260.16Zm240.65-2.92c-.58-.67-.37-1.36.41-1.36a.82.82,0,0,1,.76.87c0,.91-.6,1.16-1.17.49Zm-622.94-3.58c-.13-.25.2-.5.74-.55s.84.16.68.46C236.76,254.24,236,254.29,235.69,253.66Zm4.53-1a1.37,1.37,0,0,1,1.11-.92c.45,0,1.84-.16,3.08-.31,1.63-.19,2.05-.09,1.51.33s-.63.59,0,.6c.4,0,.58.17.4.37a10,10,0,0,1-3.33.58C240.43,253.49,240,253.38,240.22,252.66ZM35.37,251.24c-.37-.7.57-1.39,1.24-.91a.85.85,0,0,1-.51,1.46A1,1,0,0,1,35.37,251.24Zm4.75-15.19a1.3,1.3,0,0,1,.49-.91c.29-.2.37,0,.2.55C40.48,236.71,40.12,236.89,40.12,236.05Zm3.68-.3c0-.47.19-.71.43-.54a.68.68,0,0,1,.13.85C44,236.82,43.8,236.73,43.8,235.75ZM918.53,159.5c-.42-.31-.53-.57-.26-.57a2.78,2.78,0,0,1,1.26.57c.41.31.53.56.25.56A2.72,2.72,0,0,1,918.53,159.5ZM93.83,116.15c0-.25.45-.46,1-.46s1,.25,1,.55-.45.51-1,.46S93.83,116.4,93.83,116.15Zm21-8.58-1.18-1.11,3-.46a48.46,48.46,0,0,1,5.64-.5c1.45,0,2.64-.21,2.64-.43,0-.45,3,.45,3.45,1.05.17.22-.38.24-1.24,0a4.22,4.22,0,0,0-3,.56,10.1,10.1,0,0,1-4.1,1c-1.45,0-2.63.26-2.63.52,0,.84-1.37.5-2.57-.64Zm-6.33.17a.89.89,0,0,1,1,0c.4.18.28.32-.3.35s-.83-.11-.66-.31Zm-9.13-8.06c0-.62.09-1,.26-.77a1.31,1.31,0,0,1,0,1.12C99.53,100.5,99.41,100.36,99.39,99.68Zm13.71-4.91c.14-.27-.21-.94-.78-1.51-1-1-1-1.05,2.08-2.73,3.68-2,4-2.07,4-.54,0,.72-.33,1.17-.88,1.18-.71,0-.74.11-.16.53A2.29,2.29,0,0,0,119,92c.5-.12.92.06.92.38s-.74.55-1.63.5a24.31,24.31,0,0,0-2.64,0c-.83.06-.88.16-.25.63s.63.57-.12.58c-.49,0-.88.27-.88.59s-.36.59-.79.59-.66-.22-.52-.48Zm6.41-4.72c-.5-.36-.48-.6.1-1.16.81-.79,1.46-.1.9,1A.65.65,0,0,1,119.51,90.05Zm-17.4-24.59c-.17-.32,0-.59.44-.59a1.3,1.3,0,0,1,1.06.59c.18.32,0,.58-.44.58A1.3,1.3,0,0,1,102.11,65.46Zm10.28-2.62c.72-1,1-1.12,1-.37,0,.29-.37.69-.82.89-.69.31-.72.23-.19-.52Zm709.4-9.42c.59-.69,3.8-1.22,4.45-.75.37.28.45.53.18.57C823.72,53.6,821.56,53.68,821.79,53.42Zm-3-.72c-.41-.31-.1-.48.88-.48s1.53.22,1.53.48c0,.63-1.56.62-2.41,0ZM805.84,52c-2.15-.56-7.37-1-17.11-1.32-3.34-.12-6.56-.52-7.15-.89s-2.89-.6-5.6-.5a35.75,35.75,0,0,1-4.53,0,13.93,13.93,0,0,1,3.27-1.91c.17,0,.17.26,0,.58s.33.59,1.22.59,1.54-.26,1.54-.59a.56.56,0,0,1,.53-.58c.29,0,.36.33.15.73s-.18.58.35.14a2.88,2.88,0,0,1,1.73-.53c.55,0,2.2.11,3.67.16s2.56.28,2.43.52,1.16.4,2.86.35a10.63,10.63,0,0,1,4,.46c.59.37.88.33.88-.09s.28-.44.61-.2a18.88,18.88,0,0,0,4.89.59c2.36.09,4.29.19,4.29.23a24.35,24.35,0,0,0,2.51.26,16,16,0,0,1,2.64.32,4.63,4.63,0,0,0,1.5.51c.4.1-2,1.8-2.38,1.72-.14,0-1.16-.28-2.26-.57ZM785.51,49c0-.28-.44-.51-1-.51a1.54,1.54,0,0,0-1.25.51c-.15.28.29.51,1,.51S785.51,49.31,785.51,49Zm26.85-1.69a.54.54,0,0,0-.78-.26c-.26.19-.47.08-.47-.24,0-1.14.81-1.15,1.41,0,.33.63.5,1.13.38,1.13s-.37-.26-.54-.59Zm-10.75-2.28c-.53-.61-1.06-1-1.19-.85a8.85,8.85,0,0,1-2.68.47c-2.33.19-5.21-1-4.48-1.87.58-.68,4-.52,4.81.22a2,2,0,0,0,2.82,0c.53-.62,3.09-.48,3.45.19.48.9-.24,2.91-1.05,2.91a3.1,3.1,0,0,1-1.68-1.12Zm5.18.45c-.21-.4-.13-.52.19-.28a.57.57,0,0,0,.86-.21c.47-.88,1.09-.72,1.09.29s-1.62,1.18-2.14.2ZM220,41.16a.87.87,0,0,1,1,0c.4.19.29.33-.3.35s-.83-.11-.66-.3ZM321.21,24.57c0-.32.1-.58.22-.58s.36.26.53.58.07.58-.22.58A.56.56,0,0,1,321.21,24.57Zm11.7.06c-.81-.69-.61-1.69.28-1.42a.68.68,0,0,0,1-.64c0-.51.12-1.31.16-1.8a1.13,1.13,0,0,1,1-.95,7.52,7.52,0,0,0,1.29-.19l1.89-.59c1.84-.58,2.84-1.44,2.47-2.13-.15-.28.17-.52.72-.52a1.36,1.36,0,0,1,1.24.73c.18.51.38.54.67.11a2.15,2.15,0,0,1,3.09-.7c.65.61.71.6.35-.09s-.22-.74.45-.44a4.58,4.58,0,0,0,1.55.39c.38,0,.82.5,1,1.11s.63,1,1.21.83c1.28-.39,1.15-1.83-.14-1.55-1,.22-1,.21-.05-.33a7.05,7.05,0,0,1,2.71-.6,39.73,39.73,0,0,0,4.77-.61c4.37-.82,15.37-2.25,20.38-2.66,2.35-.19,5.29-.45,6.53-.57,2.62-.27,7.78-.7,14.55-1.21,2.63-.19,6.24-.5,8-.67,4.31-.43,11.1-.46,12-.06a24.87,24.87,0,0,0,2.89.77c1.17.24,2.13.64,2.13.88a6.18,6.18,0,0,1-1.24,1.87c-1,1.17-1.71,1.43-3.77,1.39-1.5,0-2.45.18-2.35.53s1.91.61,4,.64c3.34,0,5.56.8,4.8,1.63-.34.37-7,.74-7,.39,0-.17-1.52-.23-3.39-.13a32.55,32.55,0,0,1-6.27-.35,9,9,0,0,0-3.11-.26,6.54,6.54,0,0,1-2.39.4,17.28,17.28,0,0,0-3.54.58,2.14,2.14,0,0,1-2-.17c-.35-.33-2.82-.67-5.49-.75-3.3-.09-4.75-.33-4.53-.76s-.06-.27-.53.18-1.49.68-2.89.42-1.93-.18-1.73.22c.36.67.29.68-4.26.82a18.75,18.75,0,0,0-4.39.56c-.62.26-1.13.25-1.13,0s-.56-.47-1.25-.47-1.26.19-1.26.44-.35.43-.78.43-.66-.22-.52-.49c.35-.66-4.81.31-5.18,1-.69,1.21-10.08,2.43-10.08,1.31a.58.58,0,0,0-.53-.62c-.29,0-.4.25-.25.55.46.85-.7,1.38-1.44.66-.5-.49-.74-.46-.93.11s-1,.72-2.32.63c-1.13-.07-2.06.11-2.06.41,0,1-2.58.34-3.08-.75-.27-.58-.7-.9-1-.71a.67.67,0,0,0-.23.83c.14.27-.07.63-.48.81a.79.79,0,0,1-1-.24c-.18-.34-.83-.22-1.65.31-1.54,1-6.34,2.06-7,1.54ZM325.73,22c0-1,.3-1.18.73-.37a.73.73,0,0,1-.22.91C326,22.72,325.73,22.48,325.73,22Zm1.89-1a1.16,1.16,0,0,1,1.19-.36c.37.14.14.41-.53.61-.84.26-1,.18-.66-.25Zm172.91-1.48c-.62-.14-1.13-.46-1.13-.7,0-.72,2.18-.33,2.4.42.11.38.12.65,0,.61a10.89,10.89,0,0,0-1.3-.33Zm-10.42-1.34c1.38-.69,2.18-.69,1.26,0a2.79,2.79,0,0,1-1.51.53C489.37,18.66,489.45,18.48,490.11,18.15Zm3,.05c-.15-.29.18-.39.73-.22,1.17.35,1.32.75.28.75A1.24,1.24,0,0,1,493.15,18.2Zm-64.61-1.32c-.79-.93-.44-1,5.77-1,3.64,0,7.12-.16,7.73-.3s1.24,0,1.38.24.95.43,1.8.36c2.28-.18,2.29.67,0,.92-1.08.12-1.86,0-1.73-.23.42-.77-.36-.49-1.14.43s-3,1.17-3.45.29c-.2-.39-.64-.38-1.29,0-1.11.69-2.16.22-1.65-.74.23-.42.1-.46-.37-.12a10.87,10.87,0,0,1-3.46.82c-2.17.25-2.94.1-3.6-.67Zm40.24.68c0-.32.1-.58.22-.58s.36.26.53.58.08.58-.22.58A.56.56,0,0,1,468.78,17.56ZM448.7,16.39c-.45-.34-.51-.57-.15-.57a1.12,1.12,0,0,1,.91.57C449.84,17.12,449.67,17.12,448.7,16.39Zm196.06-.08c.26-.49-1.66-1.06-2-.61-.54.63-2.78.75-2.78.15,0-.37-1.42-.46-3.89-.25-3,.27-4.28.13-5.64-.61-1-.52-1.38-.83-.91-.68s.91,0,1-.24a1.35,1.35,0,0,1,.91-.7,2.07,2.07,0,0,0,1.12-.77c.21-.33.38,0,.38.69,0,1.21.08,1.24,1.39.44s1.45-.73,2.07.18.68,1,.4,0c-.24-.79,0-1,.91-1a2.1,2.1,0,0,1,1.72,1c.29.57.52.7.53.29,0-.76,1.52-1,1.52-.29,0,.24,1.71.43,3.8.41s3.9.18,4,.43a1.69,1.69,0,0,0,1.33.48c.86,0,1,.14.44.73s-6.69,1.07-6.3.36Zm8.24,0a.5.5,0,0,1,.37-.53l2-.28c2-.31,2.7.7.79,1.1S653,16.88,653,16.3Zm-36.14-2c0-.32-.85-.59-1.89-.59a3.39,3.39,0,0,0-2.25.59c-.24.39-.37.39-.38,0,0-.73-3-.91-3-.18,0,.3-.21.39-.46.21-.48-.34-4.89-.89-9.58-1.2a13.46,13.46,0,0,1-2.76-.31c0-.39-6.61-.39-7,0-.75.7-5.77,1.18-5.77.56,0-.3-.34-.54-.76-.54s-.75.25-.75.56-3.53.46-9.41.29c-5.18-.15-10-.27-10.62-.27a12,12,0,0,1-2.89-.53c-1-.33-1.67-.33-1.67,0,0,.53-1.76.45-2.24-.11a23.17,23.17,0,0,0-5.07-.08c-3.2.14-5.07,0-5.54-.48s-.71-.51-.71.12-.15.58-.38.19-3.08-.64-7.15-.68c-3.72,0-15-.23-25.09-.41s-23-.37-28.74-.41-10.42-.24-10.42-.45-1.24-.36-2.76-.36-2.76.2-2.76.44a.5.5,0,0,1-.53.44c-.29,0-.39-.27-.22-.59s0-.58-.47-.58a.71.71,0,0,1-.78-.59.56.56,0,0,0-.54-.58c-.29,0-.39.26-.22.58s-.37.58-1.35.58c-1.26,0-1.48-.15-.91-.58s.58-.57.09-.57-.49-.21.09-.89a2.75,2.75,0,0,1,1.8-.87c.57,0,1-.28,1-.63s.43-.46,1.06-.23,1,.19.73-.25-.21-.65-.05-.65.47.55.68,1.21l.38,1.2,1.32-1.21c.91-.83,1.44-1,1.68-.56s.47.43.77-.13S475.12,5,489.72,5c9.88,0,22,.2,27,.4S529.93,6,535,6.14c18.44.67,23.19.91,23.6,1.21.93.66,5,1.25,5.58.81a.69.69,0,0,1,1,.23c.29.52.51.48.88-.17.27-.49.5-.62.5-.3s3.11.56,8.42.52c8.38-.07,22.71.87,22.71,1.49,0,.18,1.75.3,3.89.26,3.67-.06,12.11.74,13.61,1.29.55.21.56.42.05,1.14s-.49.83.07.62c.39-.14,1.33-.42,2.1-.61s1.29-.63,1.11-1.07,0-.3.3.2c.47.74,1.12.83,3.37.47a7.34,7.34,0,0,1,3.67.11,5.9,5.9,0,0,0,2.29.63c1.3.07,1.32.1.2.34-.93.21-1.05.39-.5.79.78.57.13.64-6.94.76-2.47,0-4.14-.16-4.14-.51ZM471,9.09c-.16-.48-.49-.72-.74-.54-.7.5-.52,1.42.29,1.42C471,10,471.15,9.62,471,9.09Zm-29.27,2c.51-1.12.48-1.25-.23-.93s-.74.19-.23-.92L441.83,8l.5,1.3c.58,1.49,1.61,1.71,2,.43.16-.49.11-.88-.12-.88s-.4-.4-.4-.88c0-.72.45-.82,2.43-.51,1.65.25,2.42.16,2.42-.29s.8-.66,1.79-.66c1.17,0,1.67.22,1.44.65s0,.45.72,0,1-.5.76.24c-.16.49-.5.89-.74.89a.53.53,0,0,0-.45.58c0,1.22.9.51,1.5-1.17.7-2,.72-2,2-1.19.63.4.83,1,.65,2.07-.13.83,0,1.43.2,1.34a.59.59,0,0,1,.69.4c.14.33-1.05.61-2.92.67-2.9.09-3.22,0-3.72-1.3s-2.4-2-2.4-.79c0,.34.22.46.5.27s.37,0,.21.51a.76.76,0,0,1-1.08.51c-.52-.23-.67-.12-.44.32.4.76-1.27,1.32-3.2,1.07a4.3,4.3,0,0,0-2.18.36c-.82.47-.85.39-.31-.78ZM455.43,8.9c.14-.27-.06-.49-.45-.49s-.59.22-.45.49.34.48.45.48S455.29,9.16,455.43,8.9Zm-20.49,2.3c-.16-.28.17-.65.72-.82s.9-.61.69-1.23-.09-.93.17-.93c.69,0,.58,1.9-.16,2.76S435.31,11.9,434.94,11.2ZM438,9.58c.14-.43.32-.78.4-.78s.26.35.4.78,0,.78-.4.78S437.87,10,438,9.58ZM440,7.94A3.8,3.8,0,0,1,442,7.07c1.2,0,2,.86,1.21,1.4-.25.19-.55,0-.66-.33-.14-.51-.46-.51-1.26,0-1.54,1-2.51.83-1.36-.19Zm-6.67-.08a.89.89,0,0,1,1,0c.4.18.28.32-.3.35s-.83-.11-.66-.31Zm26.47-.23c-.65-.48-.63-.57.12-.57.48,0,.88.25.88.57,0,.71-.06.71-1,0Zm-2.7-.89c-.24-.72-.11-.77.7-.27,1.16.72,1.27,1.16.29,1.16A1.24,1.24,0,0,1,457.05,6.74Z" transform="translate(-10.74 -5.02)"/></svg>