<svg xmlns="http://www.w3.org/2000/svg" viewBox="0 0 1022 190"><defs><style>.a{fill:#f99520;}</style></defs><title>yellow-stroke</title><path class="a" d="M198,202c-5.08-.27-13.63-.67-19-.89-19.15-.78-31-1.34-32.59-1.56-.89-.12-4.43-.37-7.87-.55s-7.09-.48-8.13-.65-3.49-.41-5.43-.52a122.14,122.14,0,0,1-16.94-2,13.2,13.2,0,0,0-3.83-.42c-.3.13-.37,0-.17-.2s-1.56-.5-5.6-.61a59.39,59.39,0,0,1-6.77-.44,2.48,2.48,0,0,1-1.11-1.75c-.35-1.7-.92-2-6.11-2.8-1.93-.31-5-1-6.75-1.46s-3.88-1-4.66-1.13c-2.25-.39-2.21-1.33.13-3.13s4.39-2.67,8.32-3.38c2.56-.46,6-2.37,6.08-3.32,0-.32-2.33-.94-5.66-1.5-.89-.15-3.82-.42-6.5-.61a64.83,64.83,0,0,1-7.94-1,58.2,58.2,0,0,0-9.65-.82c-7.16-.14-10.22-.81-10.68-2.32-.15-.51-1.49-1.33-3.39-2.06-1.74-.67-3-1.38-2.86-1.57s0-.27-.42-.17a5.59,5.59,0,0,1-5.32-2c-1-1.57-.54-3,1-3,.44,0,.8-.13.81-.31a11.24,11.24,0,0,1,3.69-.36c2,0,3.75-.24,3.86-.46s.65-.4,1.2-.39a2,2,0,0,0,1.36-.4,1.35,1.35,0,0,1,.9-.41c.3,0,.42.16.26.35s.44.33,1.32.34,1.6-.21,1.61-.54.26-.44.56-.29.54.1.54-.13c0-.66-1.39-.93-3.89-.74a19.34,19.34,0,0,1-4.77-.36c-1.34-.29-2.8-.6-3.25-.67a14.69,14.69,0,0,1-1.76-.48,4.58,4.58,0,0,0-2-.14c-1.39.25-1.85-.34-.77-1,.45-.28.82-.35.82-.14s.18.18.41-.05c.7-.71,2.9-1.48,2.88-1,0,.23.25.43.56.44s.46-.14.32-.33c-.36-.49,4-.48,5.1,0a1.47,1.47,0,0,0,1.54-.07c.74-.54,2.93-.72,2.49-.2s1.24.4,1.95-.23c.5-.45,1-.49,2-.17,1.72.55,2.3.55,1.28,0-.6-.33-.33-.42,1.1-.37a60,60,0,0,0,6-.32c2.26-.23,4.75-.42,5.55-.43,2.38,0,1.75-1.49-1.43-3.24-1.82-1-2.67-1.74-2.47-2.14a.57.57,0,0,1,.92-.2,2.48,2.48,0,0,0,1.71.07,13.54,13.54,0,0,1,3.12-.31c1.57,0,2.25-.24,3-1.1,1.23-1.4,1.41-2.19.73-3.26-.3-.46-.32-.72,0-.58s.84-.46,1.27-1.32a4.94,4.94,0,0,1,1.38-1.86c.34-.17-.37-.33-1.56-.36-1.61,0-2-.16-1.35-.45s.4-.41-.94-.44a9.43,9.43,0,0,1-2.71-.45c-.51-.22-3.18-1.16-5.92-2.09-5.51-1.85-8.72-2.31-20.43-2.93-9-.48-10-.59-11.39-1.22s-8.83-1.66-13.53-1.88a20.46,20.46,0,0,1-6.22-1.11,26.73,26.73,0,0,0-5.13-1.27c-3-.38-6.75-1.51-6.73-2A9.57,9.57,0,0,1,3.16,124c2.67-.63,4.92-.71,14.57-.55,7.71.14,12.1,0,13.51-.3,2-.49,4-.38,9,.52a78.37,78.37,0,0,0,8.09.61,35.87,35.87,0,0,1,6.81.66,6.6,6.6,0,0,0,3,.18,13.06,13.06,0,0,1,2.46-.19c1,.2,17.53.4,19.37.23,3.13-.29,7.05-.46,12.46-.56,2.8,0,5.37-.29,5.7-.54.59-.44-.4-.68-2.19-.54-.38,0-.68-.16-.67-.43s-.34-.4-.77-.28a1.64,1.64,0,0,1-1.43-.43c-.52-.52-.74-.54-1.12-.1s-.46.44-.45,0-.37-.47-1-.33-1.15,0-1.38-.52-.08-.82.25-.9c.84-.2,2.24-1.3,2.25-1.77,0-.66-2.1-2.2-2.67-1.94-.29.13-.37,0-.19-.39s0-.57-.9-.39-1.16.08-.87-.47c.53-1-.61-1.37-1.54-.47-.51.49-.7.54-.51.14.33-.71-2.18-1.91-3.11-1.48-.32.14-.38,0-.15-.23s.14-.49-.17-.5a.63.63,0,0,0-.6.63c0,.9-1.11.78-1.12-.13,0-.63-.09-.62-.48.1-.26.46-.4,1-.31,1.08s-.31.25-.89.27c-1.27.05-1.34-.28-.17-.92.67-.36.19-.45-2.21-.4-1.81,0-2.93-.09-2.74-.32s-.16-.3-.77-.19-1.09,0-1.08-.3-.27-.37-.63-.21-.51.06-.2-.51a6.9,6.9,0,0,0,.59-1.39c.24-1,1.64-1.25,3.32-.63.89.33,1.31.61.94.62-1.34.05-.68.88.71.91,1,0,1.33-.15,1.13-.61a.65.65,0,0,1,.27-.88c.35-.17.3-.51-.13-1s-.55-.65.17-.42a2.44,2.44,0,0,0,1.64-.14c.61-.33.57-.37-.19-.19s-.9,0-.57-.93a3,3,0,0,1,.85-1.38c.8-.39,0-2.08-.91-1.84-.57.16-.75,0-.61-.57s-.09-.78-.89-.73c-.6,0-.78,0-.4-.15s.57-.39.42-.59.23-.63.84-1,1-.71.76-.87.12-.28.69-.27c.86,0,.91-.06.26-.4s-.93-.25-1.2.07-.56.37-.74.22c-.34-.28.72-2.07,1.46-2.45s1.35-2.26.77-2c-.28.12-.78-.14-1.11-.58-.54-.73-.45-.8.86-.71.93.07,1.43-.09,1.36-.43s.06-.51.29-.47c1.11.16,1.77-.08,1.79-.66a.63.63,0,0,1,.59-.63c.32,0,.44-.16.28-.38s0-.49.4-.6.31-.23-.26-.26-1-.2-.94-.38-.85-.31-1.89-.29-1.76-.14-1.59-.35-.21-.38-.84-.4-1-.21-.8-.44.06-.43-.29-.43-.47-.31-.26-.71c.3-.58.22-.61-.48-.17s-.85.41-.83-.12c0-.35.51-.73,1.12-.85A1.23,1.23,0,0,0,78,85.66c0-.76-.21-.87-1.47-.68s-1.34.14-.56-.23.87-.53-.18-1.53a4,4,0,0,0-1.94-1.09c-1.64,0-.16-.45,2-.58,1.32-.08,2.13,0,1.94.26s-.08.4.22.4a1.16,1.16,0,0,0,.83-.33,3.9,3.9,0,0,1,2.08-.24,5.64,5.64,0,0,0,2.43-.26.72.72,0,0,1,1,.08c.23.31.67.33,1.36.05A6.79,6.79,0,0,1,88,81.17a73.1,73.1,0,0,0,9.08-.45,76.27,76.27,0,0,1,8.13-.65c1,0,.92-2,0-2.61a2.36,2.36,0,0,1-.88-1.67c-.05-.74-.33-1.12-.75-1s-.55-.05-.38-.39-.26-.68-1.32-.88c-1.78-.35-3-1.31-2.51-1.93.19-.23-.14-.31-.76-.2-.78.14-1.09,0-1.07-.53s-.46-.84-1.06-1c-1.2-.28-1.38-.8-.42-1.24.4-.19.49-.11.23.2s-.21.47,0,.44c1.16-.13,1.8.14,1.78.76,0,.88,1.29.56,1.55-.38.11-.39,0-.69-.25-.66-1.51.17-2.35-.18-2.32-1,0-.48.27-.75.56-.6s.55-.12.56-.61A.84.84,0,0,1,99,66a1.32,1.32,0,0,0,1.1-.64c.19-.36.12-.55-.16-.43a.54.54,0,0,1-.72-.31c-.12-.3-.16-.21-.1.21s-.1.74-.37.74a.5.5,0,0,1-.48-.52c0-.28-.34-.15-.78.3-.58.6-.63.9-.18,1.13s.14.28-.5.22c-1-.07-1.67-1.21-.71-1.19.22,0,.56-.56.76-1.26.29-1,.65-1.27,1.74-1.25.75,0,1.38-.16,1.38-.4s.51-.42,1.11-.4c1.15,0,1.44.65.5,1.08s-.08,1,1.63.88c2.22-.1,2.77-.57.77-.67-1.55-.07-1.56-.08-.22-.35l1.37-.28-1.2-.54c-1.39-.63-1.58-1.38-.33-1.36.46,0,.69.21.49.44s-.09.43.23.43.59-.37.6-.84a.84.84,0,0,1,1-.83c.8,0,.78-.07-.12-.62s-1.09-.52-1.32-.08-.69.42-1.3.24c-.95-.29-.95-.35-.06-1a3.39,3.39,0,0,1,1.72-.69c.7,0,1-.5.88-1.37,0-.18.33-.32.8-.31s.71-.16.54-.38c-.39-.53.66-1,1.39-.63.38.19.35.47-.1.87s-.48.6,0,.6c.63,0,.82-.5.68-1.86-.11-1.06.94-1.51,3.43-1.46,1.21,0,2-.16,1.92-.44s1.06-.46,3.14-.43a12.75,12.75,0,0,0,4-.36,4.23,4.23,0,0,1,2.27-.12,2.39,2.39,0,0,0,2.31-.44c.4-.39.51-.57.24-.4s-1.16-.52-2-1.53-1.49-1.68-1.5-1.46-.49,0-1.07-.41-1-1-1-1.26.27-.13.56.29a2,2,0,0,0,1.43.77c.66,0,.74-.11.3-.47a.94.94,0,0,1-.27-1.11c.27-.5.4-.51.77,0s.44.35.46-.27c0-1.07-1.22-2.47-1.82-2.06-.25.16-.27.06,0-.23a.79.79,0,0,1,.91-.28c.28.14.51.07.52-.17a.93.93,0,0,0-.5-.69c-.69-.35,0-1.59,1.24-2.26.56-.3.87-.74.68-1s.12-.34,1-.12c1,.27,1.16.23.62-.24-.8-.7-.83-2,0-2.18.54-.13.69-.86.52-2.58,0-.45-.53-.76-1.21-.78s-.88-.15-.53-.33c.85-.43,1.41-1.71.86-2a.56.56,0,0,0-.73.29c-.14.29-.4.43-.57.3s-.08-.5.19-.83c.42-.51.67-.48,1.6.21s1.09.8,1.16,0c0-.45.19-.57.33-.27a1.05,1.05,0,0,0,.81.55c.31,0,.43-.28.27-.63s-.12-.61.09-.57a8,8,0,0,0,2-.4,4,4,0,0,1,2-.22c.27.14.5,0,.51-.22s.24-.37.51-.22a.71.71,0,0,0,.83-.15,1.91,1.91,0,0,1,1.28-.38c1.5,0,2.44-.18,4.94-1.14a13.37,13.37,0,0,1,3.11-.89,1.13,1.13,0,0,0,1-.5c.25-.55,5.33-.72,5.32-.18,0,.18.66.19,1.49,0a25.09,25.09,0,0,1,7.59.3c1.3.25,1.7.13,2.31-.72.41-.57.61-1.22.44-1.45-.44-.59-4.11-1.07-10.1-1.31A30.16,30.16,0,0,1,146,21.7a4.62,4.62,0,0,0-1.61-.49c-.24,0-1.32,0-2.41,0-1.48-.07-2-.31-2.23-1s0-.86,1.19-.85c1.38,0,1.4,0,.42-.62s-.49-.62,4-.44a23.72,23.72,0,0,1,5,.46c0,.14.67.21,1.49.15,3.7-.26,9.33-.51,11.41-.51,1.25,0,2.15-.15,2-.34s.19-.36.74-.38a11.43,11.43,0,0,0,3.6-.48,5.67,5.67,0,0,0,2.08-1.91c1.11-1.6,2.89-2.52,3.22-1.65.13.33.44.32,1,0s1-.35,1.17-.08c.38.46,9.15.64,9.73.2.18-.14.62-.05,1,.18.67.46,3.95.45,5,0a5.73,5.73,0,0,1,2.46.17c1,.25,6.37.64,11.89.87s13.2.57,17.08.77c20.93,1,27.32,1.28,40.34,1.5,10.23.17,14.27.37,14.26.71s.19.36.71,0c.74-.45,4-.51,13.44-.22,2.84.08,5.41.14,5.71.13l6.53-.32a52.66,52.66,0,0,1,6.9,0,1.38,1.38,0,0,0,1.19-.12A18.35,18.35,0,0,1,318,17c2.49,0,5.92-.17,7.64-.38s6.25-.39,10.08-.42,8.67-.09,10.76-.13a18.53,18.53,0,0,1,4.82.34c.55.24.87.26.71.05s2-.33,5-.25a39.28,39.28,0,0,0,7.18-.33c1.45-.36,2-.35,2.3,0s.39.35.41,0,1.54-.48,4-.49c5.39,0,21.81.26,25.14.44,1.5.08,4.92.06,7.62,0,6.5-.22,16.6-.15,16.59.12s2.6.23,7-.26a23.39,23.39,0,0,1,5.45-.12c1.88.42,5.53.6,5.54.27,0-.14.68-.25,1.5-.23,15.21.32,43.92.09,44.88-.35.24-.11.42,0,.42.18s.72.31,1.61.22a7.77,7.77,0,0,1,2.58.18c1.2.43,3.37.6,3.11.25a80.28,80.28,0,0,1,9.16,0c5.14.16,9.34.31,9.34.35s1.53.14,3.4.23a11,11,0,0,0,3.4-.12c0-.16.86-.11,1.9.1a4.28,4.28,0,0,0,2.14.08,24.22,24.22,0,0,1,5.17-.18c2.94.08,4.94-.05,5-.3s.18-.23.41.05c.47.58,4.58.63,5.15.06.27-.28.41-.28.4,0s.92.42,2,.42a13.59,13.59,0,0,1,3.29.38,3.63,3.63,0,0,0,2.26,0c1-.39,3.25-.51,15-.78,3-.07,7.89-.25,10.89-.4s9.73-.22,15-.14,10.5,0,11.7-.15,7.82-.2,14.69-.1c16.16.22,28.32.12,33.16-.28l10.13-.83c3.45-.29,9.21-.68,12.81-.88s7.64-.44,9-.53a57.23,57.23,0,0,1,12.55.48c2.3.38,9.27.7,19.45.89,8.73.17,16,.39,16.25.5s9.42.49,20.48.86,22.06.81,24.44,1c13.41.89,23.59,1.26,45.92,1.65,3.14.06,6.56.18,7.6.28,2.26.2,12.71.78,22.54,1.25,21.23,1,29.15,1.33,43.46,1.78,8.67.27,16.61.61,17.65.76s3.85.38,6.24.51c4.42.25,9.47.82,10.12,1.14a31.9,31.9,0,0,0,4.07.48c2,.16,5.16.51,7,.77s4,.56,4.87.68,3.61.65,6,1.19a51.29,51.29,0,0,0,5.54,1c.63,0,1.13.18,1.12.37s.3.37.67.38a127.72,127.72,0,0,1,13.82,1.31,6.72,6.72,0,0,1,2.85,1.77c1.21,1.4,4.46,2.84,7.47,3.29a101.78,101.78,0,0,0,11.63,1.08c.76,0,1.38.12,1.38.37s.15.34.36.18.87.11,1.48.58a32.78,32.78,0,0,0,4.73,2.44,18.62,18.62,0,0,0,7.48,1.82c4.07.27,4.79.65,4.34,2.29-.29,1.05-2.49,1.87-4.87,1.83a2.47,2.47,0,0,0-1.59.39,4.08,4.08,0,0,1-2.2.39c-2.86-.06-7.36.72-7.36,1.27,0,.91,4.1,2.11,8.15,2.37,2.19.15,7.29.44,11.32.66,8.14.45,9,.58,9.4,1.47.59,1.32-7,5.6-13.22,7.44-2,.59-3,1.2-3.71,2.22-1.2,1.75-.68,2.6,2.54,4.18,1.26.62,2.27,1.41,2.26,1.77a2,2,0,0,0,.77,1.31c1.24,1,.9,2-.94,2.86a28.39,28.39,0,0,0-4.07,2.42,7.49,7.49,0,0,1-5.06,1.79c-2,.07-2.92.34-3.61,1-.52.51-.83,1.08-.69,1.27s0,.33-.31.32a2.14,2.14,0,0,0-1.22.94c-.37.52-.48.82-.25.66.58-.4,2,.87,1.6,1.39-.2.24.07.34.64.22s0,.17-1.21.61a13.48,13.48,0,0,1-3.94.79,13.46,13.46,0,0,0-3.14.36c-1,.29-1.4.25-1.4-.13s-.26-.2-.57.19c-1.07,1.36-.09,2.87,2.6,4a10.52,10.52,0,0,1,3.35,2.11,6.64,6.64,0,0,0,2.94,1.58c4.35,1.12,5,3.34,1.12,4.12-2.38.49-3.55,1.85-2.88,3.34.35.78.33,1.14-.06,1.13a2.12,2.12,0,0,0-2,2.07c0,1,0,1.06-4.62,1.8a9.88,9.88,0,0,0-3,1.3,20.87,20.87,0,0,1-3.18,1.67c-.83.32-1.52.86-1.54,1.2,0,.79-2,1.57-4.35,1.72-2.57.16-3.63.67-3.77,1.79-.12.94,2,3,3.06,3,.68,0,3.68,2.53,3.67,3.07,0,.73-2,1.19-5.81,1.35-2.07.09-5,.35-6.5.57-2.49.36-11.37,1.37-13.39,1.51-.85.06-1.27,1.58-.44,1.6.24,0,.19.36-.13.79s-.4.93-.2,1.1c.69.56.26,6-.51,6.58a7.71,7.71,0,0,1-3.24.65c-2.22.08-3.71.72-3.22,1.39.09.13-.18.48-.61.77s-.77.4-.76.22-.29-.09-.65.18a1,1,0,0,1-1.36,0c-.51-.35-1.15-.34-2.35,0-2.77.84-1.91,2.14,1.81,2.75,4.17.67,5.1,1,4.45,1.47a82.27,82.27,0,0,1-8.6.21c-9.68,0-10.8.29-11.69,3.41a11,11,0,0,1-1.87,3.41,9.68,9.68,0,0,0-2.27,4.41c0,.23-.86.47-1.86.52-1.26.07-1.93.36-2.13.92s-.52.7-.78.57-.48-.05-.49.19-1.13.92-2.51,1.52c-3.89,1.68-4.47,3.11-1.63,4,1.32.42,1.38.75.42,2.53-.7,1.32,1.06,2.2,6.89,3.46,5.64,1.21,7.21,2,5.56,2.83-1,.51-8.39-.14-20-1.75-5.25-.73-7.46-.44-8.68,1.13s-2.47,2-6.09,2.17c-3,.12-5.81,1.23-5.85,2.3,0,.65,2.38,1.32,5.15,1.43,2.09.08,4.53,1.25,3.31,1.59a5.61,5.61,0,0,0-1.52.8c-.45.34-.82.5-.82.36,0-.51-3.33,1-4,1.86a8.8,8.8,0,0,1-4.83,2.34c-2.8-.19-6.52,0-6.54.37,0,.66,2.79,2.62,3.38,2.35.29-.14.36,0,.15.21a.47.47,0,0,0,.18.74.45.45,0,0,1,.21.69c-.19.23-.05.7.31,1.06,1,1,0,1.41-4.18,1.55-2.09.08-4.91.3-6.26.51s-5.9.72-10.1,1.14-9,1.11-10.69,1.52a28.71,28.71,0,0,1-6.42.69,41.56,41.56,0,0,0-7.34.72c-3.74.74-5,.75-23,.18-10.46-.33-21.09-.73-23.63-.88-6.62-.41-14.75-1-15.86-1.22-.53-.09-6.89-.42-14.13-.72-10.36-.44-14.75-.45-20.54,0-4,.29-11.49.56-16.53.6s-10.07.14-11.16.22c-3.77.29-16.72.71-24.31.79-4.19,0-11.78.18-16.87.3s-15.38.21-22.86.21-14.33,0-15.23.09-7,.13-13.66.14-12.74.09-13.61.16c-1.67.12-5.79.26-20.36.69-11.44.33-20,.77-27.13,1.4-3.08.27-6.54.47-7.68.45a18.67,18.67,0,0,0-3.67.33,37,37,0,0,1-5,.52c-1.89.09-5.82.49-8.74.9s-6.76.81-8.56.9-5.11.31-7.36.49-5.56.41-7.36.49-5.93.39-9.19.69-7.91.61-10.35.7-5.85.28-7.57.42-6.13.24-9.8.21-8.51.09-10.76.26c-4.44.34-13.89.55-21.23.48a69.94,69.94,0,0,0-7.08.27c-1.36.17-10.66.25-20.68.18s-18.75-.07-19.39,0-5.92.2-11.71.25-11.75.11-13.25.16-7,.11-12.24.15-11.61.15-14.16.25-4.87.13-5.17.06-4.09,0-8.43.18-10.35.36-13.34.43-6.31.19-7.36.27-5.21.19-9.25.26-7.47.18-7.62.25-3.34.19-7.09.27-7.29.21-7.89.29c-1.11.15-39.63-.07-56.3-.32-4.93-.07-13.12-.35-18.2-.63ZM87.64,146.94c.27,0,0-.42-.49-.91-.83-.76-1.52-.88-4.77-.84-2.09,0-3.89.25-4,.5-.3.65,3.45,1.45,6.31,1.35Zm13.58-23.06c0-.11-.24-.2-.54-.2a.51.51,0,0,0-.56.44c0,.25.24.34.54.2S101.22,124,101.22,123.88ZM73.91,110.59c0-.1-.37-.29-.83-.44s-.7-.09-.52.15c.31.42,1.34.63,1.35.29ZM80.4,97.1c-.53-.43-.59-.38-.32.23.19.43.49.67.66.54s0-.48-.34-.77Zm4.51-5c-.52-.43-.59-.38-.31.23.19.43.49.67.66.54s0-.47-.35-.77Zm-4.06-2.53c-.18-.24-.43-.44-.57-.44s-.24.19-.25.42.25.44.56.44S81,89.77,80.85,89.53ZM103.08,69.6a1.34,1.34,0,0,0-1,0c-.19.13.13.24.71.24s.76-.11.33-.26ZM103,68.48a6.28,6.28,0,0,1-2.09-2.73c0-.15.37,0,.82.28,1.06.73,1.7.24.83-.63a1.33,1.33,0,0,0-2.21.89c0,.33-.21.51-.45.39s-.47.16-.53.61.25.83,1,.84,1,.22,1,.45.54.43,1.21.44c1,0,1.11-.07.43-.54Zm-3.24-1c0-.11.26-.31.56-.45s.55,0,.54.2a.51.51,0,0,1-.56.44C100,67.7,99.78,67.61,99.78,67.51Zm9.91-8.7c0-.52,0-.72-.19-.43a.59.59,0,0,1-.77.29c-.26-.14-.34,0-.18.42C109,60.06,109.58,59.92,109.69,58.81Zm-2.79-.4c.61-.73-.05-.9-.82-.21-.44.39-.49.64-.13.64a1.36,1.36,0,0,0,1-.43ZM125,44.11c0-.1-.36-.29-.8-.43s-.81-.08-.82.15.35.42.8.43.82-.06.82-.15Zm-91.76,112a1,1,0,0,1,.57-.66c.3-.14.54.05.53.41a.63.63,0,0,1-.56.66C33.5,156.51,33.26,156.33,33.26,156.11Zm23.31-34.67a1.67,1.67,0,0,1,1.29-.24c.41.12.15.31-.59.44C56.36,121.81,56.15,121.75,56.57,121.44Zm7.73.23c-.56-.3-.59-.45-.12-.48a4.73,4.73,0,0,0,2.15-.45.86.86,0,0,1,1,.2c.24.31.15.38-.24.19s-.62,0-.64.34C66.46,122.23,65.5,122.31,64.3,121.67Zm-2.77-1a.87.87,0,0,1,1.17,0c.34.28.12.44-.64.47s-1-.07-.53-.43Zm13.89-6.26c0-.37.26-.54.55-.39a.91.91,0,0,1,.53.68c0,.22-.26.39-.56.39A.6.6,0,0,1,75.42,114.39Zm.83-7.12c.93-1.32,1-1.36.9-.36a1.37,1.37,0,0,1-.84,1.09c-.57.16-.58,0-.06-.73ZM80,91.67c-.46-.24-.2-.43.81-.61,1.82-.32,2.17-.12.85.49a2.18,2.18,0,0,1-1.66.12ZM91.92,63a1.34,1.34,0,0,1,1,0c.43.15.3.25-.34.25s-.89-.1-.7-.23Zm1.68-1.68a1.38,1.38,0,0,1,1.05,0c.43.14.29.24-.34.25S93.42,61.47,93.6,61.33Zm9.86-5.28c0-.45.13-.7.31-.55a.71.71,0,0,1,0,.82c-.18.34-.31.23-.32-.27ZM123.22,32.7c-.49-.26-.55-.43-.16-.42a1.34,1.34,0,0,1,1,.44c.4.54.21.53-.81,0Z" transform="translate(0 -13)"/></svg>