<svg width="14" height="14" viewBox="0 0 14 14" fill="none" xmlns="http://www.w3.org/2000/svg">
<path d="M3.03841 7.58333H9.55425L6.70758 10.43C6.48008 10.6575 6.48008 11.0308 6.70758 11.2583C6.93508 11.4858 7.30258 11.4858 7.53008 11.2583L11.3742 7.41416C11.6017 7.18666 11.6017 6.81916 11.3742 6.59166L7.53591 2.74166C7.42693 2.63243 7.27896 2.57104 7.12466 2.57104C6.97036 2.57104 6.8224 2.63243 6.71341 2.74166C6.48591 2.96916 6.48591 3.33666 6.71341 3.56416L9.55425 6.41666H3.03841C2.71758 6.41666 2.45508 6.67916 2.45508 7C2.45508 7.32083 2.71758 7.58333 3.03841 7.58333Z" fill="#F5C123"/>
</svg>
