<svg width="1939" height="350" viewBox="0 0 1939 350" fill="none" xmlns="http://www.w3.org/2000/svg">
<mask id="mask0" mask-type="alpha" maskUnits="userSpaceOnUse" x="-4" y="-8" width="1944" height="628">
<path d="M1939 -8H-4V620H1939V-8Z" fill="white"/>
</mask>
<g mask="url(#mask0)">
<path d="M1939 -8H-4V620H1939V-8Z" fill="url(#paint0_linear)"/>
<path opacity="0.45" d="M1319.42 -611.632L588.806 -60.5715C571.398 -47.4417 567.92 -22.673 581.038 -5.24918L1054.86 624.106C1067.98 641.53 1092.72 645.011 1110.13 631.882L1840.75 80.8208C1858.15 67.691 1861.63 42.9224 1848.51 25.4985L1374.69 -603.857C1361.58 -621.281 1336.83 -624.762 1319.42 -611.632Z" fill="url(#paint1_linear)"/>
<path opacity="0.45" d="M221.786 -666.087L-508.829 -115.026C-526.237 -101.897 -529.715 -77.128 -516.597 -59.7041L-42.7759 569.651C-29.658 587.075 -4.912 590.556 12.496 577.426L743.111 26.3658C760.519 13.236 763.997 -11.5327 750.879 -28.9565L277.058 -658.312C263.94 -675.736 239.194 -679.217 221.786 -666.087Z" fill="url(#paint2_linear)"/>
<path opacity="0.45" d="M1984.68 -208.648L1254.07 342.412C1236.66 355.542 1233.18 380.311 1246.3 397.735L1720.12 1027.09C1733.24 1044.51 1757.98 1048 1775.39 1034.87L2506.01 483.805C2523.41 470.675 2526.89 445.906 2513.77 428.482L2039.95 -200.873C2026.84 -218.297 2002.09 -221.778 1984.68 -208.648Z" fill="url(#paint3_linear)"/>
<path opacity="0.7" d="M1154.21 783.077C1422.2 783.077 1639.45 565.628 1639.45 297.39C1639.45 29.1528 1422.2 -188.297 1154.21 -188.297C886.217 -188.297 668.966 29.1528 668.966 297.39C668.966 565.628 886.217 783.077 1154.21 783.077Z" fill="url(#paint4_radial)"/>
</g>
<defs>
<linearGradient id="paint0_linear" x1="-4" y1="338.742" x2="1727.35" y2="-220.679" gradientUnits="userSpaceOnUse">
<stop stop-color="#00ADEE"/>
<stop offset="1" stop-color="#274486"/>
</linearGradient>
<linearGradient id="paint1_linear" x1="1016.01" y1="572.507" x2="1403.79" y2="-421.759" gradientUnits="userSpaceOnUse">
<stop stop-color="#00ADEE"/>
<stop offset="0.632054" stop-color="#000631"/>
<stop offset="1" stop-color="#274486"/>
</linearGradient>
<linearGradient id="paint2_linear" x1="-81.6235" y1="518.052" x2="306.156" y2="-476.214" gradientUnits="userSpaceOnUse">
<stop stop-color="#00ADEE"/>
<stop offset="0.632054" stop-color="#000631"/>
<stop offset="1" stop-color="#274486"/>
</linearGradient>
<linearGradient id="paint3_linear" x1="1681.27" y1="975.491" x2="2069.05" y2="-18.7756" gradientUnits="userSpaceOnUse">
<stop stop-color="#00ADEE"/>
<stop offset="0.632054" stop-color="#000631"/>
<stop offset="1" stop-color="#1CA3EC"/>
</linearGradient>
<radialGradient id="paint4_radial" cx="0" cy="0" r="1" gradientUnits="userSpaceOnUse" gradientTransform="translate(-246.49 1166.61) rotate(86.8098) scale(445.965 488.641)">
<stop stop-color="#512EC3"/>
<stop offset="1" stop-color="#3659D2" stop-opacity="0"/>
</radialGradient>
</defs>
</svg>
