<svg width="20" height="20" viewBox="0 0 20 20" fill="none" xmlns="http://www.w3.org/2000/svg">
<path d="M17.5 15.625V10.6301C17.5 9.48141 17.5 8.90706 17.3519 8.37812C17.2208 7.90959 17.0053 7.46891 16.7159 7.07773C16.3893 6.63613 15.936 6.28351 15.0292 5.57827L13.9292 4.72272C12.5239 3.6297 11.8213 3.0832 11.0454 2.87312C10.3608 2.68776 9.63921 2.68776 8.95461 2.87312C8.17873 3.0832 7.47608 3.6297 6.07078 4.72272L4.97078 5.57827C4.06404 6.28351 3.61067 6.63613 3.28405 7.07773C2.99473 7.46891 2.7792 7.90959 2.64805 8.37812C2.5 8.90706 2.5 9.48142 2.5 10.6301V15.625C2.5 15.8959 2.5 16.0313 2.5131 16.1452C2.61935 17.0687 3.34791 17.7973 4.27143 17.9036C4.38534 17.9167 4.52078 17.9167 4.79167 17.9167H5.3125C6.2905 17.9167 7.08333 17.1238 7.08333 16.1458V13.75C7.08333 12.1392 8.38917 10.8333 10 10.8333C11.6108 10.8333 12.9167 12.1392 12.9167 13.75V16.1458C12.9167 17.1238 13.7095 17.9167 14.6875 17.9167H15.2083C15.4792 17.9167 15.6147 17.9167 15.7286 17.9036C16.6521 17.7973 17.3807 17.0687 17.4869 16.1452C17.5 16.0313 17.5 15.8959 17.5 15.625Z" stroke="#FFCE1A" stroke-width="1.8"/>
</svg>
