<svg width="25" height="26" viewBox="0 0 25 26" fill="none" xmlns="http://www.w3.org/2000/svg">
<circle cx="12.5" cy="13" r="12" stroke="#3D3D46"/>
<path d="M17.8888 10.7695C17.8634 10.1938 17.7703 9.79798 17.637 9.455C17.4994 9.09094 17.2877 8.765 17.0104 8.49405C16.7394 8.21888 16.4113 8.00505 16.0515 7.86962C15.7065 7.73625 15.3128 7.64315 14.7371 7.61776C14.157 7.59023 13.9729 7.58386 12.5018 7.58386C11.0307 7.58386 10.8465 7.59023 10.2687 7.61561C9.69293 7.641 9.29712 7.73418 8.95423 7.86747C8.59009 8.00505 8.26415 8.21673 7.99319 8.49405C7.71802 8.765 7.50428 9.09309 7.36876 9.45294C7.23539 9.79798 7.14229 10.1916 7.11691 10.7674C7.08937 11.3474 7.08301 11.5315 7.08301 13.0026C7.08301 14.4738 7.08937 14.6579 7.11476 15.2358C7.14014 15.8115 7.23333 16.2073 7.3667 16.5503C7.50428 16.9143 7.71802 17.2403 7.99319 17.5112C8.26415 17.7864 8.59224 18.0002 8.95208 18.1357C9.29712 18.269 9.69078 18.3621 10.2666 18.3875C10.8444 18.413 11.0286 18.4193 12.4997 18.4193C13.9708 18.4193 14.155 18.413 14.7328 18.3875C15.3086 18.3621 15.7044 18.269 16.0473 18.1357C16.7755 17.8541 17.3512 17.2784 17.6327 16.5503C17.766 16.2052 17.8592 15.8115 17.8846 15.2358C17.91 14.6579 17.9163 14.4738 17.9163 13.0026C17.9163 11.5315 17.9142 11.3474 17.8888 10.7695ZM16.9131 15.1934C16.8897 15.7226 16.8009 16.0084 16.7268 16.1989C16.5447 16.6709 16.1701 17.0456 15.698 17.2276C15.5075 17.3017 15.2197 17.3906 14.6926 17.4138C14.1211 17.4393 13.9497 17.4456 12.5039 17.4456C11.0582 17.4456 10.8847 17.4393 10.3152 17.4138C9.78603 17.3906 9.50027 17.3017 9.30977 17.2276C9.07486 17.1408 8.86104 17.0032 8.68749 16.8233C8.50757 16.6476 8.36998 16.4359 8.28317 16.201C8.20908 16.0105 8.1202 15.7226 8.09696 15.1956C8.07149 14.6241 8.06521 14.4526 8.06521 13.0069C8.06521 11.5611 8.07149 11.3876 8.09696 10.8182C8.1202 10.289 8.20908 10.0033 8.28317 9.81278C8.36998 9.57779 8.50757 9.36405 8.68964 9.19041C8.86526 9.01049 9.07693 8.87291 9.31192 8.78617C9.50242 8.71209 9.79033 8.6232 10.3174 8.59988C10.8889 8.5745 11.0604 8.56813 12.506 8.56813C13.9539 8.56813 14.1253 8.5745 14.6947 8.59988C15.2239 8.6232 15.5097 8.71209 15.7002 8.78617C15.9351 8.87291 16.1489 9.01049 16.3224 9.19041C16.5024 9.36612 16.6399 9.57779 16.7268 9.81278C16.8009 10.0033 16.8897 10.2911 16.9131 10.8182C16.9384 11.3897 16.9448 11.5611 16.9448 13.0069C16.9448 14.4526 16.9384 14.6219 16.9131 15.1934Z" fill="#3D3D46"/>
<path d="M12.5018 10.2192C10.9651 10.2192 9.71831 11.4659 9.71831 13.0026C9.71831 14.5394 10.9651 15.7861 12.5018 15.7861C14.0385 15.7861 15.2853 14.5394 15.2853 13.0026C15.2853 11.4659 14.0385 10.2192 12.5018 10.2192ZM12.5018 14.8082C11.5049 14.8082 10.6962 13.9997 10.6962 13.0026C10.6962 12.0056 11.5049 11.1971 12.5018 11.1971C13.4988 11.1971 14.3074 12.0056 14.3074 13.0026C14.3074 13.9997 13.4988 14.8082 12.5018 14.8082Z" fill="#3D3D46"/>
<path d="M16.0452 10.1091C16.0452 10.468 15.7543 10.7589 15.3953 10.7589C15.0365 10.7589 14.7455 10.468 14.7455 10.1091C14.7455 9.75019 15.0365 9.4593 15.3953 9.4593C15.7543 9.4593 16.0452 9.75019 16.0452 10.1091Z" fill="#3D3D46"/>
</svg>
