<svg width="25" height="25" viewBox="0 0 25 25" fill="none" xmlns="http://www.w3.org/2000/svg">
<path fill-rule="evenodd" clip-rule="evenodd" d="M0 12.5C0 5.59644 5.59644 0 12.5 0C19.4036 0 25 5.59644 25 12.5C25 19.4036 19.4036 25 12.5 25C5.59644 25 0 19.4036 0 12.5Z" fill="#0077B5"/>
<path fill-rule="evenodd" clip-rule="evenodd" d="M9.01986 7.72016C9.00148 6.88563 8.4047 6.25 7.43563 6.25C6.46655 6.25 5.83301 6.88563 5.83301 7.72016C5.83301 8.5374 6.44783 9.19133 7.39886 9.19133H7.41696C8.4047 9.19133 9.01986 8.5374 9.01986 7.72016ZM8.83375 10.353H6.00098V18.8643H8.83375V10.353ZM15.7885 10.1532C17.6526 10.1532 19.0501 11.3699 19.0501 13.9842L19.05 18.8644H16.2173V14.3108C16.2173 13.1671 15.8074 12.3866 14.7819 12.3866C13.9993 12.3866 13.5332 12.9127 13.3284 13.4209C13.2535 13.603 13.2351 13.8568 13.2351 14.1112V18.8646H10.402C10.402 18.8646 10.4394 11.1519 10.402 10.3533H13.2351V11.5588C13.6111 10.9793 14.2845 10.1532 15.7885 10.1532Z" fill="white"/>
</svg>
