<svg width="24" height="24" viewBox="0 0 24 24" fill="none" xmlns="http://www.w3.org/2000/svg">
<g id="search_24px">
<path id="icon/action/search_24px" fill-rule="evenodd" clip-rule="evenodd" d="M15.1862 14.4716H15.9762L20.2162 18.7316C20.6262 19.1416 20.6262 19.8116 20.2162 20.2216C19.8062 20.6316 19.1362 20.6316 18.7262 20.2216L14.4762 15.9716V15.1816L14.2062 14.9016C12.8062 16.1016 10.8962 16.7216 8.86621 16.3816C6.08621 15.9116 3.86621 13.5916 3.52621 10.7916C3.00621 6.56157 6.56621 3.00157 10.7962 3.52157C13.5962 3.86157 15.9162 6.08157 16.3862 8.86157C16.7262 10.8916 16.1062 12.8016 14.9062 14.2016L15.1862 14.4716ZM5.47621 9.97157C5.47621 12.4616 7.48621 14.4716 9.97621 14.4716C12.4662 14.4716 14.4762 12.4616 14.4762 9.97157C14.4762 7.48157 12.4662 5.47157 9.97621 5.47157C7.48621 5.47157 5.47621 7.48157 5.47621 9.97157Z" fill="white"/>
</g>
</svg>
