<svg xmlns="http://www.w3.org/2000/svg" viewBox="0 0 48.62 67.18"><defs><style>.a{fill:#fff;}</style></defs><title>firebase-white</title><path class="a" d="M20.87,1.22A1.52,1.52,0,0,0,18,1.7L11.4,44.28,28,14.58Z" transform="translate(-9.8 -0.41)"/><path class="a" d="M51.08,14.23a1.53,1.53,0,0,0-1.54.37L9.8,54.62,31.79,67a4.56,4.56,0,0,0,4.44,0L58.42,54.62,52.11,15.43A1.5,1.5,0,0,0,51.08,14.23Z" transform="translate(-9.8 -0.41)"/><path class="a" d="M35.45,10.67a1.52,1.52,0,0,0-2.69,0L10.4,50.75,40.54,20.42Z" transform="translate(-9.8 -0.41)"/></svg>