<svg xmlns="http://www.w3.org/2000/svg" viewBox="0 0 87 68.59">
	<defs>
		<style>
			.a {
				fill: none;
				stroke: #000;
				stroke-linecap: round;
				stroke-linejoin: round;
				stroke-width: 4px;
			}
		</style>
	</defs>
	<title>logo</title>
	<path class="a"
		d="M26,18.17c-10.08,0-7.7,0-14.31-3.4C1.85,6.8,20.43,6.6,26,2.77c7.26-5,5.49,16.1,5.49,20.76,0,13.78,1.23,36.44-15.57,41.87C4.1,69.21-.47,63.62,3.28,51.63c3.31-10.56,21.11-17.41,29.9-22.47,1.82-1,13.28-9.89,13.78-4.77.33,3.36-.93,7.63.16,10.88s13-4.5,14.71-5.25c7-3,15.52-8.76,23.17-8.76"
		transform="translate(0 0)" />
</svg>