<?xml version="1.0" encoding="utf-8"?>
<!-- Generator: Adobe Illustrator 22.1.0, SVG Export Plug-In . SVG Version: 6.00 Build 0)  -->
<svg version="1.1" id="Camada_1" xmlns="http://www.w3.org/2000/svg" xmlns:xlink="http://www.w3.org/1999/xlink" x="0px" y="0px"
	 viewBox="0 0 443 443" style="enable-background:new 0 0 443 443;" xml:space="preserve">
<style type="text/css">
	.st0{fill:#FFFFFF;}
	.st1{fill:url(#SVGID_1_);}
	.st2{clip-path:url(#SVGID_3_);}
	.st3{fill:none;}
	.st4{opacity:0.66;fill:#4B4B4B;enable-background:new    ;}
	.st5{fill:url(#SVGID_4_);}
</style>
<title>nodejs-white</title>
<path class="st0" d="M219,357c-1.5,0-2.9-0.4-4.2-1.1l-13.3-7.9c-2-1.1-1-1.5-0.4-1.7c2.1-0.7,4.1-1.6,6-2.7c0.3-0.2,0.7-0.1,1,0.1
	l10.2,6.1c0.4,0.2,0.9,0.2,1.2,0l39.9-23.1c0.4-0.2,0.6-0.6,0.6-1.1v-46.1c0-0.5-0.2-0.9-0.6-1.1l-39.9-23c-0.4-0.2-0.8-0.2-1.2,0
	l-39.9,23c-0.4,0.2-0.6,0.6-0.6,1.1v46.1c0,0.4,0.2,0.9,0.6,1.1l10.9,6.3c5.9,3,9.6-0.5,9.6-4v-45.6c0-0.6,0.5-1.2,1.1-1.2
	c0,0,0,0,0,0h5.1c0.6,0,1.2,0.5,1.2,1.1c0,0,0,0,0,0v45.5c0,7.9-4.3,12.5-11.8,12.5c-2.3,0-4.1,0-9.2-2.5l-10.5-6
	c-2.6-1.5-4.2-4.3-4.2-7.3v-46.1c0-3,1.6-5.8,4.2-7.3l39.9-23.1c2.6-1.4,5.8-1.4,8.4,0l40,23.1c2.6,1.5,4.2,4.3,4.2,7.3v46.1
	c0,3-1.6,5.8-4.2,7.3l-40,23.1C221.9,356.6,220.5,357,219,357z"/>
<path class="st0" d="M231.3,325.2c-17.5,0-21.1-8-21.1-14.8c0-0.6,0.5-1.1,1.1-1.1c0,0,0,0,0,0h5.2c0.6,0,1.1,0.4,1.1,1
	c0.8,5.3,3.1,7.9,13.7,7.9c8.4,0,12-1.9,12-6.4c0-2.6-1-4.5-14.1-5.8c-10.9-1.1-17.7-3.5-17.7-12.2c0-8.1,6.8-12.9,18.2-12.9
	c12.8,0,19.1,4.4,19.9,14c0,0.3-0.1,0.6-0.3,0.9c-0.2,0.2-0.5,0.4-0.9,0.4h-5.2c-0.5,0-1-0.4-1.1-0.9c-1.3-5.5-4.3-7.3-12.5-7.3
	c-9.2,0-10.3,3.2-10.3,5.6c0,2.9,1.3,3.8,13.7,5.4s18.1,3.9,18.1,12.5S244,325.2,231.3,325.2z"/>
<path class="st0" d="M288.9,276.8c0,4.3-3.4,7.7-7.7,7.7s-7.7-3.4-7.7-7.7c0-4.3,3.4-7.7,7.7-7.7
	C285.5,269.2,288.9,272.6,288.9,276.8z M274.7,276.8c0,3.6,2.9,6.5,6.4,6.5c3.6,0,6.5-2.9,6.5-6.4c0-3.6-2.9-6.5-6.4-6.5
	c0,0,0,0,0,0C277.6,270.4,274.8,273.3,274.7,276.8L274.7,276.8z M278.3,272.5h3c1,0,3,0,3,2.3c0.1,1-0.6,1.9-1.6,2.1
	c1.2,0.1,1.3,0.9,1.4,2c0,0.8,0.2,1.5,0.5,2.3h-1.8c0-0.4-0.3-2.6-0.3-2.7c-0.1-0.5-0.3-0.7-0.9-0.7H280v3.5h-1.7L278.3,272.5z
	 M279.9,276.3h1.3c0.6,0.1,1.2-0.4,1.3-1c0-0.1,0-0.1,0-0.2c0-1.2-0.8-1.2-1.3-1.2h-1.4V276.3z"/>
<path class="st0" d="M95.2,176.6c0-1.8-1-3.5-2.6-4.4l-42.4-24.4c-0.7-0.4-1.5-0.6-2.3-0.7h-0.4c-0.8,0-1.6,0.3-2.3,0.7L2.9,172.1
	c-1.6,0.9-2.6,2.6-2.6,4.4l0.1,65.6c0,0.9,0.5,1.8,1.3,2.2c0.8,0.5,1.8,0.5,2.5,0L29.4,230c1.6-0.9,2.6-2.6,2.6-4.4v-30.7
	c0-1.8,0.9-3.5,2.5-4.4l10.7-6.2c0.8-0.4,1.7-0.7,2.6-0.7c0.9,0,1.8,0.2,2.5,0.7l10.7,6.2c1.6,0.9,2.6,2.6,2.5,4.4v30.7
	c0,1.8,1,3.5,2.6,4.4l25.2,14.4c0.8,0.5,1.8,0.5,2.6,0c0.8-0.5,1.3-1.3,1.3-2.2L95.2,176.6z"/>
<path class="st0" d="M299,86.4c-1.2-0.7-2.8-0.2-3.5,1c-0.2,0.4-0.3,0.8-0.3,1.2v65c0,0.6-0.3,1.2-0.9,1.6c-0.6,0.3-1.2,0.3-1.8,0
	l-10.6-6.1c-1.6-0.9-3.5-0.9-5.1,0l-42.3,24.5c-1.6,0.9-2.6,2.6-2.6,4.4v48.9c0,1.8,1,3.5,2.6,4.4l42.4,24.5c1.6,0.9,3.5,0.9,5.1,0
	l42.4-24.5c1.6-0.9,2.6-2.6,2.6-4.4v-122c0-1.9-1-3.6-2.6-4.5L299,86.4z M295.1,210.8c0,0.5-0.2,0.9-0.6,1.1l-14.5,8.4
	c-0.4,0.2-0.9,0.2-1.3,0l-14.5-8.4c-0.4-0.2-0.6-0.7-0.6-1.1V194c0-0.5,0.2-0.9,0.6-1.1l14.5-8.4c0.4-0.2,0.9-0.2,1.3,0l14.5,8.4
	c0.4,0.2,0.6,0.6,0.6,1.1L295.1,210.8z"/>
<path class="st0" d="M440.1,193.5c1.6-0.9,2.6-2.6,2.5-4.4v-11.9c0-1.8-1-3.5-2.5-4.4L398,148.4c-1.6-0.9-3.5-0.9-5.1,0l-42.4,24.5
	c-1.6,0.9-2.6,2.6-2.6,4.4v48.9c0,1.8,1,3.5,2.6,4.4l42.1,24c1.6,0.9,3.4,0.9,5,0l25.5-14.1c1.2-0.7,1.7-2.3,1-3.5
	c-0.2-0.4-0.6-0.7-1-1l-42.6-24.5c-0.8-0.5-1.3-1.3-1.3-2.2V194c0-0.9,0.5-1.8,1.3-2.2l13.3-7.6c0.8-0.5,1.8-0.5,2.5,0l13.3,7.6
	c0.8,0.5,1.3,1.3,1.3,2.2v12.1c0,1.4,1.1,2.6,2.5,2.6c0.5,0,0.9-0.1,1.3-0.4L440.1,193.5z"/>
<path class="st0" d="M394.8,191.2c0.3-0.2,0.7-0.2,1,0l8.2,4.7c0.3,0.2,0.5,0.5,0.5,0.9v9.4c0,0.4-0.2,0.7-0.5,0.9l-8.1,4.7
	c-0.3,0.2-0.7,0.2-1,0l-8.1-4.7c-0.3-0.2-0.5-0.5-0.5-0.9v-9.4c0-0.4,0.2-0.7,0.5-0.9L394.8,191.2z"/>
<linearGradient id="SVGID_1_" gradientUnits="userSpaceOnUse" x1="116.535" y1="155.3279" x2="210.685" y2="155.3279" gradientTransform="matrix(1 0 0 -1 -0.31 357.14)">
	<stop  offset="1.000000e-02" style="stop-color:#FFFFFF"/>
	<stop  offset="0.19" style="stop-color:#E8E8E8"/>
	<stop  offset="0.54" style="stop-color:#C3C3C3"/>
	<stop  offset="0.82" style="stop-color:#ABABAB"/>
	<stop  offset="1" style="stop-color:#A3A3A3"/>
</linearGradient>
<path class="st1" d="M160.8,148.9c1.6-0.9,3.5-0.9,5.1,0l42,24.3c1.6,0.9,2.5,2.6,2.5,4.4v48.6c0,1.8-1,3.5-2.5,4.4l-42,24.3
	c-1.6,0.9-3.5,0.9-5.1,0l-42-24.3c-1.6-0.9-2.5-2.6-2.5-4.4v-48.6c0-1.8,1-3.5,2.5-4.4L160.8,148.9z"/>
<g>
	<defs>
		<path id="SVGID_2_" d="M165.8,148.9c-1.6-0.9-3.5-0.9-5.1,0l-42,24.3c-1.6,0.9-2.5,2.6-2.5,4.4v48.6c0,1.8,1,3.5,2.5,4.4l42,24.3
			c1.6,0.9,3.5,0.9,5.1,0l42-24.3c1.6-0.9,2.5-2.6,2.5-4.4v-48.6c0-1.8-1-3.5-2.5-4.4L165.8,148.9z"/>
	</defs>
	<clipPath id="SVGID_3_">
		<use xlink:href="#SVGID_2_"  style="overflow:visible;"/>
	</clipPath>
	<g class="st2">
		<path class="st3" d="M160.7,148.9l-42.1,24.3c-1.6,0.9-2.6,2.6-2.6,4.4v48.6c0,1.2,0.4,2.3,1.2,3.2l47.3-80.9
			C163.2,148,161.9,148.2,160.7,148.9z"/>
		<path class="st3" d="M164.8,255.2c0.3-0.1,0.7-0.3,1-0.4l41.9-24.2c1.5-0.9,2.4-2.6,2.3-4.4v-48.6c0-1.2-0.4-2.3-1.1-3.3
			L164.8,255.2z"/>
		<path class="st4" d="M207.7,173.1l-41.8-24.3c-0.4-0.2-0.9-0.4-1.3-0.5l-47.3,80.9c0.4,0.5,0.9,0.9,1.4,1.2l42.1,24.3
			c1.2,0.7,2.7,0.9,4.1,0.4l44.2-80.9C208.6,173.8,208.2,173.4,207.7,173.1z"/>
		<path class="st3" d="M119.1,172.9l-0.5,0.3c-1.6,0.9-2.6,2.6-2.6,4.4v48.6c0,1.8,1,3.5,2.6,4.4l42.1,24.3c1.1,0.6,2.4,0.8,3.7,0.5
			L119.1,172.9z"/>
		<path class="st3" d="M210,177.5c0.1-1.8-0.8-3.5-2.4-4.4l-41.8-24.3c-0.4-0.2-0.8-0.4-1.2-0.5l45.4,77.5V177.5z"/>
		
			<linearGradient id="SVGID_4_" gradientUnits="userSpaceOnUse" x1="115.865" y1="155.3387" x2="213.035" y2="155.3387" gradientTransform="matrix(1 0 0 -1 -0.31 357.14)">
			<stop  offset="0" style="stop-color:#A3A3A3"/>
			<stop  offset="0.18" style="stop-color:#ABABAB"/>
			<stop  offset="0.46" style="stop-color:#C3C3C3"/>
			<stop  offset="0.81" style="stop-color:#E8E8E8"/>
			<stop  offset="0.99" style="stop-color:#FFFFFF"/>
		</linearGradient>
		<path class="st5" d="M165.7,254.8l41.9-24.2c1.5-0.9,2.4-2.6,2.3-4.4v-0.2l-45.4-77.5c-1.3-0.4-2.7-0.2-3.9,0.5l-41.6,24
			l45.3,82.4C164.8,255.2,165.3,255,165.7,254.8z"/>
	</g>
</g>
</svg>
